<?xml version="1.0" encoding="UTF-8" standalone="no"?>
<svg
   xmlns:dc="http://purl.org/dc/elements/1.1/"
   xmlns:cc="http://creativecommons.org/ns#"
   xmlns:rdf="http://www.w3.org/1999/02/22-rdf-syntax-ns#"
   xmlns:svg="http://www.w3.org/2000/svg"
   xmlns="http://www.w3.org/2000/svg"
   viewBox="0 0 356 354.66666"
   height="354.66666"
   width="356"
   xml:space="preserve"
   id="svg2"
   version="1.1"><metadata
     id="metadata8"><rdf:RDF><cc:Work
         rdf:about=""><dc:format>image/svg+xml</dc:format><dc:type
           rdf:resource="http://purl.org/dc/dcmitype/StillImage" /></cc:Work></rdf:RDF></metadata><defs
     id="defs6" /><g
     transform="matrix(1.3333333,0,0,-1.3333333,0,354.66667)"
     id="g10"><g
       transform="scale(0.1)"
       id="g12"><path
         id="path14"
         style="fill:#730ff5;fill-opacity:1;fill-rule:evenodd;stroke:none"
         d="m 859.262,1359.26 c -0.434,-3.01 -3.403,-21.84 -8.992,-56.49 -5.54,-34.65 -11.09,-65.89 -16.68,-93.71 -14.141,1.76 -14.141,22.7 0,62.93 1.719,3.01 4.93,21.6 9.648,55.78 4.692,34.26 1.492,66.8 -9.648,97.58 -0.86,4.26 -8.551,10.94 -23.121,19.92 -14.528,0.86 -14.528,9.81 0,26.92 5.191,-3.83 16.722,5.82 34.652,28.86 2.609,-0.39 4.957,18.68 7.07,57.19 0.469,2.93 0.661,19.85 0.661,50.67 0.468,30.78 0.199,57.77 -0.661,80.89 -4.261,9.81 0.469,27.78 14.137,53.87 1.723,-5.55 5.973,-31.21 12.852,-76.99 0.859,-5.16 0.66,-40.66 -0.66,-106.56 -0.86,-65.47 -7.27,-132.42 -19.258,-200.86 m 299.718,1064.72 c -11.95,84.26 -12.42,144.38 -1.28,180.36 11.13,35.89 18.2,53.43 21.17,52.57 -12.85,3.01 -28.44,-5.74 -46.84,-26.32 -18.4,-20.51 -28.67,-32.47 -30.78,-35.9 -34.26,-6.88 -80.23,-21.84 -138.012,-44.92 -58.199,-23.56 -90.468,-36.8 -96.91,-39.81 -37.226,-13.67 -56.058,-19.06 -56.488,-16.05 -31.25,-5.12 -44.102,-10.47 -38.512,-16.02 -31.637,-39.37 -43.828,-66.56 -36.558,-81.52 -12,-50.04 -33.211,-118.95 -63.52,-206.64 -30.391,-87.74 -47.539,-136.29 -51.328,-145.71 -27.852,-94.1 -41.332,-176.87 -40.473,-248.32 0.86,-71.05 2.352,-108.51 4.5,-112.34 -5.16,-28.28 -12,-44.3 -20.551,-48.13 -20.117,-40.27 -26.058,-66.79 -17.968,-79.61 5.98,-40.62 11.558,-81.91 16.718,-123.86 4.653,-42.35 7.262,-65.2 7.653,-68.67 6.449,-53.05 10.937,-82.78 13.519,-89.18 9.801,-31.64 16.68,-53.48 20.551,-65.47 -2.152,-0.43 -6.883,-10.9 -14.141,-31.49 -7.742,-20.5 -4.531,-45.97 9.61,-76.33 17.109,-48.78 24.64,-80.03 22.461,-93.71 -0.43,-35.07 1.91,-51.75 7.07,-50.031 14.957,-29.539 29.098,-61.649 42.379,-96.289 13.672,-35.078 20.941,-54.11 21.801,-57.11 13.238,-33.402 20.969,-46.41 23.121,-39.14 35.039,53.898 58.168,85.582 69.297,94.961 -8.129,-20.981 -15.59,-46.18 -22.457,-75.711 -6.883,-29.961 -10.473,-46.442 -10.942,-49.449 -11.09,-57.77 -17.109,-86.84 -17.968,-87.231 -0.821,-24.84 1.918,-30.859 8.359,-18 25.66,36.789 43.437,58.199 53.277,64.18 59.461,48.32 108.91,99.058 148.242,152.109 39.379,53.43 59.89,82.34 61.61,86.641 14.57,26.09 32.93,61.64 55.19,106.56 21.8,44.45 33.79,69.3 35.94,74.37 21.83,44.53 38.51,87.11 50.04,127.78 11.6,40.62 17.34,62.42 17.34,65.43 20.98,136.09 30.59,290.31 28.91,462.73 -2.19,171.99 -8.13,322.58 -17.97,451.8 -9.42,129.22 -14.81,197.03 -16.06,203.47" /><path
         id="path16"
         style="fill:#730ff5;fill-opacity:1;fill-rule:evenodd;stroke:none"
         d="m 1861.76,1176.37 c 1.25,8.98 -13.09,55.39 -43.05,139.22 -2.15,0.46 -9.8,16.25 -23.09,47.5 -13.71,31.68 -19.64,75.74 -17.96,132.22 1.25,2.15 6.64,17.54 16.05,46.21 9.41,28.68 16.06,57.97 19.88,87.89 0.43,2.15 1.92,16.06 4.5,41.72 2.53,25.67 4.88,49.89 7.07,72.54 12.38,-14.53 21.4,-47.26 26.95,-98.2 -1.29,-3.83 -2.15,-22.66 -2.62,-56.45 -0.39,-34.25 6.45,-61.44 20.59,-81.52 -1.33,-2.97 -3.67,-25.7 -7.07,-68.01 -3.01,-42.81 -0.67,-87.73 7.07,-134.76 4.26,0.86 4.26,-12.23 0,-39.18 -11.13,-4.3 -9.85,-26.29 3.87,-66.14 1.25,-1.68 -2.82,-9.37 -12.19,-23.04 m 263.12,198.94 c 18.4,47.5 23.91,70.82 16.64,69.96 -13.67,49.18 -22.85,76.57 -27.57,82.11 5.54,6.41 2.53,65.28 -8.99,176.49 -11.56,76.17 -20.55,153.83 -26.95,233.01 -6.45,79.1 -9.65,121.95 -9.65,128.35 -5.55,98.36 -16.45,167.07 -32.74,205.98 -16.64,38.52 -26.05,56.91 -28.24,55.2 -26.52,41.91 -38.28,65.27 -35.27,69.96 -20.51,51.75 -35.7,71.01 -45.59,57.73 -29.06,15.47 -61.36,25.94 -96.87,31.49 -35.55,5.58 -55,8.12 -58.4,7.69 -30,25.67 -59.26,44.26 -87.93,55.86 -29.1,11.52 -44.73,17.07 -46.84,16.68 -41.52,75.27 -65.03,105.43 -70.62,90.43 13.71,-47.03 17.3,-96.45 10.9,-148.2 -6.41,-51.8 -10.67,-79.81 -12.85,-84.07 -19.65,-78.32 -41.72,-179.49 -66.06,-303.59 -23.98,-124.06 -37.03,-192.73 -39.18,-205.98 -9.8,-68.9 -19.26,-136.09 -28.2,-201.56 -8.59,-65.04 -13.32,-99.88 -14.14,-104.57 -4.69,-59.49 -1.29,-125.82 10.27,-198.98 11.56,-72.74 18.4,-112.5 20.55,-119.38 42.77,-154.02 70.39,-237.85 82.77,-251.52 50.51,-99.298 103.56,-170.349 159.14,-213.091 56.06,-42.77 86.45,-63.547 91.17,-62.297 29.93,-17.5 61.18,-38.051 93.72,-61.563 32.46,-23.129 50.03,-35.937 52.57,-38.519 29.14,-9.41 45.59,-6.41 49.46,8.98 -0.47,2.11 -1.33,13.91 -2.58,35.32 -1.29,21.36 0.86,40 6.4,55.782 8.13,29.136 9.85,44.328 5.12,45.578 29.1,90.711 48.79,141.211 59.06,151.488 19.69,51.332 32.5,99.652 38.52,145.042 5.59,45.78 7.93,70.15 7.07,73.16 15.78,81.25 26.09,121.72 30.78,121.29 8.99,41.91 10.51,67.19 4.53,75.74" /><path
         id="path18"
         style="fill:#3a351e;fill-opacity:1;fill-rule:evenodd;stroke:none"
         d="m 1379.77,955.551 -82.19,-84.692 -67.97,91.762 c 0,10.738 0.59,100.579 1.87,269.569 1.33,168.98 4.26,354.06 8.99,555.11 4.73,201.1 11.8,355.16 21.21,462.08 0,3.86 2.11,24.17 6.41,60.97 4.68,36.8 12.38,68.71 23.08,95.63 -9.37,4.72 -20.31,34.02 -32.69,87.93 l 33.98,37.85 c 8.13,4.72 30.78,3.86 68.05,-2.54 l 35.94,-59.06 c -7.7,-0.39 -26.1,-22.23 -55.2,-65.43 3.4,-7.74 7.46,-34.65 12.19,-80.9 0.47,-14.96 3.4,-125.31 8.98,-331.13 5.55,-205.79 10.47,-417.58 14.77,-635.4 4.26,-217.73 5.11,-351.64 2.58,-401.749" /><path
         id="path20"
         style="fill:#3c3821;fill-opacity:1;fill-rule:nonzero;stroke:none"
         d="m 277.5,184.77 c 0,-31.372 -8.98,-53.399 -26.879,-66.098 -5.851,-4.063 -14.84,-7.301 -27.031,-9.692 -14.488,0 -25.781,1.29 -33.899,3.911 -8.132,2.578 -15.711,7.109 -22.66,13.589 l -91.4099,76.571 c -2.3008,1.64 -5.8906,1.75 -10.7813,0.308 -4.9179,-1.48 -8.2382,-2.187 -10,-2.187 -11.0507,0 -22.9609,7.699 -35.7812,23.129 C 6.32813,239.691 0,255.469 0,271.641 c 0,15.699 4.60938,29.918 13.9102,42.66 2.8906,4.058 7.539,8.98 13.8984,14.84 5.8203,0 11.7617,0.238 17.8125,0.781 6.1406,0.629 11.8008,3.277 17.0391,7.969 l 104.3708,99.058 c 0,9.262 0.86,15.942 2.66,20 5.188,13.949 15.618,20.942 31.25,20.942 18.508,0 35.938,-11.332 52.18,-33.911 C 267.699,423.672 275,404.801 275,387.422 275,373.441 268.91,363.59 256.719,357.891 252.66,356.09 246.25,354.648 237.5,353.52 l -77.34,-66.098 c 2.809,-3.551 6.559,-8.832 11.25,-15.781 4.68,-6.871 10.192,-11.801 16.559,-14.692 17.383,-19.179 37.691,-28.75 60.941,-28.75 4.57,0 10.469,-4.058 17.649,-12.179 7.269,-8.129 10.941,-18.559 10.941,-31.25 z M 806.25,72.4219 c 0,-16.25 -7.73,-29.6133 -23.129,-40 -15.312,-10.3906 -33.98,-15.6211 -55.93,-15.6211 -20.941,0 -32.269,2.6094 -33.91,7.8086 -4.062,12.8125 -9.332,21.8008 -15.781,27.0312 -8.121,7.5 -38.121,28.4805 -90,62.9684 -51.879,34.571 -80.16,53.911 -84.84,57.973 l 8.75,-78.2812 c 14.449,-16.8789 20.82,-32.582 19.059,-47.0313 -4.059,-24.3789 -22.028,-36.5703 -53.91,-36.5703 -21.481,0 -40.739,5.9414 -57.809,17.8203 -17.109,11.8711 -25.629,26.25 -25.629,43.1211 0,4.0586 2.109,8.9492 6.41,14.6914 4.379,5.8164 8.91,11.9063 13.59,18.277 L 391.25,533.52 c 0,8.121 -2.031,16.789 -6.09,26.089 -4.07,9.371 -8.398,18.942 -12.969,28.75 0,14.45 8.118,25.512 24.368,33.121 11.562,5.2 29.531,8.95 53.91,11.25 7.5,0 15.859,-2.609 25.152,-7.808 9.379,-5.231 14.609,-12.461 15.789,-21.723 51.012,24.891 105.82,37.352 164.371,37.352 17.379,0 34.77,-7.582 52.188,-22.66 17.383,-15 26.09,-29.77 26.09,-44.219 0,-34.293 -8.981,-69.141 -26.868,-104.531 C 678.75,413.52 625.078,343.91 546.25,260.391 l 193.91,-134.84 c 29.57,-14.5 47.961,-24.653 55.149,-30.469 7.269,-5.8632 10.941,-13.4023 10.941,-22.6601 z M 613.121,532.73 c 0,4.571 -1.32,8.75 -3.902,12.5 -2.617,3.829 -5.629,5.79 -9.059,5.79 -11.058,0 -29.34,-11.329 -54.851,-33.911 -10.43,-9.3 -28.118,-26.41 -53.118,-51.41 l -1.722,-135.617 c 32.5,38.199 61.011,77.188 85.621,116.867 24.691,39.77 37.031,68.36 37.031,85.781 z" /><path
         id="path22"
         style="fill:#3c3821;fill-opacity:1;fill-rule:nonzero;stroke:none"
         d="m 1145.66,154.301 c 0,-38.871 -12.34,-73.2502 -37.03,-103.1291 -24.61,-29.8828 -55.74,-44.83987 -93.43,-44.83987 -52.821,0 -96.059,17.72657 -129.688,53.11717 -11.063,11.5703 -22.352,29.2617 -33.91,53.1328 -11.563,7.5 -20.274,13.828 -26.09,19.059 -18.051,15.629 -28.442,30.39 -31.25,44.379 -1.801,9.25 5.468,17.812 21.718,25.621 16.25,7.808 33.04,11.718 50.469,11.718 25.5,0 44.371,-9.839 56.563,-29.527 4.566,-8.133 9.218,-16.25 13.898,-24.383 5.199,-15.109 9.539,-26.09 12.969,-32.969 11.641,-22.73 24.422,-34.0581 38.281,-34.0581 20.94,0 34.26,7.539 40,22.6601 2.89,7.578 4.38,22.969 4.38,46.09 0,38.828 -16.99,68.277 -50.938,88.277 -33.872,20.082 -67.032,40 -99.532,59.692 -35.429,32.5 -53.121,82.379 -53.121,149.691 0,44.059 13.321,86.09 40,126.09 30.192,45.199 66.75,67.808 109.68,67.808 59.141,0 99.731,-26.359 121.721,-79.058 6.95,-17.422 12.23,-44.141 15.78,-80.152 2.27,-5.239 3.75,-9.54 4.38,-12.969 2.81,-10.43 4.22,-19.692 4.22,-27.821 0,-4.058 -0.28,-6.992 -0.78,-8.75 -3.56,-18.55 -7.35,-30.742 -11.41,-36.558 -7.5,-10.434 -20.27,-15.621 -38.28,-15.621 -19.69,0 -36.8,7.5 -51.25,22.5 -14.49,15.078 -21.72,33.121 -21.72,54.058 0,5.821 2.11,12.731 6.41,20.782 4.37,8.129 6.56,13.949 6.56,17.5 0,3.441 -0.59,6.019 -1.72,7.808 -2.31,4.571 -4.34,9.531 -6.09,14.852 -2.93,4.058 -9.61,6.09 -20.001,6.09 -15.121,0 -27.469,-9.18 -37.039,-27.5 -9.488,-18.243 -14.211,-38.672 -14.211,-61.25 0,-37.192 17.961,-68.243 53.903,-93.121 33.628,-22.11 67.538,-44.141 101.718,-66.098 36.56,-33.121 54.84,-77.5 54.84,-133.121 z" /><path
         id="path24"
         style="fill:#3c3821;fill-opacity:1;fill-rule:nonzero;stroke:none"
         d="m 1289.1,109.922 c 0,-3.551 -1.33,-9.801 -3.9,-18.7501 -2.62,-8.9805 -4.81,-16.9531 -6.57,-23.9024 0,-5.2382 -0.15,-10 -0.47,-14.3789 -0.23,-4.3711 -1.21,-10.3086 -2.96,-17.8086 -4.07,-11.0234 -15.94,-17.4218 -35.63,-19.2226 -18.05,0 -31.84,3.6719 -41.41,10.9414 -9.61,7.2578 -14.37,17.2578 -14.37,30 0,6.9492 3.48,17.1094 10.47,30.4687 v 35.6215 c 0,6.449 3.47,11.718 10.47,15.781 6.95,4.058 15.35,6.637 25.15,7.808 7.58,0 15.71,-1.21 24.38,-3.589 23.2,-6.371 34.84,-17.34 34.84,-32.969 z" /><path
         id="path26"
         style="fill:#3c3821;fill-opacity:1;fill-rule:nonzero;stroke:none"
         d="m 1620.23,45.5508 c 0,-23.211 -19.76,-34.8516 -59.21,-34.8516 -13.87,0 -23.4,0.9024 -28.6,2.6602 -9.92,3.4414 -14.84,11.0195 -14.84,22.6601 -0.63,2.2618 0.51,8.6289 3.44,19.0625 0.62,2.8868 2.07,7.8477 4.37,14.8399 -9.92,-16.25 -21.37,-28.75 -34.37,-37.5 -13.05,-8.6328 -28.83,-12.9727 -47.35,-12.9727 -36.05,0 -64.22,18.211 -84.53,54.6914 -20.23,36.5584 -30.31,90.2384 -30.31,161.0894 0.51,12.192 0.78,18.829 0.78,20 0,41.141 11.29,82.27 33.91,123.442 26.75,48.75 58.12,73.129 94.06,73.129 10.39,0 20.51,-3.36 30.31,-10 9.88,-6.68 21.25,-19.61 34.06,-38.75 v 97.5 c 1.14,5.187 -0.31,11.558 -4.37,19.058 -10.43,20.313 -15.63,33.942 -15.63,40.942 0,11.558 5.94,22.379 17.82,32.5 11.87,10.187 25.03,15.308 39.53,15.308 14.45,0 26.64,-2.621 36.56,-7.808 9.88,-5.242 16.87,-14.5 20.94,-27.821 0.5,-2.3 0.78,-6.05 0.78,-11.25 0,-11.679 -1.72,-23.281 -5.16,-34.839 -0.62,-1.801 -1.8,-4.371 -3.44,-7.809 l 0.79,-445.4726 c 2.26,-4.0586 4.06,-7.2696 5.31,-9.5274 3.44,-7.6211 5.15,-13.7109 5.15,-18.2812 z M 1513.2,233.359 c 0,29.063 -4.8,58.481 -14.37,88.282 -9.61,29.879 -19.85,44.839 -30.78,44.839 -14.61,0 -25.08,-16.21 -31.41,-48.589 -4.06,-20.942 -6.09,-48.243 -6.09,-81.871 0,-8.68 0,-14.461 0,-17.348 0,-1.793 0,-4.141 0,-7.031 -0.55,-4.61 -1.1,-11.09 -1.72,-19.532 -0.63,-8.437 -0.94,-14.687 -0.94,-18.75 0,-30.121 3.63,-51.019 10.94,-62.66 7.26,-11.5584 17.03,-17.3396 29.22,-17.3396 10.93,0 21.17,15.0386 30.78,45.1606 9.57,30.191 14.37,61.789 14.37,94.839 z" /><path
         id="path28"
         style="fill:#3c3821;fill-opacity:1;fill-rule:nonzero;stroke:none"
         d="m 1937.7,110.699 c 0,-23.117 -14.38,-45.5779 -43.13,-67.3396 -28.67,-21.7578 -60.94,-32.6602 -96.87,-32.6602 -47,0 -81.8,20 -104.38,60 -19.8,34.7698 -29.69,82.9728 -29.69,144.5308 0,78.829 15.35,140 46.1,183.442 28.43,40.078 65.23,60.16 110.47,60.16 27.89,0 50.82,-8.711 68.75,-26.102 20.31,-19.8 30.46,-48.242 30.46,-85.308 0,-38.363 -13.9,-76.051 -41.71,-113.121 -31.37,-41.801 -72.27,-71.961 -122.66,-90.469 0.51,-12.812 1.95,-22.422 4.37,-28.75 7.5,-19.6914 22.54,-29.5312 45.16,-29.5312 25,0 42.85,12.5703 53.59,37.8082 10.71,25.192 20.71,38.36 30,39.532 9.26,0 18.79,-3.75 28.6,-11.25 13.94,-10.43 20.94,-24.059 20.94,-40.942 z m -92.19,235 c 0,8.133 -2.03,15.039 -6.1,20.781 -4.06,5.821 -10.74,8.75 -20,8.75 -22.61,0 -40,-15.109 -52.18,-45.308 -12.19,-30.121 -18.28,-67.5 -18.28,-112.192 15.07,3.52 33.63,16.879 55.62,40 27.27,29.071 40.94,58.36 40.94,87.969 z" /><path
         id="path30"
         style="fill:#3c3821;fill-opacity:1;fill-rule:nonzero;stroke:none"
         d="m 2318.12,415.23 c 0,-12.179 -4.37,-24.64 -13.12,-37.339 -12.11,-18.551 -19.34,-30.743 -21.72,-36.559 L 2197.19,99.4492 C 2182.7,58.832 2174.57,36.8008 2172.81,33.3594 2160.62,12.4219 2141.48,1.94922 2115.47,1.94922 c -25.55,0 -42.11,5.28125 -49.69,15.78128 -4.06,5.75 -6.09,18.1679 -6.09,37.3515 0,12.1875 -0.86,21.4375 -2.5,27.8086 l -78.44,278.4414 c -1.17,4.059 -8.67,15.078 -22.5,33.117 -6.45,8.133 -9.69,15.633 -9.69,22.5 0,11.641 4.96,20.821 14.85,27.5 9.88,6.641 22.07,10 36.56,10 17.38,0 31.29,-5.539 41.72,-16.558 10.39,-11.051 18.51,-26.411 24.37,-46.09 l 62.66,-227.031 90.47,270.46 c 1.76,4.692 7.69,9.77 17.81,15.321 10.2,5.5 20.51,8.281 30.94,8.281 12.69,0 23.12,-2.031 31.25,-6.102 13.94,-6.992 20.93,-19.492 20.93,-37.5 z" /><path
         id="path32"
         style="fill:#3c3821;fill-opacity:1;fill-rule:nonzero;stroke:none"
         d="m 2662.81,273.52 c 0,-16.25 -6.25,-32.11 -18.75,-47.5 -12.42,-15.321 -24.37,-22.969 -35.94,-22.969 -1.79,0 -5.15,0.82 -10.15,2.5 -4.92,1.75 -8.52,1.48 -10.78,-0.781 l -91.41,-76.571 c -4.61,-4.058 -8.67,-6.988 -12.19,-8.75 -11.56,-5.859 -26.36,-8.75 -44.37,-8.75 -6.88,0.633 -12.34,1.801 -16.41,3.602 -25,10.39 -37.5,34.449 -37.5,72.179 0,15.629 5.51,28.051 16.57,37.352 5.19,4.059 9.25,6.09 12.18,6.09 23.21,0 43.52,9.566 60.94,28.75 5.7,2.887 10.62,7.109 14.69,12.66 4.06,5.508 8.43,11.438 13.12,17.809 l -77.5,66.089 c -8.12,0.629 -14.22,1.758 -18.28,3.442 -12.73,5.816 -19.06,15.976 -19.06,30.469 0,17.379 6.95,35.98 20.94,55.781 16.25,23.129 33.9,34.687 52.97,34.687 15.07,0 25.23,-6.679 30.46,-20 1.76,-4.058 2.89,-11.019 3.44,-20.777 l 104.53,-99.223 c 4.07,-4.058 9.26,-6.41 15.63,-7.027 6.33,-0.551 12.69,-1.102 19.06,-1.723 6.45,-5.238 11.09,-9.839 13.91,-13.91 9.25,-12.73 13.9,-27.179 13.9,-43.429 z" /></g></g></svg>