<?xml version="1.0" encoding="UTF-8" standalone="no"?>
<svg
   xmlns:dc="http://purl.org/dc/elements/1.1/"
   xmlns:cc="http://creativecommons.org/ns#"
   xmlns:rdf="http://www.w3.org/1999/02/22-rdf-syntax-ns#"
   xmlns:svg="http://www.w3.org/2000/svg"
   xmlns="http://www.w3.org/2000/svg"
   viewBox="0 0 493.33334 110.66667"
   height="110.66667"
   width="493.33334"
   xml:space="preserve"
   id="svg2"
   version="1.1"><metadata
     id="metadata8"><rdf:RDF><cc:Work
         rdf:about=""><dc:format>image/svg+xml</dc:format><dc:type
           rdf:resource="http://purl.org/dc/dcmitype/StillImage" /></cc:Work></rdf:RDF></metadata><defs
     id="defs6" /><g
     transform="matrix(1.3333333,0,0,-1.3333333,0,110.66667)"
     id="g10"><g
       transform="scale(0.1)"
       id="g12"><path
         id="path14"
         style="fill:#730ff5;fill-opacity:1;fill-rule:evenodd;stroke:none"
         d="m 979.141,361.172 c 0,-0.121 -0.121,-0.863 -0.352,-2.152 -0.199,-1.321 -0.391,-2.5 -0.629,-3.551 -0.539,0.043 -0.539,0.859 0,2.383 0.078,0.117 0.199,0.82 0.391,2.109 0.16,1.289 0.039,2.539 -0.391,3.711 -0.039,0.156 -0.308,0.387 -0.859,0.738 -0.539,0.039 -0.539,0.391 0,1.02 0.199,-0.121 0.629,0.23 1.289,1.09 0.121,0 0.199,0.71 0.281,2.191 0.039,0.117 0.039,0.738 0.039,1.91 0,1.18 0,2.188 -0.039,3.09 -0.16,0.348 0.039,1.059 0.539,2.027 0.078,-0.226 0.238,-1.168 0.469,-2.929 0.043,-0.188 0.043,-1.52 0,-4.02 -0.039,-2.5 -0.27,-5.039 -0.738,-7.617 m 11.371,40.348 c -0.473,3.21 -0.473,5.511 -0.043,6.878 0.429,1.332 0.703,1.993 0.781,1.993 -0.469,0.121 -1.051,-0.231 -1.762,-1.012 -0.699,-0.789 -1.09,-1.258 -1.168,-1.367 -1.289,-0.282 -3.05,-0.821 -5.23,-1.684 -2.192,-0.898 -3.442,-1.406 -3.68,-1.527 -1.398,-0.5 -2.109,-0.742 -2.14,-0.621 -1.18,-0.2 -1.68,-0.391 -1.45,-0.59 -1.211,-1.481 -1.679,-2.539 -1.41,-3.078 -0.43,-1.922 -1.25,-4.532 -2.379,-7.852 -1.172,-3.32 -1.832,-5.16 -1.953,-5.551 -1.058,-3.558 -1.558,-6.679 -1.558,-9.41 0.031,-2.699 0.109,-4.109 0.191,-4.258 -0.191,-1.062 -0.473,-1.679 -0.781,-1.8 -0.782,-1.563 -1.02,-2.539 -0.7,-3.051 0.231,-1.52 0.469,-3.078 0.661,-4.68 0.16,-1.609 0.269,-2.461 0.269,-2.621 0.238,-1.988 0.43,-3.129 0.512,-3.359 0.387,-1.211 0.629,-2.032 0.777,-2.5 -0.07,0 -0.269,-0.391 -0.539,-1.168 -0.281,-0.782 -0.16,-1.762 0.391,-2.934 0.621,-1.84 0.929,-3.008 0.859,-3.558 -0.039,-1.321 0.039,-1.95 0.231,-1.872 0.589,-1.128 1.129,-2.347 1.64,-3.668 0.508,-1.332 0.778,-2.031 0.821,-2.152 0.507,-1.25 0.777,-1.758 0.859,-1.488 1.328,2.031 2.23,3.25 2.617,3.601 -0.277,-0.781 -0.59,-1.761 -0.816,-2.851 -0.282,-1.141 -0.434,-1.762 -0.434,-1.879 -0.43,-2.191 -0.668,-3.32 -0.668,-3.32 -0.031,-0.942 0.039,-1.172 0.32,-0.7 0.969,1.399 1.641,2.219 1.989,2.457 2.261,1.832 4.14,3.75 5.621,5.743 1.531,2.031 2.269,3.129 2.351,3.32 0.539,0.98 1.25,2.309 2.11,4.019 0.82,1.68 1.289,2.622 1.359,2.821 0.82,1.719 1.449,3.32 1.879,4.84 0.43,1.558 0.66,2.379 0.66,2.5 0.781,5.16 1.18,11.019 1.102,17.539 -0.082,6.519 -0.321,12.23 -0.672,17.148 -0.348,4.883 -0.578,7.461 -0.617,7.692" /><path
         id="path16"
         style="fill:#730ff5;fill-opacity:1;fill-rule:evenodd;stroke:none"
         d="m 1017.15,354.219 c 0.08,0.351 -0.47,2.109 -1.6,5.269 -0.08,0.043 -0.39,0.633 -0.9,1.801 -0.51,1.211 -0.74,2.891 -0.67,5.039 0.04,0.082 0.24,0.66 0.59,1.762 0.39,1.051 0.63,2.18 0.78,3.32 0,0.07 0.08,0.621 0.16,1.559 0.11,0.98 0.19,1.91 0.27,2.769 0.47,-0.539 0.82,-1.789 1.02,-3.707 -0.04,-0.152 -0.08,-0.859 -0.08,-2.152 -0.04,-1.328 0.23,-2.34 0.78,-3.078 -0.08,-0.121 -0.16,-0.981 -0.27,-2.582 -0.12,-1.641 -0.04,-3.36 0.27,-5.117 0.16,0 0.16,-0.473 0,-1.481 -0.43,-0.199 -0.39,-1.019 0.12,-2.543 0.04,-0.039 -0.08,-0.348 -0.47,-0.859 m 10,7.543 c 0.7,1.789 0.9,2.687 0.62,2.648 -0.5,1.879 -0.86,2.891 -1.05,3.129 0.23,0.231 0.12,2.461 -0.31,6.68 -0.47,2.89 -0.79,5.859 -1.06,8.832 -0.23,3 -0.35,4.648 -0.35,4.879 -0.2,3.75 -0.62,6.332 -1.25,7.808 -0.63,1.453 -0.98,2.153 -1.05,2.114 -1.02,1.558 -1.45,2.457 -1.33,2.66 -0.78,1.949 -1.37,2.687 -1.76,2.187 -1.09,0.582 -2.31,0.973 -3.67,1.172 -1.33,0.231 -2.07,0.309 -2.19,0.309 -1.17,0.98 -2.27,1.679 -3.36,2.109 -1.09,0.43 -1.68,0.66 -1.76,0.621 -1.6,2.86 -2.46,4.031 -2.69,3.442 0.51,-1.801 0.66,-3.672 0.43,-5.622 -0.24,-1.96 -0.43,-3.011 -0.51,-3.21 -0.74,-2.969 -1.56,-6.79 -2.5,-11.481 -0.9,-4.73 -1.41,-7.34 -1.48,-7.809 -0.36,-2.621 -0.75,-5.16 -1.06,-7.66 -0.35,-2.461 -0.51,-3.789 -0.55,-3.98 -0.19,-2.231 -0.04,-4.77 0.39,-7.539 0.43,-2.742 0.71,-4.262 0.79,-4.531 1.6,-5.821 2.65,-9.032 3.12,-9.54 1.91,-3.75 3.95,-6.441 6.05,-8.082 2.11,-1.597 3.29,-2.418 3.44,-2.347 1.14,-0.66 2.35,-1.442 3.56,-2.34 1.25,-0.902 1.91,-1.371 1.99,-1.441 1.13,-0.391 1.76,-0.282 1.87,0.308 0,0.082 -0.03,0.543 -0.07,1.371 -0.04,0.781 0.04,1.481 0.23,2.102 0.31,1.097 0.39,1.679 0.2,1.719 1.09,3.441 1.83,5.351 2.22,5.75 0.74,1.949 1.25,3.781 1.49,5.5 0.19,1.718 0.27,2.66 0.27,2.781 0.59,3.078 0.98,4.609 1.17,4.609 0.31,1.559 0.39,2.539 0.16,2.852" /><path
         id="path18"
         style="fill:#3a351e;fill-opacity:1;fill-rule:evenodd;stroke:none"
         d="m 998.871,345.859 -3.09,-3.238 -2.582,3.469 c 0,0.43 0,3.832 0.082,10.238 0.039,6.402 0.16,13.442 0.309,21.051 0.199,7.621 0.469,13.48 0.82,17.543 0,0.156 0.078,0.898 0.238,2.308 0.192,1.399 0.473,2.61 0.864,3.629 -0.352,0.192 -0.742,1.289 -1.211,3.321 l 1.289,1.441 c 0.308,0.199 1.172,0.16 2.57,-0.07 l 1.371,-2.27 c -0.312,0 -1.011,-0.82 -2.109,-2.461 0.117,-0.308 0.277,-1.332 0.469,-3.09 0,-0.539 0.121,-4.761 0.347,-12.531 0.203,-7.82 0.391,-15.859 0.551,-24.109 0.16,-8.281 0.191,-13.36 0.082,-15.231" /><path
         id="path20"
         style="fill:#3c3821;fill-opacity:1;fill-rule:nonzero;stroke:none"
         d="m 239.219,232.578 c 0,-26.988 -7.77,-46.019 -23.278,-57.027 -5,-3.442 -12.742,-6.172 -23.132,-8.129 -12.5,0 -22.297,1.098 -29.368,3.277 -6.992,2.27 -13.441,6.18 -19.382,11.723 l -78.7504,65.937 c -2.1094,1.442 -5.2695,1.563 -9.5273,0.313 -4.1797,-1.25 -7.0313,-1.871 -8.5899,-1.871 -9.4922,0 -19.7695,6.597 -30.7812,19.84 C 5.46875,279.961 0,293.59 0,307.578 c 0,13.512 3.98047,25.781 12.0313,36.723 2.5,3.508 6.4882,7.808 12.0273,12.808 5,0 10.082,0.231 15.3203,0.782 5.1914,0.507 10.0703,2.73 14.6797,6.718 l 90.0004,85.469 c 0,8.012 0.711,13.793 2.191,17.344 4.449,11.957 13.48,17.969 27.031,17.969 15.938,0 30.938,-9.77 45,-29.219 12.5,-17.5 18.75,-33.75 18.75,-48.75 0,-12.113 -5.269,-20.621 -15.781,-25.621 -3.551,-1.492 -9.059,-2.742 -16.559,-3.75 l -66.722,-56.879 c 2.5,-3.051 5.703,-7.582 9.691,-13.594 4.059,-5.937 8.82,-10.156 14.371,-12.656 15,-16.563 32.5,-24.844 52.5,-24.844 3.949,0 9.059,-3.519 15.309,-10.469 6.25,-6.988 9.379,-16.019 9.379,-27.031 z" /><path
         id="path22"
         style="fill:#3c3821;fill-opacity:1;fill-rule:nonzero;stroke:none"
         d="m 1729.45,603.828 c 0,-9.488 -4.02,-21.019 -12.03,-34.527 -1.05,-2 -3.28,-4.961 -6.72,-8.91 L 1610.23,221.328 c 2.5,-6.488 3.75,-16.488 3.75,-30 0,-10.937 -0.62,-21.328 -1.87,-31.098 -1.25,-9.8 -2.66,-18.671 -4.22,-26.558 -2.5,-5 -4.77,-8.75 -6.72,-11.25 -14.49,-17.5 -35.74,-26.2501 -63.75,-26.2501 -21.05,0 -39.61,5.8161 -55.62,17.5001 -15.94,11.758 -23.91,27.187 -23.91,46.25 0,7.5 1.25,17.066 3.75,28.75 2.5,11.758 3.75,18.906 3.75,21.406 0,6.953 -1.72,13.203 -5.16,18.75 l -55.62,198.75 -67.5,-233.906 c 3.51,-7.5 6.01,-13.551 7.5,-18.121 5.51,-15 8.28,-26.492 8.28,-34.379 0,-22.5 -5.27,-41.2501 -15.78,-56.2501 -11.99,-17.0703 -29.49,-25.6211 -52.5,-25.6211 -25,0 -41.99,12.5 -50.94,37.5 -2.5,8.0002 -4.49,20.5002 -5.94,37.5002 l -94.53,408.121 c -3.04,5.387 -5.27,9.609 -6.72,12.656 -4.6,10 -6.87,18.281 -6.87,24.844 0,9.457 5.7,18.437 17.19,26.879 11.56,8.508 24.1,12.808 37.65,12.808 21.45,0 36.72,-5.738 45.78,-17.187 6.96,-9.063 10.47,-20.582 10.47,-34.531 0,-4.493 -0.27,-8.512 -0.78,-12.032 -0.54,-3.558 -1.25,-6.8 -2.19,-9.687 l 46.41,-252.813 75.78,274.532 c -1.05,2.5 -1.56,4.218 -1.56,5.16 -2.5,9.058 -3.75,15.82 -3.75,20.308 1.56,11.95 7.97,20.551 19.22,25.782 11.25,5.308 24.37,7.968 39.37,7.968 14.46,0 27.19,-3.668 38.13,-10.937 11.01,-7.192 18.05,-17.582 21.09,-31.094 0.51,-1.988 0.78,-4.957 0.78,-8.906 0,-5 -0.54,-9.801 -1.56,-14.371 -0.94,-4.5 -1.95,-8.711 -2.97,-12.66 l 74.22,-255.782 79.53,268.442 c 0,2.5 0,4.527 0,6.09 -0.54,2.5 -0.78,5.23 -0.78,8.281 0,17.5 3.75,31.949 11.25,43.437 11.02,16.95 30.04,25.469 57.03,25.469 13.01,0 24.53,-3.906 34.53,-11.719 10,-7.738 15,-17.578 15,-29.531 z" /><path
         id="path24"
         style="fill:#3c3821;fill-opacity:1;fill-rule:nonzero;stroke:none"
         d="m 2006.33,573.828 c 0,-7.5 -3.52,-14.137 -10.47,-19.848 -6.99,-5.742 -17.97,-8.589 -32.97,-8.589 -3.98,0 -8.87,0 -14.69,0 -5.74,0 -9.61,0.468 -11.56,1.41 -5,0 -16.87,-3.75 -35.62,-11.25 -18.75,-7.5 -34.14,-15.473 -46.1,-23.91 0,-14.493 -0.43,-31.25 -1.25,-50.313 -0.74,-18.988 -1.33,-39.687 -1.72,-62.187 0,-17.5 0.98,-32.032 2.97,-43.59 5.94,1.558 12.19,3.32 18.75,5.308 8.44,8.942 18.17,13.442 29.22,13.442 9.45,0 22.81,-5.551 40,-16.571 17.27,-10.929 25.94,-21.402 25.94,-31.402 0,-16.988 -3.52,-28.519 -10.47,-34.527 -6.99,-5.942 -16.48,-8.91 -28.44,-8.91 l -31.56,1.41 c -5,0 -12.77,-2.5 -23.28,-7.5 -5,-2.5 -11.72,-6.02 -20.16,-10.473 0,-5.937 -0.15,-12.027 -0.47,-18.277 -0.23,-6.25 -0.31,-12.66 -0.31,-19.223 0,-16.988 1.48,-29.769 4.53,-38.277 8.44,2.07 17.38,4.57 26.88,7.5 9.57,3 16.09,5.777 19.53,8.277 2.5,3.012 4.76,5.231 6.87,6.723 6.96,5 14.22,7.5 21.72,7.5 10.94,0 23.28,-6.371 37.03,-19.071 13.75,-12.73 20.63,-26.359 20.63,-40.929 0,-8.992 -1.72,-15.711 -5.16,-20.16 -5.55,-6.993 -15.27,-10.469 -29.22,-10.469 -20.54,0 -41.33,-6.051 -62.34,-18.121 -20.94,-12.0002 -41.68,-24.2229 -62.19,-36.7229 -16.56,2.5 -30.58,8.5508 -42.03,18.1211 -11.48,9.4608 -21.72,24.4218 -30.78,44.8518 -0.94,2.07 -0.59,5.187 1.09,9.371 1.76,4.258 3.64,8.437 5.63,12.5 0,37.5 -0.12,81.25 -0.31,131.25 -0.24,50 -0.47,99.726 -0.79,149.219 -0.23,49.449 -0.31,92.699 -0.31,129.687 -3.55,5.512 -5.31,10.043 -5.31,13.594 0,7.887 4.73,14.098 14.22,18.598 9.57,4.57 19.84,7.339 30.78,8.281 6.95,0 18.2,-4.223 33.75,-12.66 18.01,5.507 42.54,13.75 73.59,24.687 23.44,8.512 38.44,12.813 45,12.813 10,0 20,-4.77 30,-14.219 12.89,-12.113 19.38,-27.891 19.38,-47.344 z" /><path
         id="path26"
         style="fill:#3c3821;fill-opacity:1;fill-rule:nonzero;stroke:none"
         d="m 2322.93,328.672 c 0,-29.613 -13.52,-62.891 -40.47,-99.844 -16.48,-22.5 -46.72,-56.25 -90.78,-101.25 -8.05,-13.047 -15.78,-26.019 -23.28,-38.9061 -9.49,-13.0117 -20.74,-19.5313 -33.75,-19.5313 -15,0 -32.74,7.2696 -53.13,21.7188 -23.04,16.4416 -34.53,33.1996 -34.53,50.3126 0,5.387 0.71,9.379 2.19,11.879 1.56,2.5 5.55,7.027 12.03,13.59 -0.55,6.449 -2.19,36.558 -5,90.308 -2.73,53.75 -5.78,118.36 -9.22,193.91 -1.56,30.512 -3.08,61.25 -4.53,92.192 -3.05,5.5 -5.27,10.039 -6.72,13.59 -4.49,10.937 -6.72,20.39 -6.72,28.437 0,6.012 0.98,10.781 2.97,14.223 5.94,10.5 15.67,17.258 29.22,20.308 11.45,3.012 26.45,-2.269 45,-15.781 3.01,-1.988 7.03,-5.469 12.03,-10.469 18.44,5 32.66,8.75 42.66,11.25 32.07,8.012 52.58,12.032 61.56,12.032 23.52,0 41.02,-6.52 52.5,-19.532 11.45,-13.05 17.19,-29.808 17.19,-50.308 0,-27.93 -12.27,-60.43 -36.72,-97.5 -8.05,-12 -20.55,-27.742 -37.5,-47.192 23.52,-5 41.02,-9.769 52.5,-14.218 35,-14.493 52.5,-34.219 52.5,-59.219 z m -126.72,195.629 c 0,6.558 -1.99,9.84 -5.94,9.84 -10,0 -24.02,-4.532 -42.03,-13.59 -6.05,-2.93 -14.33,-7.66 -24.84,-14.223 l 3.12,-81.719 c 15.39,15 26.88,26.95 34.38,35.942 23.51,27.5 35.31,48.75 35.31,63.75 z m 34.53,-215.16 c 0,11.949 -8.04,17.968 -24.06,17.968 -10.55,0 -25.55,-4.769 -45,-14.218 -6.48,-3.051 -15.47,-8.051 -27.03,-15 l 2.34,-99.063 c 20.94,16.563 36.41,29.844 46.41,39.844 31.56,30.387 47.34,53.906 47.34,70.469 z" /><path
         id="path28"
         style="fill:#3c3821;fill-opacity:1;fill-rule:nonzero;stroke:none"
         d="m 2797.19,112.578 c 0,-19.9999 -17.03,-29.9999 -51.1,-29.9999 -11.99,0 -20.23,0.7813 -24.68,2.3438 -8.56,2.9297 -12.82,9.3789 -12.82,19.3791 -0.54,2.07 0.47,7.578 2.97,16.558 0.51,2.5 1.76,6.762 3.75,12.813 -8.43,-14.063 -18.28,-24.844 -29.53,-32.344 -11.25,-7.4999 -24.92,-11.2499 -40.94,-11.2499 -30.93,0 -55.15,15.7029 -72.65,47.1919 -17.5,31.558 -26.25,77.851 -26.25,138.902 0.39,10.387 0.62,16.129 0.62,17.187 0,35.512 9.77,71.02 29.38,106.563 22.89,41.957 49.88,62.969 80.94,62.969 8.94,0 17.69,-2.93 26.24,-8.75 8.52,-5.743 18.29,-16.84 29.22,-33.282 v 84.063 c 1.02,4.457 -0.23,9.918 -3.75,16.406 -8.98,17.5 -13.43,29.262 -13.43,35.313 0,10 5.07,19.379 15.31,28.129 10.31,8.75 21.72,13.121 34.22,13.121 12.5,0 22.97,-2.301 31.4,-6.871 8.52,-4.5 14.53,-12.469 17.97,-23.911 0.51,-1.988 0.78,-5.23 0.78,-9.687 0,-10 -1.52,-20 -4.53,-30 -0.43,-1.563 -1.4,-3.871 -2.97,-6.871 l 0.78,-383.91 c 1.96,-3.551 3.48,-6.332 4.54,-8.282 3,-6.48 4.53,-11.718 4.53,-15.781 z m -92.35,162.031 c 0,25 -4.14,50.352 -12.34,76.09 -8.24,25.711 -17.11,38.602 -26.56,38.602 -12.5,0 -21.53,-13.992 -27.03,-41.879 -3.56,-18.043 -5.32,-41.563 -5.32,-70.621 0,-7.5 0,-12.5 0,-15 0,-1.492 0,-3.442 0,-5.942 -0.54,-3.98 -1.05,-9.609 -1.56,-16.879 -0.43,-7.3 -0.62,-12.652 -0.62,-16.089 0,-26.051 3.12,-44.063 9.37,-54.063 6.25,-10 14.61,-15 25.16,-15 9.45,0 18.32,12.973 26.56,38.902 8.2,26.02 12.34,53.321 12.34,81.879 z" /><path
         id="path30"
         style="fill:#3c3821;fill-opacity:1;fill-rule:nonzero;stroke:none"
         d="m 3070.82,168.828 c 0,-20 -12.42,-39.379 -37.19,-58.129 -24.68,-18.7498 -52.58,-28.1209 -83.59,-28.1209 -40.55,0 -70.55,17.2227 -90,51.7229 -16.99,30 -25.47,71.48 -25.47,124.527 0,68.012 13.2,120.781 39.69,158.281 24.57,34.45 56.33,51.719 95.31,51.719 23.95,0 43.67,-7.5 59.22,-22.5 17.5,-16.988 26.25,-41.488 26.25,-73.437 0,-33.051 -11.99,-65.551 -35.94,-97.5 -26.99,-36.051 -62.26,-62.032 -105.78,-77.969 0.51,-11.051 1.76,-19.332 3.75,-24.844 6.45,-16.988 19.45,-25.469 39.06,-25.469 21.45,0 36.8,10.86 46.1,32.661 9.25,21.75 17.85,33.121 25.78,34.058 8.01,0 16.29,-3.238 24.84,-9.687 11.95,-9.063 17.97,-20.86 17.97,-35.313 z m -79.53,202.5 c 0,6.953 -1.8,12.973 -5.31,17.973 -3.44,5 -9.18,7.5 -17.19,7.5 -19.49,0 -34.49,-13.051 -45,-39.071 -10.55,-25.929 -15.78,-58.121 -15.78,-96.558 13.01,2.887 29.06,14.379 48.12,34.379 23.44,25 35.16,50.23 35.16,75.777 z" /><path
         id="path32"
         style="fill:#3c3821;fill-opacity:1;fill-rule:nonzero;stroke:none"
         d="m 3398.83,431.328 c 0,-10.547 -3.75,-21.25 -11.25,-32.187 -10.55,-16.051 -16.8,-26.563 -18.75,-31.563 l -74.38,-208.437 c -12.5,-35 -19.49,-54.02 -20.93,-57.032 -10.55,-18.0074 -27.04,-27.0309 -49.54,-27.0309 -21.99,0 -36.21,4.5313 -42.65,13.5938 -3.56,5 -5.31,15.7071 -5.31,32.1871 0,10.512 -0.75,18.52 -2.19,24.063 l -67.5,240 c -1.06,3.437 -7.58,12.887 -19.53,28.437 -5.51,6.95 -8.28,13.481 -8.28,19.532 0,10 4.21,17.847 12.65,23.589 8.52,5.711 19.06,8.598 31.56,8.598 15,0 26.96,-4.769 35.94,-14.219 9.06,-9.488 16.1,-22.738 21.1,-39.687 l 54.06,-195.781 77.97,233.281 c 1.44,3.949 6.56,8.277 15.31,12.969 8.75,4.769 17.66,7.187 26.72,7.187 10.94,0 19.88,-1.719 26.87,-5.156 12.07,-6.051 18.13,-16.832 18.13,-32.344 z" /><path
         id="path34"
         style="fill:#3c3821;fill-opacity:1;fill-rule:nonzero;stroke:none"
         d="m 3695.94,309.141 c 0,-14.063 -5.39,-27.731 -16.1,-40.942 -10.74,-13.238 -21.09,-19.84 -31.09,-19.84 -1.56,0 -4.49,0.7 -8.75,2.192 -4.18,1.558 -7.27,1.328 -9.22,-0.629 l -78.75,-66.094 c -4.06,-3.437 -7.62,-5.937 -10.62,-7.5 -10,-5 -22.74,-7.5 -38.13,-7.5 -6.05,0.512 -10.86,1.481 -14.37,2.973 -21.49,9.058 -32.19,29.84 -32.19,62.34 0,13.437 4.73,24.14 14.22,32.187 4.45,3.512 7.97,5.313 10.47,5.313 20,0 37.5,8.199 52.5,24.687 5,2.5 9.25,6.094 12.81,10.781 3.51,4.77 7.26,9.922 11.25,15.469 l -66.72,57.031 c -6.99,0.512 -12.27,1.481 -15.78,2.969 -11.06,5 -16.56,13.75 -16.56,26.25 0,15 6.01,30.973 18.12,47.973 13.95,20 29.14,30 45.63,30 13,0 21.75,-5.75 26.25,-17.192 1.56,-3.558 2.57,-9.531 3.12,-17.968 l 90,-85.469 c 3.44,-3.551 7.89,-5.582 13.44,-6.094 5.51,-0.547 11.01,-1.019 16.56,-1.406 5.39,-4.613 9.38,-8.594 11.88,-12.031 8,-11.051 12.03,-23.551 12.03,-37.5 z" /><path
         id="path36"
         style="fill:#7510f7;fill-opacity:1;fill-rule:nonzero;stroke:none"
         d="M 534.34,31.1289 C 474.102,222.461 442.621,331.211 439.801,357.379 l -13.75,-4.68 C 406.25,221.52 391.719,122.109 382.461,54.4102 L 206.988,3.62891 C 270.738,362.578 308.59,617.07 320.59,767.07 c 81.558,28.008 173.43,43.481 275.621,46.41 76.559,2.18 122.699,-23.128 138.437,-75.941 4.762,-16.25 7.5,-36.488 8.122,-60.629 0.71,-24.058 -3.508,-50.269 -12.649,-78.59 -9.18,-28.242 -21.961,-55.39 -38.281,-81.41 -33.988,-52.808 -76.488,-93.82 -127.5,-122.961 29.371,-58.871 55.621,-114.379 78.75,-166.57 23.199,-52.18 42.808,-96.168 58.75,-131.8673 z m -7.352,628.9101 -46.867,-2.34 -30.16,-174.219 c 28.32,3.508 63.629,22.571 105.937,57.18 43.75,35.199 65.313,63.828 64.692,85.942 -0.629,20.507 -20.469,31.636 -59.539,33.437 -11.36,0.391 -22.731,0.391 -34.063,0 z m 532.502,-73.988 c 3.13,14.148 4.42,29.07 3.91,44.687 -0.43,15.633 -4.69,28.051 -12.81,37.352 -8.05,9.371 -16.49,13.898 -25.32,13.59 -8.86,-0.231 -17.5,-2.578 -25.93,-7.032 -8.442,-4.488 -16.801,-10.429 -25,-17.808 -19.379,-16.879 -28.828,-34.692 -28.289,-53.442 0.508,-18.75 5.859,-33.867 16.097,-45.308 10.313,-11.488 22.852,-21.961 37.653,-31.41 14.889,-9.489 30.979,-19.34 48.289,-29.532 17.38,-10.117 33.75,-23.089 49.06,-38.91 35.19,-38.859 53.75,-91.25 55.62,-157.187 2.27,-79.371 -24.96,-145.852 -81.72,-199.371 C 1017.07,50.4297 947.93,23.5898 863.551,21.2109 801.129,19.4102 743.121,50.4688 689.488,114.34 l 76.41,160.621 c 10.512,-19.609 30.192,-37.109 59.063,-52.5 28.75,-16.172 50.199,-24.063 64.379,-23.75 14.14,0.391 25.969,2.187 35.461,5.309 9.578,3.21 18.168,7.699 25.789,13.441 17.379,13.32 25.82,28.988 25.308,47.027 -0.546,18.133 -6.679,34.422 -18.437,48.91 -11.801,14.571 -26.211,28.364 -43.281,41.403 -17.11,13.008 -35.59,26.179 -55.469,39.539 -19.801,13.32 -38.09,27.539 -54.84,42.648 -40.75,34.383 -61.68,71.024 -62.82,110 -1.172,38.953 8.949,75.082 30.32,108.442 21.438,33.32 48.668,62.34 81.719,87.031 33,24.687 69.371,44.527 109.058,59.527 39.692,15 73.362,22.852 101.092,23.602 27.7,0.82 50.31,-1.02 67.81,-5.469 17.58,-4.5 32.86,-11.531 45.79,-21.101 28.43,-21.872 43.28,-54.801 44.53,-98.75 0.19,-10.739 -0.43,-21.09 -1.88,-31.09 -1.48,-9.918 -2.77,-20.942 -3.9,-33.129 z" /><path
         id="path38"
         style="fill:#7510f7;fill-opacity:1;fill-rule:nonzero;stroke:none"
         d="m 2397.62,108.75 c -10.86,0 -19.69,1.719 -26.57,5.16 -6.87,3.43 -12.57,7.77 -17.03,12.969 -9.25,11.75 -13.9,25.312 -13.9,40.621 0,26.25 11.48,44.77 34.53,55.621 7.69,3.641 16.76,5.469 27.19,5.469 24.25,0 42.34,-5.699 54.21,-17.031 11.88,-11.25 17.82,-24.137 17.82,-38.59 0,-17.418 -6.64,-32.149 -19.85,-44.219 -15,-13.32 -33.82,-20 -56.4,-20 z" /></g></g></svg>