<?xml version="1.0" encoding="UTF-8" standalone="no"?>
<svg
   xmlns:dc="http://purl.org/dc/elements/1.1/"
   xmlns:cc="http://creativecommons.org/ns#"
   xmlns:rdf="http://www.w3.org/1999/02/22-rdf-syntax-ns#"
   xmlns:svg="http://www.w3.org/2000/svg"
   xmlns="http://www.w3.org/2000/svg"
   viewBox="0 0 482.66666 272"
   height="272"
   width="482.66666"
   xml:space="preserve"
   id="svg2"
   version="1.1"><metadata
     id="metadata8"><rdf:RDF><cc:Work
         rdf:about=""><dc:format>image/svg+xml</dc:format><dc:type
           rdf:resource="http://purl.org/dc/dcmitype/StillImage" /></cc:Work></rdf:RDF></metadata><defs
     id="defs6" /><g
     transform="matrix(1.3333333,0,0,-1.3333333,0,272)"
     id="g10"><g
       transform="scale(0.1)"
       id="g12"><path
         id="path14"
         style="fill:#730ff5;fill-opacity:1;fill-rule:evenodd;stroke:none"
         d="m 1237.11,739.262 c -0.43,-3.012 -3.4,-21.84 -8.99,-56.492 -5.54,-34.649 -11.13,-65.891 -16.67,-93.711 -14.15,1.761 -14.15,22.703 0,62.929 1.71,3.012 4.92,21.602 9.6,55.782 4.73,34.261 1.53,66.8 -9.6,97.582 -0.86,4.257 -8.56,10.937 -23.13,19.918 -14.53,0.859 -14.53,9.812 0,26.921 5.16,-3.832 16.72,5.821 34.65,28.86 2.62,-0.391 4.96,18.679 7.07,57.187 0.47,2.934 0.66,19.852 0.66,50.672 0.43,30.78 0.2,57.77 -0.66,80.89 -4.26,9.81 0.47,27.78 14.14,53.87 1.72,-5.55 5.98,-31.21 12.85,-76.99 0.86,-5.16 0.63,-40.66 -0.66,-106.559 -0.86,-65.473 -7.27,-132.422 -19.26,-200.859 m 299.73,1064.718 c -12,84.26 -12.43,144.38 -1.29,180.36 11.13,35.89 18.2,53.43 21.17,52.57 -12.85,3.01 -28.44,-5.74 -46.84,-26.32 -18.4,-20.51 -28.67,-32.47 -30.78,-35.9 -34.26,-6.88 -80.23,-21.84 -138.01,-44.92 -58.2,-23.56 -90.5,-36.8 -96.91,-39.81 -37.27,-13.67 -56.06,-19.06 -56.48,-16.05 -31.25,-5.12 -44.11,-10.47 -38.52,-16.02 -31.64,-39.37 -43.83,-66.56 -36.56,-81.52 -12,-50.04 -33.21,-118.95 -63.52,-206.64 -30.39,-87.74 -47.54,-136.29 -51.37,-145.71 -27.808,-94.1 -41.281,-176.87 -40.429,-248.32 0.82,-71.05 2.347,-108.51 4.5,-112.34 -5.16,-28.28 -12,-44.3 -20.551,-48.13 C 921.129,974.961 915.16,948.441 923.281,935.621 929.262,895 934.84,853.711 940,811.762 c 4.648,-42.352 7.27,-65.203 7.66,-68.672 6.399,-53.051 10.93,-82.781 13.469,-89.18 9.851,-31.64 16.723,-53.48 20.59,-65.469 -2.149,-0.429 -6.879,-10.902 -14.141,-31.492 -7.738,-20.5 -4.527,-45.969 9.613,-76.328 17.11,-48.781 24.609,-80.031 22.457,-93.711 -0.429,-35.07 1.912,-51.75 7.072,-50.031 14.96,-29.539 29.1,-61.649 42.38,-96.289 13.67,-35.078 20.94,-54.11 21.8,-57.11 13.24,-33.402 20.98,-46.41 23.12,-39.14 35.04,53.898 58.17,85.582 69.3,94.961 -8.12,-20.981 -15.59,-46.18 -22.46,-75.711 -6.88,-29.961 -10.51,-46.442 -10.94,-49.449 -11.09,-57.7699 -17.11,-86.8402 -17.97,-87.2308 -0.82,-24.83989 1.92,-30.85942 8.32,-18.00004 25.71,36.78904 43.48,58.19924 53.32,64.17964 59.46,48.3202 108.91,99.0582 148.25,152.1092 39.37,53.43 59.88,82.34 61.6,86.641 14.57,26.09 32.93,61.64 55.19,106.558 21.8,44.454 33.79,69.301 35.94,74.372 21.8,44.531 38.52,87.109 50.04,127.781 11.6,40.621 17.34,62.418 17.34,65.429 20.98,136.09 30.59,290.309 28.91,462.73 -2.19,171.99 -8.13,322.58 -17.97,451.8 -9.41,129.22 -14.8,197.03 -16.05,203.47" /><path
         id="path16"
         style="fill:#730ff5;fill-opacity:1;fill-rule:evenodd;stroke:none"
         d="m 2239.61,556.371 c 1.25,8.981 -13.09,55.391 -43.05,139.219 -2.15,0.461 -9.8,16.25 -23.08,47.5 -13.71,31.68 -19.69,75.742 -17.97,132.219 1.25,2.152 6.6,17.543 16.05,46.211 9.42,28.679 16.06,57.968 19.89,87.89 0.43,2.15 1.91,16.06 4.49,41.72 2.54,25.67 4.88,49.89 7.07,72.54 12.38,-14.53 21.4,-47.26 26.95,-98.2 -1.29,-3.83 -2.15,-22.66 -2.62,-56.45 -0.39,-34.25 6.45,-61.438 20.59,-81.52 -1.33,-2.969 -3.67,-25.699 -7.07,-68.012 -3.01,-42.808 -0.66,-87.726 7.07,-134.758 4.26,0.86 4.26,-12.23 0,-39.179 -11.13,-4.301 -9.84,-26.289 3.83,-66.141 1.29,-1.68 -2.78,-9.371 -12.15,-23.039 m 263.12,198.938 c 18.4,47.5 23.91,70.82 16.65,69.961 -13.72,49.179 -22.86,76.57 -27.58,82.109 5.54,6.41 2.54,65.281 -8.99,176.491 -11.56,76.17 -20.54,153.83 -26.95,233.01 -6.45,79.1 -9.65,121.95 -9.65,128.35 -5.55,98.36 -16.44,167.07 -32.73,205.98 -16.64,38.52 -26.06,56.91 -28.25,55.2 -26.52,41.91 -38.28,65.27 -35.27,69.96 -20.51,51.75 -35.7,71.01 -45.58,57.73 -29.11,15.47 -61.37,25.94 -96.88,31.49 -35.55,5.58 -55,8.12 -58.4,7.69 -30,25.67 -59.26,44.26 -87.97,55.86 -29.06,11.52 -44.72,17.07 -46.79,16.68 -41.53,75.27 -65.04,105.43 -70.63,90.43 13.71,-47.03 17.31,-96.45 10.9,-148.2 -6.41,-51.8 -10.7,-79.81 -12.85,-84.07 -19.65,-78.32 -41.72,-179.49 -66.06,-303.59 -23.98,-124.06 -37.03,-192.73 -39.18,-205.98 -9.8,-68.9 -19.25,-136.09 -28.24,-201.56 -8.55,-65.04 -13.28,-99.881 -14.14,-104.569 -4.65,-59.492 -1.25,-125.82 10.31,-198.98 11.57,-72.742 18.4,-112.5 20.55,-119.379 42.77,-154.024 70.39,-237.852 82.77,-251.524 50.51,-99.296 103.56,-170.347 159.14,-213.089 56.06,-42.77 86.45,-63.547 91.18,-62.297 29.92,-17.5 61.13,-38.051 93.67,-61.5628 32.5,-23.1289 50.04,-35.9375 52.62,-38.5195 29.14,-9.4102 45.58,-6.4102 49.45,8.9805 -0.47,2.1093 -1.33,13.9101 -2.58,35.3203 -1.29,21.3595 0.86,39.9995 6.41,55.7815 8.12,29.136 9.84,44.328 5.11,45.578 29.11,90.711 48.79,141.211 59.07,151.488 19.64,51.332 32.5,99.652 38.51,145.043 5.59,45.777 7.93,70.149 7.07,73.16 15.78,81.25 26.1,121.719 30.78,121.289 8.99,41.91 10.47,67.192 4.53,75.739" /><path
         id="path18"
         style="fill:#3a351e;fill-opacity:1;fill-rule:evenodd;stroke:none"
         d="m 1757.62,335.551 -82.19,-84.692 -67.97,91.762 c 0,10.738 0.59,100.578 1.88,269.57 1.32,168.981 4.25,354.059 8.98,555.109 4.73,201.1 11.8,355.16 21.21,462.08 0,3.86 2.11,24.17 6.41,60.97 4.68,36.8 12.38,68.71 23.08,95.63 -9.37,4.72 -20.31,34.02 -32.69,87.93 l 33.98,37.85 c 8.13,4.72 30.78,3.86 68.05,-2.54 l 35.94,-59.06 c -7.7,-0.39 -26.14,-22.23 -55.2,-65.43 3.4,-7.74 7.46,-34.65 12.19,-80.9 0.43,-14.96 3.4,-125.31 8.98,-331.13 5.55,-205.79 10.47,-417.579 14.77,-635.399 4.26,-217.731 5.12,-351.641 2.58,-401.75" /><path
         id="path20"
         style="fill:#3c3821;fill-opacity:1;fill-rule:nonzero;stroke:none"
         d="m 376.41,781.289 c 0,-42.5 -12.191,-72.418 -36.57,-89.687 -7.809,-5.551 -20,-9.84 -36.559,-12.973 -19.691,0 -35.082,1.762 -46.09,5.32 -10.941,3.512 -21.171,9.602 -30.632,18.281 L 102.66,805.98 c -3.1287,2.379 -8.0506,2.571 -14.6912,0.622 -6.6797,-1.993 -11.2071,-2.973 -13.5899,-2.973 -15,0 -31.1797,10.391 -48.4375,31.25 C 8.62891,855.82 0,877.27 0,899.262 c 0,21.25 6.28906,40.508 18.9102,57.808 3.9414,5.512 10.2304,12.192 18.8984,20 7.8125,0 15.8203,0.391 24.0703,1.25 8.3203,0.821 16.0117,4.379 23.1211,10.629 l 141.559,134.531 c 0,12.57 1.171,21.64 3.601,27.18 7.07,18.83 21.25,28.29 42.5,28.29 25.07,0 48.668,-15.4 70.781,-46.1 19.68,-27.5 29.528,-53.08 29.528,-76.72 0,-18.86 -8.278,-32.18 -24.848,-40 -5.543,-2.42 -14.172,-4.37 -25.93,-5.93 l -105,-89.688 c 3.829,-4.692 8.899,-11.801 15.149,-21.25 6.332,-9.492 13.832,-16.172 22.5,-20 23.64,-26.063 51.18,-39.063 82.66,-39.063 6.25,0 14.262,-5.551 24.059,-16.57 9.89,-10.93 14.851,-25.078 14.851,-42.34 z m 717.22,-152.187 c 0,-22.114 -10.43,-40.231 -31.25,-54.372 -20.86,-14.14 -46.21,-21.25 -76.091,-21.25 -28.359,0 -43.711,3.551 -46.09,10.622 -5.551,17.269 -12.621,29.449 -21.25,36.558 -10.937,10.32 -51.648,38.828 -122.039,85.629 -70.43,46.762 -108.82,72.891 -115.148,78.441 l 11.867,-106.25 c 19.691,-22.82 28.32,-44.031 25.941,-63.601 -5.55,-33.117 -29.922,-49.68 -73.121,-49.68 -29.179,0 -55.398,8.082 -78.597,24.211 -23.122,16.141 -34.692,35.629 -34.692,58.442 0,5.507 2.891,12.187 8.75,20 5.942,7.886 12.07,16.168 18.442,24.847 L 530.82,1254.41 c 0,11.02 -2.769,22.86 -8.281,35.47 -5.551,12.58 -11.41,25.55 -17.66,38.91 0,19.69 10.98,34.61 32.973,44.84 15.699,7.07 40.078,12.19 73.128,15.32 10.192,0 21.598,-3.56 34.219,-10.63 12.571,-7.11 19.68,-16.95 21.25,-29.53 69.25,33.83 143.629,50.78 223.121,50.78 23.52,0 47.071,-10.27 70.629,-30.78 23.629,-20.43 35.461,-40.43 35.461,-60 0,-46.49 -12.18,-93.71 -36.558,-141.72 C 920.551,1091.52 847.77,997.148 740.82,883.949 L 1003.95,700.98 c 40.07,-19.691 65.03,-33.519 74.84,-41.41 9.88,-7.808 14.84,-17.968 14.84,-30.468 z M 831.602,1253.32 c 0,6.25 -1.801,11.91 -5.313,17.03 -3.437,5.08 -7.578,7.66 -12.34,7.66 -14.929,0 -39.687,-15.31 -74.379,-45.94 -14.058,-12.62 -38.05,-35.86 -71.871,-69.69 l -2.347,-184.06 c 44.058,51.88 82.738,104.73 116.097,158.59 33.43,53.95 50.153,92.74 50.153,116.41 z" /><path
         id="path22"
         style="fill:#3c3821;fill-opacity:1;fill-rule:nonzero;stroke:none"
         d="m 1553.83,739.879 c 0,-52.609 -16.72,-99.18 -50.16,-139.68 -33.36,-40.508 -75.58,-60.789 -126.72,-60.789 -71.68,0 -130.31,23.988 -175.93,71.879 -14.93,15.699 -30.24,39.731 -45.94,72.031 -15.74,10.2 -27.58,18.828 -35.47,25.942 -24.38,21.25 -38.56,41.289 -42.5,60.148 -2.31,12.578 7.54,24.219 29.53,34.852 22.07,10.617 44.88,15.937 68.44,15.937 34.69,0 60.23,-13.398 76.72,-40.16 6.32,-10.937 12.65,-21.949 18.9,-32.969 7.07,-20.55 12.97,-35.468 17.66,-44.84 15.7,-30.75 33.05,-46.101 52.03,-46.101 28.2,0 46.29,10.242 54.22,30.781 3.94,10.199 5.94,31.02 5.94,62.5 0,52.699 -23.05,92.578 -69.07,119.692 -46.05,27.187 -91.09,54.136 -135.15,80.937 -48.05,44.063 -72.03,111.721 -72.03,202.971 0,59.76 18.12,116.79 54.37,171.09 40.94,61.33 90.47,92.03 148.6,92.03 80.31,0 135.39,-35.78 165.31,-107.34 9.37,-23.67 16.44,-59.84 21.25,-108.59 3.12,-7.11 5.04,-13.05 5.78,-17.82 3.94,-14.06 5.94,-26.64 5.94,-37.65 0,-5.55 -0.39,-9.5 -1.1,-11.88 -4.8,-25.12 -9.96,-41.64 -15.47,-49.53 -10.23,-14.18 -27.5,-21.25 -51.87,-21.25 -26.8,0 -50,10.2 -69.69,30.63 -19.61,20.5 -29.37,44.92 -29.37,73.28 0,7.81 2.89,17.22 8.75,28.28 5.93,11.01 8.9,18.9 8.9,23.59 0,4.69 -0.78,8.2 -2.34,10.63 -3.13,6.25 -5.9,12.89 -8.28,20 -3.99,5.5 -13.05,8.28 -27.19,8.28 -20.43,0 -37.15,-12.42 -50.16,-37.19 -12.93,-24.8 -19.37,-52.5 -19.37,-83.12 0,-50.32 24.37,-92.43 73.12,-126.25 45.63,-29.93 91.64,-59.809 138.13,-89.688 49.45,-44.922 74.22,-105.121 74.22,-180.633 z" /><path
         id="path24"
         style="fill:#3c3821;fill-opacity:1;fill-rule:nonzero;stroke:none"
         d="m 1748.52,679.73 c 0,-4.691 -1.8,-13.128 -5.32,-25.32 -3.55,-12.18 -6.52,-23.039 -8.9,-32.5 0,-7.109 -0.24,-13.59 -0.63,-19.531 -0.43,-5.859 -1.79,-13.859 -4.06,-24.059 -5.55,-15 -21.68,-23.629 -48.44,-25.941 -24.37,0 -43.08,4.961 -56.09,14.851 -12.93,9.758 -19.38,23.321 -19.38,40.622 0,9.378 4.69,23.128 14.07,41.25 v 48.437 c 0,8.633 4.72,15.66 14.21,21.09 9.46,5.512 20.86,9.101 34.22,10.781 10.2,0 21.18,-1.64 32.97,-4.84 31.56,-8.672 47.35,-23.59 47.35,-44.84 z" /><path
         id="path26"
         style="fill:#3c3821;fill-opacity:1;fill-rule:nonzero;stroke:none"
         d="m 2197.5,592.379 c 0,-31.438 -26.72,-47.18 -80.16,-47.18 -18.86,0 -31.83,1.211 -38.9,3.59 -13.44,4.691 -20.16,14.922 -20.16,30.621 -0.74,3.211 0.82,11.918 4.69,26.102 0.82,3.828 2.81,10.508 5.94,20 -13.36,-22.114 -28.87,-39.032 -46.57,-50.782 -17.73,-11.761 -39.18,-17.66 -64.37,-17.66 -48.75,0 -86.95,24.731 -114.53,74.219 -27.5,49.57 -41.25,122.383 -41.25,218.441 0.82,16.442 1.25,25.5 1.25,27.18 0,55.82 15.31,111.641 45.94,167.5 36.24,66.02 78.74,99.07 127.5,99.07 14.14,0 27.89,-4.53 41.24,-13.6 13.44,-8.98 28.79,-26.48 46.1,-52.5 v 132.19 c 1.56,7.07 -0.43,15.7 -5.94,25.94 -14.18,27.58 -21.25,46.09 -21.25,55.47 0,15.7 8.05,30.47 24.22,44.22 16.13,13.82 34.06,20.78 53.75,20.78 19.57,0 36.02,-3.56 49.38,-10.63 13.43,-7.11 22.89,-19.69 28.43,-37.81 0.82,-3.13 1.25,-8.24 1.25,-15.31 0,-15.75 -2.42,-31.49 -7.18,-47.19 -0.75,-2.42 -2.31,-5.94 -4.69,-10.63 l 1.25,-604.211 c 3.12,-5.551 5.47,-9.847 7.03,-12.969 4.69,-10.242 7.03,-18.519 7.03,-24.851 z m -145.16,255 c 0,39.262 -6.52,79.141 -19.53,119.691 -12.93,40.51 -26.83,60.78 -41.72,60.78 -19.68,0 -33.86,-22.03 -42.5,-66.088 -5.54,-28.364 -8.28,-65.313 -8.28,-110.942 0,-11.8 0,-19.648 0,-23.59 0,-2.308 0,-5.429 0,-9.378 -0.86,-6.25 -1.68,-15.122 -2.5,-26.563 -0.74,-11.488 -1.09,-19.918 -1.09,-25.309 0,-40.941 4.88,-69.3 14.69,-85 9.88,-15.75 23.12,-23.601 39.68,-23.601 14.89,0 28.79,20.391 41.72,61.25 13.01,40.941 19.53,83.832 19.53,128.75 z" /><path
         id="path28"
         style="fill:#3c3821;fill-opacity:1;fill-rule:nonzero;stroke:none"
         d="m 2628.24,680.98 c 0,-31.492 -19.49,-62 -58.44,-91.57 -38.98,-29.449 -82.81,-44.211 -131.56,-44.211 -63.75,0 -110.94,27.102 -141.56,81.403 -26.8,47.269 -40.16,112.578 -40.16,195.937 0,106.949 20.82,190.001 62.5,249.061 38.52,54.26 88.48,81.41 149.85,81.41 37.81,0 68.9,-11.84 93.28,-35.47 27.5,-26.8 41.25,-65.31 41.25,-115.63 0,-51.871 -18.87,-103.039 -56.56,-153.43 -42.5,-56.57 -97.97,-97.46 -166.41,-122.66 0.7,-17.3 2.69,-30.269 5.94,-38.91 10.19,-26.789 30.62,-40.148 61.25,-40.148 33.83,0 58,17.066 72.5,51.25 14.57,34.258 28.16,52.187 40.78,53.75 12.58,0 25.55,-5.121 38.9,-15.313 18.95,-14.179 28.44,-32.66 28.44,-55.469 z m -125.15,318.59 c 0,11.02 -2.78,20.47 -8.29,28.28 -5.54,7.89 -14.53,11.88 -27.03,11.88 -30.74,0 -54.37,-20.47 -70.93,-61.41 -16.49,-40.941 -24.69,-91.679 -24.69,-152.191 20.39,4.691 45.55,22.742 75.47,54.223 36.95,39.378 55.47,79.097 55.47,119.218 z" /><path
         id="path30"
         style="fill:#3c3821;fill-opacity:1;fill-rule:nonzero;stroke:none"
         d="m 3144.06,1093.95 c 0,-16.57 -5.9,-33.52 -17.65,-50.79 -16.49,-25.11 -26.33,-41.64 -29.53,-49.531 L 2980.16,665.66 c -19.69,-55.109 -30.75,-85 -33.13,-89.68 -16.48,-28.32 -42.42,-42.5 -77.81,-42.5 -34.61,0 -57.03,7.11 -67.34,21.25 -5.55,7.809 -8.29,24.719 -8.29,50.782 0,16.437 -1.17,28.976 -3.43,37.648 l -106.25,377.66 c -1.57,5.51 -11.8,20.47 -30.63,44.84 -8.63,11.02 -12.97,21.25 -12.97,30.63 0,15.7 6.68,28.12 20,37.19 13.32,9.06 29.85,13.59 49.53,13.59 23.64,0 42.54,-7.5 56.72,-22.5 14.14,-14.92 25.16,-35.74 32.97,-62.5 l 85,-307.968 122.66,367.028 c 2.38,6.25 10.47,13.13 24.22,20.63 13.75,7.5 27.69,11.25 41.87,11.25 17.27,0 31.45,-2.78 42.5,-8.28 18.83,-9.5 28.28,-26.41 28.28,-50.78 z" /><path
         id="path32"
         style="fill:#3c3821;fill-opacity:1;fill-rule:nonzero;stroke:none"
         d="m 3611.76,901.602 c 0,-21.993 -8.52,-43.442 -25.47,-64.372 -16.88,-20.859 -33.2,-31.25 -48.91,-31.25 -2.3,0 -6.83,1.168 -13.59,3.59 -6.68,2.379 -11.56,2.032 -14.69,-1.09 L 3385.2,704.57 c -6.25,-5.55 -11.8,-9.492 -16.57,-11.871 -15.74,-7.82 -35.78,-11.719 -60.15,-11.719 -9.38,0.7 -16.84,2.258 -22.35,4.68 -33.86,14.141 -50.78,46.801 -50.78,97.969 0,21.25 7.42,38.172 22.35,50.781 7.07,5.512 12.57,8.289 16.56,8.289 31.44,0 58.98,12.961 82.65,38.903 7.82,3.828 14.46,9.527 20,17.027 5.51,7.5 11.41,15.551 17.66,24.223 l -105,89.688 c -10.94,0.82 -19.18,2.38 -24.69,4.69 -17.3,7.89 -25.93,21.72 -25.93,41.4 0,23.52 9.41,48.67 28.28,75.47 21.95,31.45 45.93,47.19 71.87,47.19 20.51,0 34.3,-9.06 41.41,-27.19 2.26,-5.55 3.83,-14.96 4.69,-28.28 l 141.56,-134.531 c 5.51,-5.551 12.58,-8.707 21.25,-9.527 8.63,-0.742 17.26,-1.492 25.94,-2.192 8.63,-7.109 14.92,-13.398 18.9,-18.91 12.58,-17.301 18.91,-36.988 18.91,-59.058 z" /><path
         id="path34"
         style="fill:#ffffff;fill-opacity:1;fill-rule:nonzero;stroke:none"
         d="m 487.07,820.699 c 0,-39.289 -11.25,-66.871 -33.75,-82.808 -7.3,-5.121 -18.59,-9.141 -33.91,-12.032 -18.121,0 -32.301,1.602 -42.5,4.84 -10.109,3.321 -19.531,8.949 -28.281,16.879 L 234.102,843.52 c -2.813,2.179 -7.34,2.339 -13.59,0.46 -6.172,-1.789 -10.313,-2.648 -12.5,-2.648 -13.75,0 -28.672,9.609 -44.692,28.898 -15.941,19.258 -23.91,39.071 -23.91,59.379 0,19.692 5.789,37.5 17.352,53.442 3.629,5.07 9.449,11.289 17.5,18.589 7.258,0 14.718,0.35 22.34,1.09 7.578,0.71 14.687,3.95 21.25,9.69 l 130.777,124.38 c 0,11.56 1.101,19.88 3.281,25 6.57,17.5 19.61,26.25 39.219,26.25 23.211,0 45.043,-14.18 65.473,-42.5 18.128,-25.55 27.187,-49.18 27.187,-70.94 0,-17.42 -7.66,-29.77 -22.969,-37.03 -5,-2.19 -12.968,-4.03 -23.91,-5.47 l -97.031,-82.809 c 3.641,-4.379 8.359,-10.942 14.223,-19.692 5.82,-8.668 12.699,-14.808 20.628,-18.437 21.872,-23.981 47.34,-35.942 76.399,-35.942 5.82,0 13.281,-5.109 22.351,-15.308 9.059,-10.231 13.59,-23.281 13.59,-39.223 z m 662.58,-140.621 c 0,-20.43 -9.65,-37.187 -28.91,-50.308 -19.29,-13.008 -42.73,-19.54 -70.31,-19.54 -26.17,0 -40.31,3.29 -42.5,9.848 -5.12,16.012 -11.68,27.262 -19.692,33.75 -10.226,9.453 -47.808,35.82 -112.808,79.063 -65,43.199 -100.43,67.379 -106.25,72.5 l 10.941,-98.121 c 18.117,-21.059 26.09,-40.711 23.899,-58.911 -5.11,-30.39 -27.61,-45.629 -67.5,-45.629 -26.872,0 -51.051,7.469 -72.5,22.348 -21.481,14.883 -32.18,32.852 -32.18,53.902 0,5.079 2.691,11.25 8.121,18.442 5.508,7.269 11.129,14.918 16.879,22.969 l -27.192,537.339 c 0,10.2 -2.578,21.1 -7.66,32.66 -5.109,11.64 -10.578,23.67 -16.398,36.09 0,18.13 10.191,31.92 30.621,41.41 14.449,6.45 36.949,11.13 67.5,14.06 9.449,0 20,-3.28 31.559,-9.84 11.64,-6.49 18.21,-15.55 19.691,-27.19 63.949,31.25 132.66,46.88 206.09,46.88 21.758,0 43.519,-9.5 65.319,-28.44 21.87,-18.87 32.81,-37.34 32.81,-55.47 0,-42.93 -11.33,-86.52 -33.91,-130.78 C 989.648,1107.3 922.461,1020.12 823.711,915.551 L 1066.68,746.48 c 37.07,-18.121 60.16,-30.859 69.22,-38.121 9.14,-7.308 13.75,-16.718 13.75,-28.281 z M 907.621,1256.64 c 0,5.82 -1.68,11.09 -5,15.78 -3.242,4.77 -7.031,7.19 -11.41,7.19 -13.75,0 -36.641,-14.18 -68.59,-42.5 -13.133,-11.68 -35.32,-33.13 -66.57,-64.38 l -2.18,-170 c 40.699,47.89 76.481,96.76 107.34,146.57 30.937,49.76 46.41,85.54 46.41,107.34 z" /><path
         id="path36"
         style="fill:#ffffff;fill-opacity:1;fill-rule:nonzero;stroke:none"
         d="m 1574.69,782.582 c 0,-48.754 -15.47,-91.844 -46.41,-129.223 -30.86,-37.379 -69.84,-56.089 -117.03,-56.089 -66.17,0 -120.31,22.14 -162.5,66.402 -13.75,14.566 -27.93,36.758 -42.5,66.558 -14.49,9.379 -25.39,17.348 -32.66,23.911 -22.5,19.691 -35.58,38.199 -39.21,55.629 -2.19,11.64 6.87,22.378 27.18,32.179 20.39,9.77 41.49,14.692 63.28,14.692 31.96,0 55.55,-12.34 70.78,-37.032 5.83,-10.23 11.65,-20.429 17.5,-30.629 6.57,-18.859 12.04,-32.652 16.41,-41.402 14.45,-28.359 30.39,-42.5 47.81,-42.5 26.25,0 42.97,9.453 50.16,28.442 3.63,9.371 5.47,28.589 5.47,57.652 0,48.75 -21.25,85.629 -63.75,110.629 -42.5,25.078 -84.14,50 -124.84,74.679 -44.3,40.71 -66.41,103.21 -66.41,187.5 0,55.2 16.72,107.9 50.15,158.13 37.7,56.64 83.48,85 137.35,85 74.06,0 124.88,-33.09 152.5,-99.22 8.75,-21.8 15.31,-55.23 19.69,-100.31 2.89,-6.56 4.72,-11.99 5.46,-16.25 3.64,-13.13 5.47,-24.81 5.47,-35 0,-5.12 -0.39,-8.71 -1.09,-10.78 -4.38,-23.36 -9.14,-38.6 -14.22,-45.78 -9.49,-13.13 -25.47,-19.69 -47.97,-19.69 -24.69,0 -46.17,9.41 -64.37,28.28 -18.13,18.94 -27.19,41.48 -27.19,67.66 0,7.26 2.7,15.97 8.13,26.09 5.5,10.19 8.28,17.5 8.28,21.87 0,4.38 -0.75,7.66 -2.19,9.85 -2.93,5.7 -5.47,11.87 -7.66,18.44 -3.67,5.07 -11.99,7.65 -25,7.65 -18.98,0 -34.45,-11.48 -46.4,-34.37 -12,-22.82 -17.97,-48.44 -17.97,-76.88 0,-46.48 22.5,-85.31 67.5,-116.56 42.18,-27.62 84.72,-55.231 127.65,-82.809 45.71,-41.492 68.6,-97.031 68.6,-166.719 z" /><path
         id="path38"
         style="fill:#ffffff;fill-opacity:1;fill-rule:nonzero;stroke:none"
         d="m 1754.38,726.949 c 0,-4.371 -1.68,-12.179 -5,-23.429 -3.25,-11.25 -5.9,-21.25 -7.97,-30 0,-6.571 -0.24,-12.579 -0.63,-17.969 -0.31,-5.43 -1.56,-12.891 -3.75,-22.352 -5.12,-13.82 -20,-21.871 -44.69,-24.058 -22.61,0 -39.92,4.609 -51.87,13.75 -11.99,9.058 -17.97,21.558 -17.97,37.5 0,8.75 4.38,21.449 13.12,38.129 v 44.679 c 0,8.012 4.3,14.571 12.97,19.692 8.75,5.078 19.3,8.359 31.72,9.839 9.46,0 19.61,-1.48 30.47,-4.371 29.06,-8.05 43.6,-21.839 43.6,-41.41 z" /><path
         id="path40"
         style="fill:#ffffff;fill-opacity:1;fill-rule:nonzero;stroke:none"
         d="m 2169.34,646.328 c 0,-29.058 -24.77,-43.598 -74.22,-43.598 -17.42,0 -29.38,1.059 -35.94,3.129 -12.42,4.371 -18.59,13.871 -18.59,28.442 -0.75,2.89 0.7,10.859 4.37,23.898 0.7,3.641 2.54,9.852 5.47,18.602 -12.31,-20.321 -26.64,-35.942 -42.97,-46.879 -16.37,-10.942 -36.21,-16.402 -59.53,-16.402 -45,0 -80.23,22.851 -105.63,68.589 -25.42,45.821 -38.12,113.051 -38.12,201.723 0.7,15.309 1.09,23.668 1.09,25.148 0,51.571 14.14,103.13 42.5,154.69 33.44,61.02 72.66,91.56 117.66,91.56 13.12,0 25.82,-4.18 38.12,-12.5 12.39,-8.35 26.57,-24.49 42.5,-48.43 v 122.03 c 1.45,6.56 -0.39,14.53 -5.46,23.9 -13.05,25.51 -19.54,42.58 -19.54,51.25 0,14.57 7.43,28.21 22.35,40.94 14.88,12.7 31.4,19.06 49.53,19.06 18.2,0 33.48,-3.28 45.78,-9.84 12.38,-6.56 21.13,-18.2 26.25,-34.84 0.7,-2.93 1.09,-7.66 1.09,-14.22 0,-14.49 -2.18,-29.03 -6.56,-43.6 -0.74,-2.18 -2.19,-5.46 -4.37,-9.84 l 1.09,-557.968 c 2.89,-5.121 5.08,-9.141 6.56,-12.031 4.38,-9.493 6.57,-17.11 6.57,-22.813 z m -134.07,235.313 c 0,36.328 -6.05,73.199 -18.12,110.629 -11.99,37.5 -24.85,56.25 -38.6,56.25 -18.24,0 -31.32,-20.4 -39.21,-61.098 -5.12,-26.172 -7.66,-60.313 -7.66,-102.5 0,-10.863 0,-18.082 0,-21.723 0,-2.179 0,-5.109 0,-8.75 -0.74,-5.859 -1.48,-14.019 -2.19,-24.527 -0.74,-10.543 -1.09,-18.363 -1.09,-23.442 0,-37.808 4.53,-64.019 13.59,-78.589 9.06,-14.493 21.25,-21.719 36.56,-21.719 13.75,0 26.61,18.906 38.6,56.719 12.07,37.808 18.12,77.379 18.12,118.75 z" /><path
         id="path42"
         style="fill:#ffffff;fill-opacity:1;fill-rule:nonzero;stroke:none"
         d="m 2567.11,728.051 c 0,-29.071 -18.05,-57.27 -54.06,-84.531 -35.94,-27.192 -76.41,-40.79 -121.41,-40.79 -58.87,0 -102.46,25.04 -130.78,75.161 -24.81,43.519 -37.19,103.828 -37.19,180.941 0,98.828 19.26,175.508 57.81,229.998 35.63,50.08 81.76,75.15 138.44,75.15 34.88,0 63.6,-10.89 86.1,-32.65 25.39,-24.69 38.12,-60.31 38.12,-106.88 0,-47.93 -17.46,-95.149 -52.34,-141.72 -39.18,-52.3 -90.39,-90.07 -153.6,-113.281 0.71,-16.051 2.54,-28.039 5.47,-35.929 9.38,-24.809 28.28,-37.192 56.72,-37.192 31.13,0 53.44,15.781 66.88,47.344 13.51,31.637 26.09,48.207 37.65,49.687 11.64,0 23.63,-4.687 35.94,-14.058 17.5,-13.129 26.25,-30.242 26.25,-51.25 z m -115.63,294.219 c 0,10.19 -2.57,18.9 -7.65,26.09 -5,7.26 -13.36,10.94 -25,10.94 -28.36,0 -50.16,-18.91 -65.47,-56.72 -15.24,-37.74 -22.81,-84.529 -22.81,-140.471 18.83,4.371 42.11,21.09 69.84,50.161 34.06,36.25 51.09,72.89 51.09,110 z" /><path
         id="path44"
         style="fill:#ffffff;fill-opacity:1;fill-rule:nonzero;stroke:none"
         d="m 3043.63,1109.45 c 0,-15.23 -5.47,-30.86 -16.4,-46.87 -15.24,-23.24 -24.3,-38.52 -27.19,-45.78 L 2892.07,713.828 c -18.12,-50.859 -28.28,-78.437 -30.47,-82.808 -15.23,-26.141 -39.18,-39.219 -71.87,-39.219 -32,0 -52.74,6.519 -62.19,19.527 -5.12,7.301 -7.66,22.891 -7.66,46.871 0,15.321 -1.09,26.961 -3.28,35 l -98.12,348.751 c -1.37,5.08 -10.78,18.91 -28.28,41.41 -8.01,10.19 -12.04,19.61 -12.04,28.28 0,14.57 6.22,26.02 18.6,34.38 12.38,8.32 27.65,12.5 45.78,12.5 21.76,0 39.14,-6.96 52.19,-20.79 13.12,-13.75 23.32,-32.96 30.62,-57.65 l 78.44,-284.529 113.44,339.059 c 2.18,5.82 9.61,12.19 22.34,19.06 12.7,6.88 25.63,10.31 38.75,10.31 15.94,0 28.98,-2.57 39.22,-7.65 17.38,-8.67 26.09,-24.3 26.09,-46.88 z" /><path
         id="path46"
         style="fill:#ffffff;fill-opacity:1;fill-rule:nonzero;stroke:none"
         d="m 3475.59,931.801 c 0,-20.321 -7.82,-40.121 -23.44,-59.379 -15.63,-19.301 -30.7,-28.902 -45.16,-28.902 -2.19,0 -6.4,1.089 -12.65,3.281 -6.18,2.179 -10.71,1.789 -13.6,-1.102 L 3266.37,749.77 c -5.86,-5.122 -10.94,-8.719 -15.32,-10.79 -14.49,-7.3 -33.04,-10.929 -55.62,-10.929 -8.67,0.699 -15.55,2.179 -20.63,4.371 -31.25,13.008 -46.87,43.168 -46.87,90.469 0,19.57 6.91,35.199 20.78,46.879 6.45,5 11.49,7.5 15.16,7.5 29.06,0 54.45,12.031 76.25,36.089 7.26,3.629 13.47,8.911 18.59,15.782 5.08,6.879 10.55,14.3 16.41,22.339 l -97.03,82.82 c -10.24,0.7 -17.89,2.18 -22.97,4.37 -15.94,7.27 -23.91,20 -23.91,38.13 0,21.75 8.67,45.04 26.09,69.84 20.4,29.06 42.58,43.59 66.57,43.59 18.83,0 31.56,-8.39 38.12,-25.15 2.19,-5.12 3.63,-13.83 4.38,-26.1 l 130.78,-124.37 c 5.08,-5 11.6,-7.89 19.53,-8.59 8.01,-0.75 16.02,-1.49 24.06,-2.19 8.01,-6.56 13.83,-12.42 17.5,-17.498 11.56,-15.941 17.35,-34.141 17.35,-54.531 z" /></g></g></svg>