<?xml version="1.0" encoding="UTF-8" standalone="no"?>
<svg
   xmlns:dc="http://purl.org/dc/elements/1.1/"
   xmlns:cc="http://creativecommons.org/ns#"
   xmlns:rdf="http://www.w3.org/1999/02/22-rdf-syntax-ns#"
   xmlns:svg="http://www.w3.org/2000/svg"
   xmlns="http://www.w3.org/2000/svg"
   viewBox="0 0 470.66666 353.33334"
   height="353.33334"
   width="470.66666"
   xml:space="preserve"
   id="svg2"
   version="1.1"><metadata
     id="metadata8"><rdf:RDF><cc:Work
         rdf:about=""><dc:format>image/svg+xml</dc:format><dc:type
           rdf:resource="http://purl.org/dc/dcmitype/StillImage" /></cc:Work></rdf:RDF></metadata><defs
     id="defs6" /><g
     transform="matrix(1.3333333,0,0,-1.3333333,0,353.33333)"
     id="g10"><g
       transform="scale(0.1)"
       id="g12"><path
         id="path14"
         style="fill:#730ff5;fill-opacity:1;fill-rule:evenodd;stroke:none"
         d="m 1287.07,1349.26 c -0.47,-3.01 -3.44,-21.84 -8.98,-56.49 -5.55,-34.65 -11.14,-65.89 -16.68,-93.71 -14.14,1.76 -14.14,22.7 0,62.93 1.68,3.01 4.88,21.6 9.61,55.78 4.72,34.26 1.52,66.8 -9.61,97.58 -0.86,4.26 -8.6,10.94 -23.13,19.92 -14.53,0.86 -14.53,9.81 0,26.92 5.16,-3.83 16.68,5.82 34.65,28.86 2.62,-0.39 4.96,18.68 7.07,57.19 0.43,2.93 0.62,19.85 0.62,50.67 0.47,30.78 0.24,57.77 -0.62,80.89 -4.26,9.81 0.43,27.78 14.14,53.87 1.68,-5.55 5.94,-31.21 12.81,-76.99 0.86,-5.16 0.67,-40.66 -0.62,-106.56 -0.86,-65.47 -7.27,-132.42 -19.26,-200.86 m 299.73,1064.72 c -12,84.26 -12.42,144.38 -1.33,180.36 11.13,35.89 18.2,53.43 21.17,52.57 -12.81,3.01 -28.44,-5.74 -46.84,-26.32 -18.39,-20.51 -28.67,-32.47 -30.78,-35.9 -34.22,-6.88 -80.19,-21.84 -137.97,-44.92 -58.2,-23.56 -90.5,-36.8 -96.91,-39.81 -37.26,-13.67 -56.05,-19.06 -56.52,-16.05 -31.21,-5.12 -44.07,-10.47 -38.52,-16.02 -31.64,-39.37 -43.79,-66.56 -36.52,-81.52 -11.99,-50.04 -33.2,-118.95 -63.56,-206.64 -30.35,-87.74 -47.5,-136.29 -51.32,-145.71 -27.82,-94.1 -41.33,-176.87 -40.47,-248.32 0.86,-71.05 2.38,-108.51 4.53,-112.34 -5.16,-28.28 -11.99,-44.3 -20.588,-48.13 -20.082,-40.27 -26.051,-66.79 -17.934,-79.61 5.981,-40.62 11.532,-81.91 16.684,-123.86 4.687,-42.35 7.308,-65.2 7.699,-68.67 6.399,-53.05 10.929,-82.78 13.469,-89.18 9.85,-31.64 16.68,-53.48 20.55,-65.47 -2.15,-0.43 -6.87,-10.9 -14.14,-31.49 -7.7,-20.5 -4.49,-45.97 9.65,-76.33 17.07,-48.78 24.61,-80.03 22.46,-93.71 -0.47,-35.07 1.91,-51.75 7.07,-50.031 14.92,-29.539 29.06,-61.649 42.34,-96.289 13.71,-35.078 20.98,-54.11 21.84,-57.11 13.24,-33.402 20.94,-46.41 23.09,-39.14 35.07,53.898 58.16,85.582 69.29,94.961 -8.12,-20.981 -15.58,-46.18 -22.46,-75.711 -6.87,-29.961 -10.47,-46.442 -10.9,-49.449 -11.09,-57.77 -17.11,-86.84 -17.97,-87.231 -0.86,-24.84 1.92,-30.859 8.32,-18 25.67,36.789 43.48,58.199 53.29,64.18 59.49,48.32 108.9,99.058 148.28,152.109 39.37,53.43 59.88,82.34 61.56,86.641 14.61,26.09 32.93,61.64 55.19,106.56 21.84,44.45 33.79,69.3 35.98,74.37 21.8,44.53 38.48,87.11 50.04,127.78 11.56,40.62 17.34,62.42 17.34,65.43 20.94,136.09 30.59,290.31 28.87,462.73 -2.15,171.99 -8.12,322.58 -17.93,451.8 -9.45,129.22 -14.8,197.03 -16.05,203.47" /><path
         id="path16"
         style="fill:#730ff5;fill-opacity:1;fill-rule:evenodd;stroke:none"
         d="m 2289.53,1166.37 c 1.25,8.98 -13.08,55.39 -43.01,139.22 -2.14,0.46 -9.84,16.25 -23.12,47.5 -13.67,31.68 -19.65,75.74 -17.93,132.22 1.25,2.15 6.6,17.54 16.01,46.21 9.46,28.68 16.06,57.97 19.93,87.89 0.39,2.15 1.91,16.06 4.45,41.72 2.58,25.67 4.92,49.89 7.07,72.54 12.38,-14.53 21.41,-47.26 26.99,-98.2 -1.33,-3.83 -2.15,-22.66 -2.62,-56.45 -0.39,-34.25 6.41,-61.44 20.55,-81.52 -1.29,-2.97 -3.63,-25.7 -7.07,-68.01 -3.01,-42.81 -0.62,-87.73 7.07,-134.76 4.26,0.86 4.26,-12.23 0,-39.18 -11.13,-4.3 -9.8,-26.29 3.87,-66.14 1.25,-1.68 -2.81,-9.37 -12.19,-23.04 m 263.13,198.94 c 18.39,47.5 23.94,70.82 16.64,69.96 -13.68,49.18 -22.85,76.57 -27.58,82.11 5.58,6.41 2.58,65.28 -8.95,176.49 -11.6,76.17 -20.58,153.83 -26.99,233.01 -6.4,79.1 -9.61,121.95 -9.61,128.35 -5.58,98.36 -16.44,167.07 -32.73,205.98 -16.68,38.52 -26.1,56.91 -28.24,55.2 -26.53,41.91 -38.32,65.27 -35.32,69.96 -20.5,51.75 -35.7,71.01 -45.54,57.73 -29.11,15.47 -61.41,25.94 -96.88,31.49 -35.55,5.58 -55,8.12 -58.44,7.69 -29.96,25.67 -59.25,44.26 -87.93,55.86 -29.06,11.52 -44.72,17.07 -46.83,16.68 -41.53,75.27 -65.04,105.43 -70.59,90.43 13.67,-47.03 17.31,-96.45 10.86,-148.2 -6.41,-51.8 -10.66,-79.81 -12.81,-84.07 -19.65,-78.32 -41.72,-179.49 -66.1,-303.59 -23.94,-124.06 -36.99,-192.73 -39.14,-205.98 -9.84,-68.9 -19.25,-136.09 -28.24,-201.56 -8.55,-65.04 -13.28,-99.88 -14.14,-104.57 -4.65,-59.49 -1.25,-125.82 10.28,-198.98 11.6,-72.74 18.39,-112.5 20.54,-119.38 42.78,-154.02 70.43,-237.85 82.81,-251.52 50.47,-99.298 103.52,-170.349 159.15,-213.091 56.05,-42.77 86.4,-63.547 91.13,-62.297 29.92,-17.5 61.17,-38.051 93.71,-61.563 32.5,-23.129 50.04,-35.937 52.62,-38.519 29.1,-9.41 45.54,-6.41 49.41,8.98 -0.43,2.11 -1.29,13.91 -2.54,35.32 -1.33,21.36 0.82,40 6.41,55.782 8.12,29.136 9.84,44.328 5.11,45.578 29.07,90.711 48.79,141.211 59.07,151.488 19.65,51.332 32.5,99.652 38.51,145.042 5.55,45.78 7.89,70.15 7.07,73.16 15.78,81.25 26.06,121.72 30.78,121.29 8.99,41.91 10.47,67.19 4.5,75.74" /><path
         id="path18"
         style="fill:#3a351e;fill-opacity:1;fill-rule:evenodd;stroke:none"
         d="m 1807.54,945.551 -82.15,-84.692 -68.01,91.762 c 0,10.738 0.63,100.579 1.92,269.569 1.29,168.98 4.25,354.06 8.98,555.11 4.69,201.1 11.76,355.16 21.21,462.08 0,3.86 2.07,24.17 6.41,60.97 4.65,36.8 12.38,68.71 23.05,95.63 -9.38,4.72 -20.32,34.02 -32.7,87.93 l 34.02,37.85 c 8.13,4.72 30.78,3.86 68.01,-2.54 l 35.98,-59.06 c -7.74,-0.39 -26.14,-22.23 -55.2,-65.43 3.4,-7.74 7.46,-34.65 12.15,-80.9 0.47,-14.96 3.44,-125.31 8.99,-331.13 5.58,-205.79 10.5,-417.58 14.8,-635.4 4.26,-217.73 5.12,-351.64 2.54,-401.749" /><path
         id="path20"
         style="fill:#3c3821;fill-opacity:1;fill-rule:nonzero;stroke:none"
         d="m 245.66,184.57 c 0,-27.73 -7.961,-47.191 -23.898,-58.441 -5.121,-3.668 -13.09,-6.52 -23.91,-8.59 -12.813,0 -22.813,1.133 -30,3.441 -7.192,2.379 -13.872,6.399 -20,12.032 L 66.9102,200.82 c -1.9883,1.45 -5.1485,1.559 -9.5313,0.309 -4.3672,-1.25 -7.3398,-1.867 -8.8984,-1.867 -9.6914,0 -20.2422,6.758 -31.5703,20.308 -11.25004,13.629 -16.8711375,27.66 -16.8711375,42.032 0,13.828 4.1015675,26.41 12.3398375,37.66 2.5,3.629 6.5703,8.008 12.1914,13.117 5.1992,0 10.4688,0.242 15.7813,0.781 5.3867,0.512 10.3867,2.82 15,6.879 l 92.5004,87.813 c 0,8.199 0.777,14.136 2.347,17.808 4.571,12.27 13.781,18.442 27.653,18.442 16.449,0 31.878,-10 46.25,-30 12.808,-18.051 19.218,-34.762 19.218,-50.153 0,-12.308 -5.429,-21.019 -16.25,-26.097 -3.55,-1.563 -9.179,-2.891 -16.871,-3.903 l -68.597,-58.437 c 2.578,-3.133 5.937,-7.782 10,-13.91 4.136,-6.172 9.058,-10.551 14.687,-13.122 15.391,-16.878 33.359,-25.32 53.91,-25.32 4.141,0 9.41,-3.59 15.781,-10.781 6.442,-7.18 9.68,-16.481 9.68,-27.809 z" /><path
         id="path22"
         style="fill:#3c3821;fill-opacity:1;fill-rule:nonzero;stroke:none"
         d="m 1568.05,565.66 c 0,-9.68 -4.14,-21.48 -12.35,-35.308 -1.05,-2.114 -3.36,-5.153 -6.87,-9.223 L 1445.55,173.012 c 2.57,-6.68 3.9,-16.961 3.9,-30.782 0,-11.25 -0.7,-21.96 -2.03,-32.031 -1.25,-10 -2.62,-19.0701 -4.06,-27.1873 -2.62,-5.2422 -4.96,-9.0625 -7.03,-11.5625 -14.92,-18.0508 -36.72,-27.039 -65.47,-27.039 -21.56,0 -40.59,6.0195 -57.03,18.1289 -16.37,12.0703 -24.53,27.8515 -24.53,47.3399 0,7.703 1.25,17.582 3.75,29.691 2.57,12.071 3.9,19.379 3.9,21.879 0,7.18 -1.79,13.59 -5.31,19.211 l -57.03,204.07 -69.22,-240.16 c 3.52,-7.73 6.09,-13.871 7.66,-18.441 5.62,-15.43 8.43,-27.2579 8.43,-35.4688 0,-23.1211 -5.39,-42.4219 -16.09,-57.8086 C 1152.97,15.4688 1135,6.76172 1111.48,6.76172 c -25.74,0 -43.24,12.80858 -52.5,38.43748 -2.5,8.1992 -4.53,21.0899 -6.09,38.5899 L 955.859,502.539 c -3.05,5.699 -5.308,10.082 -6.879,13.121 -4.679,10.32 -7.031,18.789 -7.031,25.469 0,9.691 5.86,18.91 17.66,27.66 11.871,8.75 24.731,13.121 38.59,13.121 22.071,0 37.741,-5.89 47.031,-17.648 7.19,-9.301 10.79,-21.102 10.79,-35.473 0,-4.609 -0.28,-8.707 -0.79,-12.34 -0.54,-3.558 -1.32,-6.879 -2.34,-10 l 47.81,-259.539 77.66,281.879 c -1.06,2.582 -1.56,4.371 -1.56,5.313 -2.5,9.257 -3.75,16.168 -3.75,20.777 1.56,12.391 8.04,21.25 19.53,26.57 11.56,5.391 25.04,8.121 40.47,8.121 14.88,0 27.97,-3.75 39.22,-11.25 11.32,-7.422 18.59,-18.05 21.71,-31.871 0.4,-2 0.63,-5.078 0.63,-9.219 0,-5.121 -0.55,-10 -1.56,-14.691 -0.94,-4.609 -1.96,-8.91 -2.97,-12.969 l 76.25,-262.66 81.56,275.789 c 0,2.5 0,4.531 0,6.09 -0.55,2.582 -0.78,5.391 -0.78,8.441 0,18 3.83,32.891 11.56,44.68 11.33,17.5 30.86,26.25 58.6,26.25 13.32,0 25.07,-4.019 35.31,-12.031 10.31,-7.93 15.47,-18.078 15.47,-30.469 z" /><path
         id="path24"
         style="fill:#3c3821;fill-opacity:1;fill-rule:nonzero;stroke:none"
         d="m 1852.42,534.879 c 0,-7.731 -3.59,-14.527 -10.78,-20.469 -7.19,-5.859 -18.52,-8.75 -33.91,-8.75 -4.18,0 -9.21,0 -15.15,0 -5.86,0 -9.81,0.512 -11.88,1.57 -5.11,0 -17.3,-3.871 -36.56,-11.57 -19.3,-7.73 -35.08,-15.93 -47.34,-24.68 0,-14.929 -0.43,-32.109 -1.25,-51.57 -0.75,-19.488 -1.37,-40.781 -1.88,-63.898 0,-17.93 1.02,-32.813 3.13,-44.692 6.13,1.559 12.54,3.36 19.22,5.469 8.75,9.262 18.75,13.91 30,13.91 9.76,0 23.51,-5.711 41.25,-17.039 17.69,-11.25 26.56,-22.031 26.56,-32.34 0,-17.422 -3.6,-29.218 -10.78,-35.468 -7.19,-6.172 -16.96,-9.223 -29.22,-9.223 l -32.35,1.57 c -5.11,0 -13.08,-2.578 -23.9,-7.66 -5.12,-2.617 -12.03,-6.207 -20.78,-10.777 0,-6.172 -0.16,-12.461 -0.47,-18.91 -0.24,-6.372 -0.31,-12.93 -0.31,-19.692 0,-17.422 1.56,-30.461 4.68,-39.211 8.64,2.071 17.85,4.602 27.66,7.653 9.76,3.128 16.44,5.98 20,8.597 2.58,3 4.92,5.313 7.03,6.871 7.19,5.078 14.57,7.66 22.19,7.66 11.33,0 24.06,-6.57 38.12,-19.691 14.14,-13.051 21.25,-26.988 21.25,-41.879 0,-9.289 -1.83,-16.2108 -5.47,-20.7811 -5.62,-7.1797 -15.62,-10.7773 -30,-10.7773 -21.05,0 -42.34,-6.211 -63.9,-18.5899 -21.56,-12.3125 -42.89,-24.8515 -63.91,-37.6601 -16.87,2.6172 -31.25,8.8281 -43.12,18.5976 -11.8,9.6797 -22.31,25.0313 -31.57,46.0899 -1.05,2.0703 -0.7,5.3125 1.1,9.6914 1.87,4.3715 3.83,8.5895 5.94,12.6485 0,38.519 -0.16,83.441 -0.47,134.691 -0.24,51.328 -0.47,102.418 -0.78,153.282 -0.24,50.82 -0.32,95.238 -0.32,133.277 -3.67,5.633 -5.47,10.203 -5.47,13.75 0,8.211 4.85,14.609 14.54,19.223 9.76,4.687 20.35,7.539 31.71,8.597 7.19,0 18.75,-4.379 34.69,-13.129 18.44,5.629 43.6,14.102 75.47,25.469 24.06,8.633 39.41,12.973 46.09,12.973 10.32,0 20.55,-4.852 30.79,-14.532 13.43,-12.308 20.15,-28.519 20.15,-48.601 z" /><path
         id="path26"
         style="fill:#3c3821;fill-opacity:1;fill-rule:nonzero;stroke:none"
         d="m 2177.38,283.16 c 0,-30.308 -13.86,-64.488 -41.56,-102.5 -16.99,-23.039 -48.09,-57.648 -93.28,-103.8983 -8.13,-13.3633 -16.06,-26.6797 -23.75,-40 -9.81,-13.3203 -21.37,-20 -34.69,-20 -15.43,0 -33.67,7.4571 -54.69,22.3399 -23.67,16.8789 -35.46,34.0586 -35.46,51.5586 0,5.6289 0.78,9.7308 2.34,12.3518 1.56,2.5 5.66,7.07 12.34,13.75 -0.54,6.758 -2.18,37.687 -5,92.808 -2.81,55.2 -6.05,121.559 -9.68,199.059 -1.49,31.332 -2.97,62.891 -4.54,94.691 -3.12,5.7 -5.46,10.352 -7.03,13.91 -4.61,11.25 -6.87,20.969 -6.87,29.219 0,6.133 1.01,11.012 3.12,14.68 6.14,10.711 16.14,17.66 30,20.781 11.76,3.129 27.19,-2.301 46.25,-16.25 3.01,-1.988 7.07,-5.578 12.19,-10.781 19.06,5.203 33.67,9.07 43.91,11.57 32.89,8.199 53.94,12.34 63.12,12.34 24.14,0 42.11,-6.68 53.91,-20 11.87,-13.359 17.81,-30.551 17.81,-51.559 0,-28.75 -12.62,-62.148 -37.81,-100.16 -8.24,-12.3 -21.06,-28.441 -38.44,-48.441 24.14,-5.109 42.11,-10 53.91,-14.68 35.93,-14.929 53.9,-35.16 53.9,-60.789 z m -130.15,200.942 c 0,6.636 -2.03,10 -6.1,10 -10.31,0 -24.68,-4.653 -43.12,-13.903 -6.25,-3.051 -14.77,-7.898 -25.47,-14.539 l 3.12,-83.898 c 15.82,15.386 27.58,27.687 35.32,36.867 24.14,28.211 36.25,50.043 36.25,65.473 z M 2082.7,263.16 c 0,12.27 -8.25,18.442 -24.69,18.442 -10.74,0 -26.17,-4.922 -46.25,-14.692 -6.68,-3.039 -15.9,-8.121 -27.66,-15.308 l 2.35,-101.723 c 21.56,16.961 37.42,30.633 47.65,40.941 32.38,31.25 48.6,55.352 48.6,72.34 z" /><path
         id="path28"
         style="fill:#3c3821;fill-opacity:1;fill-rule:nonzero;stroke:none"
         d="m 2304.96,118.32 c 0,-3.05 -1.21,-8.55 -3.59,-16.558 -2.31,-7.93 -4.18,-14.9612 -5.63,-21.1018 0,-4.6797 -0.15,-8.9805 -0.47,-12.8086 -0.23,-3.75 -1.09,-9.0196 -2.65,-15.7813 -3.67,-9.6914 -14.18,-15.3086 -31.57,-16.8711 -15.93,0 -28.12,3.2422 -36.56,9.6797 -8.44,6.332 -12.65,15.2031 -12.65,26.5703 0,6.1328 3.04,15.0703 9.21,26.8711 v 31.5587 c 0,5.633 3.05,10.203 9.22,13.75 6.14,3.641 13.6,5.98 22.35,7.031 6.64,0 13.83,-1.012 21.56,-2.961 20.51,-5.75 30.78,-15.551 30.78,-29.379 z" /><path
         id="path30"
         style="fill:#3c3821;fill-opacity:1;fill-rule:nonzero;stroke:none"
         d="m 2598.05,61.4492 c 0,-20.5078 -17.46,-30.789 -52.35,-30.789 -12.42,0 -20.9,0.75 -25.47,2.1914 -8.75,3.1289 -13.12,9.8086 -13.12,20 -0.55,2.0703 0.51,7.7382 3.12,17.0273 0.51,2.5 1.8,6.8828 3.91,13.1328 -8.75,-14.3828 -18.91,-25.4297 -30.47,-33.1328 -11.56,-7.6875 -25.58,-11.5586 -42.03,-11.5586 -31.8,0 -56.68,16.1289 -74.69,48.4414 -17.93,32.3793 -26.87,79.8793 -26.87,142.5003 0.51,10.699 0.78,16.597 0.78,17.648 0,36.449 10,72.891 30,109.379 23.63,43.121 51.33,64.691 83.12,64.691 9.26,0 18.21,-2.968 26.88,-8.91 8.75,-5.859 18.79,-17.269 30.16,-34.218 v 86.25 c 1.01,4.57 -0.28,10.199 -3.91,16.878 -9.3,18 -13.91,30.071 -13.91,36.25 0,10.309 5.24,19.918 15.78,28.899 10.51,8.953 22.23,13.441 35.16,13.441 12.81,0 23.52,-2.34 32.19,-7.031 8.75,-4.609 14.92,-12.769 18.59,-24.527 0.51,-2.114 0.78,-5.43 0.78,-10 0,-10.313 -1.56,-20.59 -4.68,-30.782 -0.55,-1.57 -1.53,-3.91 -2.97,-7.031 l 0.78,-394.2185 c 1.95,-3.5586 3.47,-6.3711 4.53,-8.4414 3.12,-6.6797 4.69,-12.0274 4.69,-16.0899 z m -94.69,166.2498 c 0,25.621 -4.3,51.641 -12.81,78.121 -8.44,26.45 -17.58,39.692 -27.35,39.692 -12.81,0 -22.03,-14.383 -27.65,-43.133 -3.67,-18.43 -5.47,-42.578 -5.47,-72.34 0,-7.738 0,-12.891 0,-15.469 0,-1.48 0,-3.519 0,-6.09 -0.55,-4.179 -1.06,-9.96 -1.56,-17.351 -0.43,-7.418 -0.63,-12.93 -0.63,-16.559 0,-26.679 3.16,-45.16 9.53,-55.468 6.45,-10.231 15.04,-15.313 25.78,-15.313 9.77,0 18.91,13.32 27.35,40 8.51,26.641 12.81,54.609 12.81,83.91 z" /><path
         id="path32"
         style="fill:#3c3821;fill-opacity:1;fill-rule:nonzero;stroke:none"
         d="m 2879.1,119.102 c 0,-20.5512 -12.73,-40.4301 -38.12,-59.6918 -25.43,-19.1407 -54.07,-28.75 -85.94,-28.75 -41.56,0 -72.34,17.6992 -92.34,53.1289 -17.5,30.6989 -26.25,73.3199 -26.25,127.8129 0,69.769 13.59,123.91 40.78,162.347 25.19,35.391 57.81,53.121 97.81,53.121 24.69,0 45,-7.66 60.94,-22.968 17.89,-17.5 26.87,-42.653 26.87,-75.473 0,-33.981 -12.34,-67.34 -37.03,-100.149 -27.73,-37 -63.87,-63.71 -108.44,-80.16 0.51,-11.25 1.76,-19.691 3.75,-25.308 6.64,-17.5 20.04,-26.2503 40.16,-26.2503 21.95,0 37.69,11.1293 47.19,33.4373 9.57,22.383 18.47,34.102 26.72,35.153 8.12,0 16.56,-3.364 25.31,-10 12.38,-9.301 18.59,-21.372 18.59,-36.25 z m -81.72,207.968 c 0,7.192 -1.83,13.321 -5.47,18.442 -3.55,5.078 -9.45,7.648 -17.65,7.648 -20,0 -35.43,-13.359 -46.25,-40 -10.74,-26.68 -16.1,-59.801 -16.1,-99.371 13.32,3.121 29.77,14.922 49.38,35.473 24.06,25.617 36.09,51.558 36.09,77.808 z" /><path
         id="path34"
         style="fill:#3c3821;fill-opacity:1;fill-rule:nonzero;stroke:none"
         d="m 3215.62,388.629 c 0,-10.738 -3.86,-21.789 -11.56,-33.117 -10.74,-16.492 -17.15,-27.274 -19.22,-32.352 l -76.25,-214.058 c -12.81,-35.9418 -20,-55.4301 -21.56,-58.4418 -10.74,-18.5118 -27.65,-27.8086 -50.78,-27.8086 -22.62,0 -37.27,4.6484 -43.91,13.9101 -3.55,5.1172 -5.31,16.1289 -5.31,33.1172 0,10.7109 -0.78,18.9531 -2.34,24.6914 L 2915.31,340.82 c -0.93,3.629 -7.61,13.442 -20,29.379 -5.62,7.18 -8.43,13.821 -8.43,20 0,10.192 4.37,18.281 13.12,24.211 8.75,5.942 19.53,8.91 32.34,8.91 15.39,0 27.7,-4.922 36.88,-14.691 9.26,-9.68 16.44,-23.277 21.56,-40.777 l 55.47,-200.942 80.16,239.379 c 1.44,4.141 6.64,8.633 15.62,13.441 9.06,4.879 18.2,7.34 27.5,7.34 11.25,0 20.47,-1.8 27.66,-5.308 12.26,-6.172 18.43,-17.192 18.43,-33.133 z" /><path
         id="path36"
         style="fill:#3c3821;fill-opacity:1;fill-rule:nonzero;stroke:none"
         d="m 3520.86,263.16 c 0,-14.371 -5.55,-28.39 -16.56,-42.031 -11.06,-13.547 -21.72,-20.309 -32.03,-20.309 -1.49,0 -4.38,0.7 -8.75,2.192 -4.38,1.558 -7.62,1.289 -9.69,-0.782 l -80.78,-67.66 c -4.18,-3.672 -7.78,-6.211 -10.78,-7.66 -10.32,-5.23 -23.44,-7.808 -39.38,-7.808 -6.17,0.507 -11.01,1.558 -14.53,3.128 -22.11,9.25 -33.13,30.54 -33.13,63.899 0,13.832 4.89,24.891 14.69,33.133 4.57,3.508 8.17,5.308 10.78,5.308 20.51,0 38.44,8.481 53.75,25.469 5.2,2.582 9.57,6.293 13.13,11.09 3.63,4.891 7.5,10.16 11.56,15.781 l -68.44,58.602 c -7.18,0.508 -12.61,1.558 -16.25,3.117 -11.25,5.082 -16.87,14.07 -16.87,26.883 0,15.386 6.13,31.867 18.44,49.367 14.37,20.512 30.03,30.781 47.03,30.781 13.32,0 22.26,-5.93 26.87,-17.808 1.56,-3.551 2.58,-9.692 3.13,-18.442 l 92.34,-87.808 c 3.63,-3.551 8.28,-5.582 13.91,-6.09 5.62,-0.551 11.25,-1.063 16.87,-1.563 5.63,-4.609 9.73,-8.719 12.35,-12.347 8.2,-11.25 12.34,-24.063 12.34,-38.442 z" /><path
         id="path38"
         style="fill:#7510f7;fill-opacity:1;fill-rule:nonzero;stroke:none"
         d="m 641.52,71.2109 c 0,-14.9218 -7.11,-27.1914 -21.25,-36.8711 -14.059,-9.5703 -31.25,-14.3789 -51.559,-14.3789 -19.18,0 -29.531,2.418 -31.09,7.1875 -3.75,11.7618 -8.562,20.043 -14.383,24.8399 -7.5,6.9609 -35.148,26.293 -82.968,57.9727 -47.731,31.758 -73.668,49.527 -77.809,53.277 l 7.969,-72.0271 c 13.32,-15.4296 19.14,-29.8007 17.5,-43.1211 -3.668,-22.5 -20.16,-33.75 -49.532,-33.75 -19.808,0 -37.578,5.461 -53.277,16.3985 -15.742,10.9414 -23.601,24.1406 -23.601,39.6914 0,3.75 1.96,8.2812 5.941,13.5898 4.059,5.3203 8.199,10.8594 12.5,16.7185 l -20,394.532 c 0,7.39 -1.871,15.351 -5.621,23.91 -3.75,8.519 -7.738,17.34 -11.879,26.41 0,13.32 7.418,23.469 22.34,30.461 10.629,4.769 27.109,8.211 49.539,10.32 6.949,0 14.719,-2.422 23.281,-7.191 8.508,-4.801 13.32,-11.481 14.367,-20 46.961,22.89 97.391,34.371 151.25,34.371 15.942,0 31.883,-6.949 47.813,-20.781 16.019,-13.86 24.07,-27.461 24.07,-40.782 0,-31.476 -8.242,-63.437 -24.691,-95.937 C 524.262,384.801 474.961,320.781 402.461,244.02 L 580.738,119.961 c 27.192,-13.359 44.102,-22.6602 50.782,-27.9727 6.64,-5.3086 10,-12.2578 10,-20.7774 z M 464.02,494.34 c 0,4.25 -1.211,8.121 -3.59,11.558 -2.418,3.512 -5.231,5.313 -8.442,5.313 -10.109,0 -26.949,-10.43 -50.468,-31.25 -9.61,-8.551 -25.86,-24.301 -48.75,-47.191 l -1.559,-124.68 c 29.879,35.07 56.129,70.93 78.75,107.5 22.699,36.558 34.059,62.808 34.059,78.75 z M 953.551,146.371 c 0,-35.75 -11.36,-67.3515 -34.063,-94.8515 -22.609,-27.3789 -51.25,-41.0898 -85.937,-41.0898 -48.43,0 -88.121,16.25 -119.063,48.75 -10.226,10.6992 -20.617,27.0312 -31.25,48.9103 -10.738,6.871 -18.75,12.691 -24.058,17.5 -16.481,14.371 -26.059,27.961 -28.75,40.781 -1.559,8.508 5.082,16.399 20,23.59 14.879,7.187 30.351,10.777 46.41,10.777 23.43,0 40.781,-9.058 52.031,-27.187 4.25,-7.422 8.508,-14.84 12.809,-22.34 4.769,-13.871 8.75,-24.02 11.871,-30.473 10.711,-20.738 22.5,-31.0896 35.32,-31.0896 19.141,0 31.399,6.9102 36.719,20.7816 2.691,6.871 4.058,20.98 4.058,42.34 0,35.71 -15.628,62.82 -46.878,81.25 -31.168,18.441 -61.68,36.718 -91.559,54.851 -32.5,29.758 -48.75,75.617 -48.75,137.5 0,40.508 12.23,79.219 36.719,116.09 27.808,41.559 61.41,62.34 100.781,62.34 54.449,0 91.801,-24.289 112.027,-72.813 6.453,-15.937 11.25,-40.468 14.383,-73.59 2.18,-4.808 3.508,-8.828 4.059,-12.027 2.691,-9.609 4.058,-18.133 4.058,-25.633 0,-3.668 -0.308,-6.328 -0.937,-7.968 -3.121,-17.11 -6.563,-28.282 -10.313,-33.59 -6.988,-9.61 -18.707,-14.379 -35.148,-14.379 -18.129,0 -33.871,6.918 -47.192,20.789 -13.359,13.82 -20,30.39 -20,49.68 0,5.32 1.954,11.64 5.942,19.07 3.941,7.5 5.93,12.851 5.93,16.09 0,3.199 -0.54,5.621 -1.559,7.191 -2.109,4.258 -3.981,8.789 -5.621,13.59 -2.621,3.75 -8.75,5.629 -18.442,5.629 -13.867,0 -25.238,-8.442 -34.058,-25.32 -8.75,-16.79 -13.129,-35.54 -13.129,-56.25 0,-34.18 16.559,-62.731 49.687,-85.622 30.942,-20.308 62.114,-40.589 93.59,-60.777 33.524,-30.43 50.313,-71.25 50.313,-122.5 z" /></g></g></svg>