<?xml version="1.0" encoding="UTF-8" standalone="no"?>
<svg
   xmlns:dc="http://purl.org/dc/elements/1.1/"
   xmlns:cc="http://creativecommons.org/ns#"
   xmlns:rdf="http://www.w3.org/1999/02/22-rdf-syntax-ns#"
   xmlns:svg="http://www.w3.org/2000/svg"
   xmlns="http://www.w3.org/2000/svg"
   viewBox="0 0 508 386.66666"
   height="386.66666"
   width="508"
   xml:space="preserve"
   id="svg2"
   version="1.1"><metadata
     id="metadata8"><rdf:RDF><cc:Work
         rdf:about=""><dc:format>image/svg+xml</dc:format><dc:type
           rdf:resource="http://purl.org/dc/dcmitype/StillImage" /></cc:Work></rdf:RDF></metadata><defs
     id="defs6" /><g
     transform="matrix(1.3333333,0,0,-1.3333333,0,386.66667)"
     id="g10"><g
       transform="scale(0.1)"
       id="g12"><path
         id="path14"
         style="fill:#730ff5;fill-opacity:1;fill-rule:evenodd;stroke:none"
         d="m 2519.14,745.199 c -0.43,-3.008 -3.4,-21.879 -8.94,-56.527 -5.59,-34.652 -11.14,-65.863 -16.72,-93.711 -14.14,1.758 -14.14,22.738 0,62.93 1.72,3.007 4.92,21.597 9.64,55.82 4.69,34.219 1.49,66.758 -9.64,97.539 -0.86,4.301 -8.56,10.941 -23.13,19.922 -14.53,0.859 -14.53,9.848 0,26.918 5.2,-3.789 16.72,5.82 34.65,28.898 2.62,-0.429 4.96,18.633 7.07,57.153 0.47,2.968 0.66,19.839 0.66,50.699 0.47,30.78 0.2,57.74 -0.66,80.86 -4.26,9.85 0.47,27.78 14.14,53.91 1.72,-5.59 5.98,-31.25 12.85,-77.03 0.86,-5.16 0.67,-40.67 -0.66,-106.529 -0.86,-65.5 -7.27,-132.422 -19.26,-200.852 m 299.73,1064.681 c -11.96,84.3 -12.42,144.42 -1.29,180.35 11.13,35.9 18.2,53.44 21.17,52.58 -12.85,3.01 -28.44,-5.74 -46.84,-26.29 -18.39,-20.5 -28.67,-32.5 -30.78,-35.9 -34.25,-6.87 -80.23,-21.87 -138.01,-44.96 -58.2,-23.55 -90.46,-36.79 -96.91,-39.8 -37.23,-13.67 -56.05,-19.02 -56.48,-16.02 -31.25,-5.11 -44.11,-10.5 -38.52,-16.05 -31.64,-39.38 -43.83,-66.52 -36.56,-81.52 -11.99,-50.04 -33.17,-118.95 -63.52,-206.65 -30.39,-87.73 -47.54,-136.24 -51.33,-145.7 -27.85,-94.1 -41.32,-176.87 -40.46,-248.32 0.86,-71.05 2.34,-108.51 4.49,-112.3 -5.16,-28.28 -11.95,-44.34 -20.55,-48.17 -20.12,-40.232 -26.05,-66.751 -17.93,-79.61 5.94,-40.622 11.53,-81.911 16.68,-123.821 4.65,-42.39 7.27,-65.238 7.66,-68.719 6.44,-53.039 10.93,-82.769 13.51,-89.179 9.81,-31.641 16.68,-53.43 20.55,-65.422 -2.15,-0.469 -6.87,-10.938 -14.14,-31.488 -7.73,-20.512 -4.53,-45.981 9.61,-76.371 17.11,-48.79 24.65,-80.04 22.46,-93.711 -0.43,-35.039 1.91,-51.758 7.07,-50.039 14.96,-29.532 29.1,-61.641 42.38,-96.29 13.67,-35.07 20.98,-54.058 21.8,-57.07 13.24,-33.39 20.98,-46.441 23.12,-39.18 35.04,53.911 58.17,85.59 69.3,94.969 -8.12,-20.937 -15.58,-46.179 -22.46,-75.711 -6.87,-29.918 -10.47,-46.437 -10.94,-49.449 -11.09,-57.7382 -17.11,-86.8398 -17.93,-87.2304 -0.86,-24.79688 1.88,-30.82032 8.32,-18.0078 25.67,36.8008 43.44,58.2109 53.28,64.1797 59.46,48.3205 108.91,99.0705 148.29,152.1095 39.33,53.48 59.84,82.351 61.56,86.64 14.57,26.102 32.93,61.649 55.19,106.571 21.8,44.449 33.79,69.289 35.94,74.41 21.84,44.527 38.52,87.07 50.04,127.738 11.6,40.621 17.34,62.422 17.34,65.43 20.98,136.09 30.59,290.312 28.91,462.731 -2.19,171.99 -8.12,322.62 -17.97,451.8 -9.41,129.21 -14.76,197.07 -16.05,203.47" /><path
         id="path16"
         style="fill:#730ff5;fill-opacity:1;fill-rule:evenodd;stroke:none"
         d="m 3521.64,562.27 c 1.25,8.98 -13.09,55.429 -43.05,139.25 -2.14,0.429 -9.8,16.25 -23.08,47.46 -13.71,31.68 -19.65,75.79 -17.97,132.231 1.25,2.148 6.64,17.539 16.05,46.211 9.42,28.707 16.06,57.969 19.93,87.928 0.39,2.15 1.87,16.02 4.45,41.68 2.54,25.7 4.92,49.92 7.07,72.58 12.38,-14.53 21.41,-47.31 26.95,-98.24 -1.29,-3.79 -2.15,-22.66 -2.58,-56.448 -0.43,-34.262 6.41,-61.402 20.55,-81.524 -1.33,-2.968 -3.67,-25.668 -7.07,-68.007 -3.01,-42.809 -0.66,-87.731 7.07,-134.77 4.26,0.859 4.26,-12.223 0,-39.141 -11.13,-4.332 -9.84,-26.32 3.87,-66.128 1.25,-1.723 -2.81,-9.372 -12.19,-23.082 m 263.13,198.941 c 18.39,47.5 23.9,70.82 16.64,69.961 -13.68,49.18 -22.86,76.558 -27.58,82.148 5.58,6.41 2.58,65.27 -8.99,176.48 -11.56,76.14 -20.54,153.83 -26.95,232.97 -6.44,79.14 -9.65,121.96 -9.65,128.36 -5.54,98.4 -16.44,167.07 -32.73,205.98 -16.64,38.51 -26.06,56.91 -28.24,55.19 -26.53,41.92 -38.29,65.28 -35.28,69.97 -20.51,51.79 -35.7,71.05 -45.58,57.73 -29.07,15.47 -61.37,25.94 -96.88,31.52 -35.55,5.55 -55,8.09 -58.4,7.66 -30,25.66 -59.25,44.26 -87.93,55.86 -29.1,11.52 -44.72,17.11 -46.83,16.68 -41.53,75.27 -65.04,105.47 -70.63,90.47 13.71,-47.03 17.31,-96.49 10.9,-148.21 -6.41,-51.79 -10.66,-79.84 -12.85,-84.1 -19.65,-78.32 -41.68,-179.49 -66.06,-303.59 -23.98,-124.02 -37.03,-192.74 -39.18,-205.98 -9.8,-68.86 -19.25,-136.05 -28.2,-201.56 -8.59,-65 -13.32,-99.84 -14.14,-104.57 -4.69,-59.45 -1.25,-125.821 10.27,-198.95 11.57,-72.769 18.4,-112.531 20.55,-119.371 42.77,-154.058 70.39,-237.89 82.77,-251.558 50.51,-99.262 103.56,-170.321 159.15,-213.09 56.05,-42.77 86.44,-63.512 91.17,-62.262 29.92,-17.5 61.17,-38.09 93.71,-61.6092 32.46,-23.0781 50.04,-35.9296 52.58,-38.4687 29.14,-9.4609 45.58,-6.4492 49.45,8.9375 -0.47,2.1133 -1.33,13.9102 -2.58,35.3125 -1.29,21.3669 0.86,39.9999 6.45,55.8279 8.08,29.102 9.8,44.289 5.07,45.539 29.11,90.711 48.79,141.211 59.07,151.492 19.68,51.321 32.5,99.68 38.51,145.04 5.59,45.781 7.93,70.152 7.07,73.16 15.82,81.289 26.1,121.761 30.78,121.289 8.99,41.91 10.51,67.191 4.54,75.742" /><path
         id="path18"
         style="fill:#3a351e;fill-opacity:1;fill-rule:evenodd;stroke:none"
         d="m 3039.65,341.48 -82.19,-84.679 -67.97,91.75 c 0,10.711 0.59,100.551 1.88,269.539 1.33,169.019 4.29,354.058 8.98,555.11 4.73,201.14 11.8,355.16 21.21,462.11 0,3.87 2.11,24.14 6.41,60.98 4.69,36.8 12.38,68.67 23.08,95.59 -9.37,4.72 -20.31,34.06 -32.69,87.96 l 33.98,37.86 c 8.13,4.68 30.78,3.86 68.05,-2.58 l 35.94,-59.07 c -7.7,-0.39 -26.1,-22.18 -55.2,-65.43 3.4,-7.69 7.46,-34.64 12.19,-80.85 0.47,-15 3.4,-125.36 8.98,-331.18 5.55,-205.78 10.47,-417.57 14.77,-635.352 4.3,-217.769 5.12,-351.679 2.58,-401.758" /><path
         id="path20"
         style="fill:#3c3821;fill-opacity:1;fill-rule:nonzero;stroke:none"
         d="m 239.219,2336.29 c 0,-26.99 -7.77,-46.02 -23.278,-57.03 -5,-3.44 -12.742,-6.17 -23.132,-8.13 -12.5,0 -22.297,1.1 -29.368,3.28 -6.992,2.27 -13.441,6.18 -19.382,11.72 l -78.7504,65.94 c -2.1094,1.45 -5.2695,1.56 -9.5273,0.31 -4.1797,-1.25 -7.0313,-1.87 -8.5899,-1.87 -9.4922,0 -19.7695,6.6 -30.7812,19.84 C 5.46875,2383.67 0,2397.3 0,2411.29 c 0,13.51 3.98047,25.78 12.0313,36.72 2.5,3.51 6.4882,7.81 12.0273,12.81 5,0 10.082,0.23 15.3203,0.78 5.1914,0.51 10.0703,2.74 14.6797,6.72 l 90.0004,85.47 c 0,8.01 0.711,13.79 2.191,17.34 4.449,11.96 13.48,17.97 27.031,17.97 15.938,0 30.938,-9.76 45,-29.22 12.5,-17.5 18.75,-33.75 18.75,-48.75 0,-12.11 -5.269,-20.62 -15.781,-25.62 -3.551,-1.49 -9.059,-2.74 -16.559,-3.75 l -66.722,-56.88 c 2.5,-3.04 5.703,-7.58 9.691,-13.59 4.059,-5.94 8.82,-10.16 14.371,-12.66 15,-16.56 32.5,-24.84 52.5,-24.84 3.949,0 9.059,-3.52 15.309,-10.47 6.25,-6.99 9.379,-16.02 9.379,-27.03 z" /><path
         id="path22"
         style="fill:#3c3821;fill-opacity:1;fill-rule:nonzero;stroke:none"
         d="m 1729.45,2707.54 c 0,-9.49 -4.02,-21.02 -12.03,-34.53 -1.05,-1.99 -3.28,-4.96 -6.72,-8.91 l -100.47,-339.06 c 2.5,-6.49 3.75,-16.49 3.75,-30 0,-10.94 -0.62,-21.33 -1.87,-31.09 -1.25,-9.81 -2.66,-18.68 -4.22,-26.57 -2.5,-5 -4.77,-8.75 -6.72,-11.25 -14.49,-17.5 -35.74,-26.25 -63.75,-26.25 -21.05,0 -39.61,5.82 -55.62,17.5 -15.94,11.76 -23.91,27.19 -23.91,46.25 0,7.5 1.25,17.07 3.75,28.75 2.5,11.76 3.75,18.91 3.75,21.41 0,6.95 -1.72,13.2 -5.16,18.75 l -55.62,198.75 -67.5,-233.91 c 3.51,-7.5 6.01,-13.55 7.5,-18.12 5.51,-15 8.28,-26.49 8.28,-34.38 0,-22.5 -5.27,-41.25 -15.78,-56.25 -11.99,-17.07 -29.49,-25.62 -52.5,-25.62 -25,0 -41.99,12.5 -50.94,37.5 -2.5,8.01 -4.49,20.51 -5.94,37.5 l -94.53,408.12 c -3.04,5.39 -5.27,9.61 -6.72,12.66 -4.6,10 -6.87,18.28 -6.87,24.84 0,9.46 5.7,18.44 17.19,26.88 11.56,8.51 24.1,12.81 37.65,12.81 21.45,0 36.72,-5.74 45.78,-17.19 6.96,-9.06 10.47,-20.58 10.47,-34.53 0,-4.49 -0.27,-8.51 -0.78,-12.03 -0.54,-3.55 -1.25,-6.8 -2.19,-9.69 l 46.41,-252.81 75.78,274.53 c -1.05,2.5 -1.56,4.22 -1.56,5.16 -2.5,9.06 -3.75,15.82 -3.75,20.31 1.56,11.95 7.97,20.55 19.22,25.78 11.25,5.31 24.37,7.97 39.37,7.97 14.46,0 27.19,-3.67 38.13,-10.94 11.01,-7.18 18.05,-17.58 21.09,-31.09 0.51,-1.99 0.78,-4.96 0.78,-8.91 0,-5 -0.54,-9.8 -1.56,-14.37 -0.94,-4.49 -1.95,-8.71 -2.97,-12.66 l 74.22,-255.78 79.53,268.44 c 0,2.5 0,4.53 0,6.09 -0.54,2.5 -0.78,5.24 -0.78,8.28 0,17.5 3.75,31.96 11.25,43.44 11.02,16.95 30.04,25.47 57.03,25.47 13.01,0 24.53,-3.91 34.53,-11.72 10,-7.73 15,-17.58 15,-29.53 z" /><path
         id="path24"
         style="fill:#3c3821;fill-opacity:1;fill-rule:nonzero;stroke:none"
         d="m 2006.33,2677.54 c 0,-7.5 -3.52,-14.14 -10.47,-19.84 -6.99,-5.75 -17.97,-8.6 -32.97,-8.6 -3.98,0 -8.87,0 -14.69,0 -5.74,0 -9.61,0.47 -11.56,1.41 -5,0 -16.87,-3.75 -35.62,-11.25 -18.75,-7.5 -34.14,-15.47 -46.1,-23.91 0,-14.49 -0.43,-31.25 -1.25,-50.31 -0.74,-18.99 -1.33,-39.69 -1.72,-62.19 0,-17.5 0.98,-32.03 2.97,-43.59 5.94,1.56 12.19,3.32 18.75,5.31 8.44,8.95 18.17,13.44 29.22,13.44 9.45,0 22.81,-5.55 40,-16.56 17.27,-10.94 25.94,-21.41 25.94,-31.41 0,-16.99 -3.52,-28.52 -10.47,-34.53 -6.99,-5.94 -16.48,-8.91 -28.44,-8.91 l -31.56,1.41 c -5,0 -12.77,-2.5 -23.28,-7.5 -5,-2.5 -11.72,-6.02 -20.16,-10.47 0,-5.94 -0.15,-12.03 -0.47,-18.28 -0.23,-6.25 -0.31,-12.66 -0.31,-19.22 0,-16.99 1.48,-29.77 4.53,-38.28 8.44,2.07 17.38,4.57 26.88,7.5 9.57,3.01 16.09,5.78 19.53,8.28 2.5,3.01 4.76,5.23 6.87,6.72 6.96,5 14.22,7.5 21.72,7.5 10.94,0 23.28,-6.37 37.03,-19.06 13.75,-12.74 20.63,-26.37 20.63,-40.94 0,-8.99 -1.72,-15.71 -5.16,-20.16 -5.55,-6.99 -15.27,-10.47 -29.22,-10.47 -20.54,0 -41.33,-6.05 -62.34,-18.12 -20.94,-11.99 -41.68,-24.22 -62.19,-36.72 -16.56,2.5 -30.58,8.55 -42.03,18.12 -11.48,9.46 -21.72,24.42 -30.78,44.85 -0.94,2.07 -0.59,5.19 1.09,9.37 1.76,4.26 3.64,8.44 5.63,12.5 0,37.5 -0.12,81.25 -0.31,131.25 -0.24,50 -0.47,99.73 -0.79,149.22 -0.23,49.45 -0.31,92.7 -0.31,129.69 -3.55,5.51 -5.31,10.04 -5.31,13.59 0,7.89 4.73,14.1 14.22,18.6 9.57,4.57 19.84,7.34 30.78,8.28 6.95,0 18.2,-4.22 33.75,-12.66 18.01,5.51 42.54,13.75 73.59,24.69 23.44,8.51 38.44,12.81 45,12.81 10,0 20,-4.76 30,-14.22 12.89,-12.11 19.38,-27.89 19.38,-47.34 z" /><path
         id="path26"
         style="fill:#3c3821;fill-opacity:1;fill-rule:nonzero;stroke:none"
         d="m 2322.93,2432.38 c 0,-29.61 -13.52,-62.89 -40.47,-99.84 -16.48,-22.5 -46.72,-56.25 -90.78,-101.25 -8.05,-13.05 -15.78,-26.02 -23.28,-38.91 -9.49,-13 -20.74,-19.53 -33.75,-19.53 -15,0 -32.74,7.27 -53.13,21.72 -23.04,16.45 -34.53,33.2 -34.53,50.31 0,5.39 0.71,9.38 2.19,11.88 1.56,2.5 5.55,7.03 12.03,13.59 -0.55,6.45 -2.19,36.56 -5,90.31 -2.73,53.75 -5.78,118.36 -9.22,193.91 -1.56,30.51 -3.08,61.25 -4.53,92.19 -3.05,5.51 -5.27,10.04 -6.72,13.59 -4.49,10.94 -6.72,20.39 -6.72,28.44 0,6.01 0.98,10.78 2.97,14.22 5.94,10.51 15.67,17.26 29.22,20.31 11.45,3.01 26.45,-2.27 45,-15.78 3.01,-1.99 7.03,-5.47 12.03,-10.47 18.44,5 32.66,8.75 42.66,11.25 32.07,8.01 52.58,12.03 61.56,12.03 23.52,0 41.02,-6.52 52.5,-19.53 11.45,-13.05 17.19,-29.8 17.19,-50.31 0,-27.93 -12.27,-60.43 -36.72,-97.5 -8.05,-11.99 -20.55,-27.74 -37.5,-47.19 23.52,-5 41.02,-9.77 52.5,-14.22 35,-14.49 52.5,-34.22 52.5,-59.22 z m -126.72,195.63 c 0,6.56 -1.99,9.84 -5.94,9.84 -10,0 -24.02,-4.53 -42.03,-13.59 -6.05,-2.93 -14.33,-7.66 -24.84,-14.22 l 3.12,-81.72 c 15.39,15 26.88,26.95 34.38,35.94 23.51,27.5 35.31,48.75 35.31,63.75 z m 34.53,-215.16 c 0,11.95 -8.04,17.97 -24.06,17.97 -10.55,0 -25.55,-4.77 -45,-14.22 -6.48,-3.05 -15.47,-8.05 -27.03,-15 l 2.34,-99.06 c 20.94,16.56 36.41,29.84 46.41,39.84 31.56,30.39 47.34,53.91 47.34,70.47 z" /><path
         id="path28"
         style="fill:#3c3821;fill-opacity:1;fill-rule:nonzero;stroke:none"
         d="m 2447.23,2271.76 c 0,-2.93 -1.18,-8.28 -3.44,-16.1 -2.19,-7.73 -4.06,-14.61 -5.63,-20.62 0,-4.49 -0.11,-8.59 -0.31,-12.34 -0.23,-3.75 -1.09,-8.87 -2.65,-15.32 -3.44,-9.57 -13.72,-15.08 -30.79,-16.56 -15.43,0 -27.3,3.13 -35.62,9.38 -8.24,6.25 -12.34,14.88 -12.34,25.93 0,5.94 3,14.69 9.06,26.25 v 30.63 c 0,5.51 2.97,10 8.9,13.44 6.02,3.51 13.32,5.82 21.88,6.87 6.44,0 13.44,-1.02 20.94,-2.97 20,-5.55 30,-15.08 30,-28.59 z" /><path
         id="path30"
         style="fill:#3c3821;fill-opacity:1;fill-rule:nonzero;stroke:none"
         d="m 2732.73,2216.29 c 0,-20 -17.03,-30 -51.09,-30 -11.99,0 -20.23,0.78 -24.69,2.34 -8.55,2.93 -12.81,9.38 -12.81,19.38 -0.55,2.07 0.47,7.58 2.97,16.56 0.51,2.5 1.76,6.76 3.75,12.81 -8.44,-14.06 -18.28,-24.84 -29.53,-32.34 -11.25,-7.5 -24.92,-11.25 -40.94,-11.25 -30.94,0 -55.16,15.7 -72.66,47.19 -17.5,31.56 -26.25,77.85 -26.25,138.9 0.4,10.39 0.63,16.14 0.63,17.19 0,35.51 9.77,71.02 29.37,106.56 22.9,41.96 49.89,62.97 80.94,62.97 8.95,0 17.7,-2.93 26.25,-8.75 8.52,-5.74 18.28,-16.83 29.22,-33.28 v 84.06 c 1.02,4.46 -0.23,9.92 -3.75,16.41 -8.98,17.5 -13.44,29.26 -13.44,35.31 0,10 5.08,19.38 15.32,28.13 10.31,8.75 21.71,13.12 34.21,13.12 12.5,0 22.97,-2.3 31.41,-6.87 8.52,-4.5 14.53,-12.46 17.97,-23.91 0.51,-1.99 0.78,-5.23 0.78,-9.69 0,-10 -1.52,-20 -4.53,-30 -0.43,-1.56 -1.41,-3.86 -2.97,-6.87 l 0.78,-383.91 c 1.95,-3.55 3.48,-6.33 4.53,-8.28 3.01,-6.48 4.53,-11.72 4.53,-15.78 z m -92.34,162.03 c 0,25 -4.14,50.35 -12.34,76.09 -8.25,25.71 -17.11,38.6 -26.57,38.6 -12.5,0 -21.52,-13.99 -27.03,-41.88 -3.55,-18.04 -5.31,-41.56 -5.31,-70.62 0,-7.5 0,-12.5 0,-15 0,-1.49 0,-3.44 0,-5.94 -0.55,-3.98 -1.05,-9.61 -1.56,-16.87 -0.43,-7.31 -0.63,-12.66 -0.63,-16.1 0,-26.05 3.13,-44.06 9.38,-54.06 6.25,-10 14.61,-15 25.15,-15 9.46,0 18.32,12.97 26.57,38.91 8.2,26.01 12.34,53.32 12.34,81.87 z" /><path
         id="path32"
         style="fill:#3c3821;fill-opacity:1;fill-rule:nonzero;stroke:none"
         d="m 3006.37,2272.54 c 0,-20 -12.42,-39.38 -37.19,-58.13 -24.69,-18.75 -52.58,-28.12 -83.59,-28.12 -40.55,0 -70.55,17.23 -90,51.72 -17,30 -25.47,71.48 -25.47,124.53 0,68.01 13.2,120.78 39.68,158.28 24.58,34.45 56.33,51.72 95.32,51.72 23.94,0 43.67,-7.5 59.22,-22.5 17.5,-16.99 26.25,-41.49 26.25,-73.44 0,-33.05 -12,-65.55 -35.94,-97.5 -26.99,-36.05 -62.27,-62.03 -105.78,-77.97 0.51,-11.05 1.75,-19.33 3.75,-24.84 6.44,-16.99 19.45,-25.47 39.06,-25.47 21.44,0 36.8,10.86 46.09,32.66 9.26,21.75 17.85,33.12 25.78,34.06 8.01,0 16.29,-3.24 24.85,-9.69 11.95,-9.06 17.97,-20.86 17.97,-35.31 z m -79.53,202.5 c 0,6.95 -1.8,12.97 -5.32,17.97 -3.43,5 -9.18,7.5 -17.18,7.5 -19.5,0 -34.5,-13.05 -45,-39.06 -10.55,-25.94 -15.79,-58.13 -15.79,-96.57 13.01,2.89 29.07,14.38 48.13,34.38 23.44,25 35.16,50.23 35.16,75.78 z" /><path
         id="path34"
         style="fill:#3c3821;fill-opacity:1;fill-rule:nonzero;stroke:none"
         d="m 3334.38,2535.04 c 0,-10.55 -3.76,-21.25 -11.26,-32.19 -10.54,-16.05 -16.79,-26.56 -18.74,-31.56 L 3230,2262.85 c -12.5,-35 -19.49,-54.02 -20.94,-57.03 -10.54,-18.01 -27.03,-27.03 -49.53,-27.03 -21.99,0 -36.21,4.53 -42.65,13.59 -3.56,5 -5.32,15.71 -5.32,32.19 0,10.51 -0.74,18.52 -2.18,24.06 l -67.5,240 c -1.06,3.44 -7.58,12.89 -19.54,28.44 -5.5,6.95 -8.28,13.48 -8.28,19.53 0,10 4.22,17.85 12.66,23.6 8.51,5.7 19.06,8.59 31.56,8.59 15,0 26.95,-4.77 35.94,-14.22 9.06,-9.49 16.09,-22.73 21.09,-39.69 l 54.07,-195.78 77.96,233.28 c 1.45,3.95 6.57,8.28 15.32,12.97 8.75,4.77 17.65,7.19 26.72,7.19 10.93,0 19.88,-1.72 26.87,-5.16 12.07,-6.05 18.13,-16.83 18.13,-32.34 z" /><path
         id="path36"
         style="fill:#3c3821;fill-opacity:1;fill-rule:nonzero;stroke:none"
         d="m 3631.48,2412.85 c 0,-14.06 -5.39,-27.73 -16.09,-40.94 -10.74,-13.24 -21.09,-19.84 -31.09,-19.84 -1.57,0 -4.5,0.7 -8.75,2.19 -4.18,1.56 -7.27,1.33 -9.22,-0.63 l -78.75,-66.09 c -4.06,-3.44 -7.62,-5.94 -10.63,-7.5 -10,-5 -22.73,-7.5 -38.12,-7.5 -6.06,0.51 -10.86,1.48 -14.38,2.97 -21.48,9.06 -32.18,29.84 -32.18,62.34 0,13.44 4.72,24.14 14.21,32.19 4.46,3.51 7.97,5.31 10.47,5.31 20,0 37.5,8.2 52.5,24.69 5,2.5 9.26,6.09 12.82,10.78 3.51,4.77 7.26,9.92 11.25,15.47 l -66.72,57.03 c -7,0.51 -12.27,1.48 -15.78,2.97 -11.06,5 -16.57,13.75 -16.57,26.25 0,15 6.02,30.98 18.13,47.97 13.94,20 29.14,30 45.62,30 13.01,0 21.76,-5.74 26.25,-17.19 1.57,-3.55 2.58,-9.53 3.13,-17.97 l 90,-85.47 c 3.44,-3.55 7.89,-5.58 13.44,-6.09 5.5,-0.55 11.01,-1.02 16.56,-1.41 5.39,-4.61 9.37,-8.59 11.87,-12.03 8.01,-11.05 12.03,-23.55 12.03,-37.5 z" /><path
         id="path38"
         style="fill:#7510f7;fill-opacity:1;fill-rule:nonzero;stroke:none"
         d="m 545.27,2067.11 c -79.61,176.01 -122.258,276.44 -127.969,301.25 l -12.653,-5.94 c -3.558,-127.81 -5.937,-224.65 -7.187,-290.47 l -161.871,-68.9 c 19.449,350.62 26.32,598.36 20.621,743.28 74.687,36.13 160.699,61.48 258.129,76.09 73,10.94 120,-7.97 140.93,-56.72 6.449,-14.92 11.41,-33.86 14.851,-56.87 3.43,-22.93 2.379,-48.44 -3.133,-76.56 -5.429,-28.05 -14.367,-55.55 -26.867,-82.5 -26.57,-54.38 -62.5,-98.44 -107.82,-132.19 34.89,-52.81 66.41,-102.89 94.539,-150.16 28.121,-47.3 51.871,-87.11 71.25,-119.37 z m -79.372,600.78 -44.687,-7.66 -8.59,-170.31 c 26.559,6.76 58.117,29.1 94.68,67.03 37.699,38.83 55,68.75 51.879,89.69 -3.051,19.57 -23.36,27.97 -60.942,25.16 -10.738,-1.06 -21.519,-2.35 -32.34,-3.91 z m 517.582,-9.69 c 1.442,14.07 1.008,28.52 -1.25,43.44 -2.191,14.88 -7.742,26.33 -16.57,34.38 -8.75,8 -17.34,11.32 -25.781,10 -8.43,-1.25 -16.481,-4.54 -24.059,-9.85 -7.5,-5.23 -14.769,-11.79 -21.718,-19.69 -16.68,-18.43 -23.672,-36.64 -20.942,-54.53 2.699,-17.93 9.61,-31.72 20.789,-41.4 11.129,-9.69 24.289,-18.28 39.531,-25.78 15.309,-7.43 31.79,-14.97 49.532,-22.66 17.688,-7.73 34.838,-18.28 51.398,-31.72 38.01,-32.93 61.72,-80.86 71.1,-143.75 11.33,-75.74 -6.99,-142.46 -55,-200.16 -45.63,-55.23 -108.709,-88.82 -189.221,-100.78 -59.379,-8.98 -118.398,13.99 -177.027,68.91 l 54.367,162.5 c 12.269,-17.42 33.133,-31.88 62.5,-43.44 29.57,-12.19 51.101,-17.3 64.531,-15.31 13.52,2.07 24.61,5.16 33.289,9.22 8.75,4.14 16.403,9.41 22.961,15.78 15.078,14.76 21.328,30.78 18.75,47.97 -2.609,17.26 -10.39,32.22 -23.281,44.84 -12.93,12.58 -28.277,24.1 -46.09,34.53 -17.738,10.39 -36.879,20.82 -57.5,31.25 -20.551,10.39 -39.687,21.88 -57.5,34.38 -42.809,28.2 -67.027,60.86 -72.66,97.97 -5.508,37.18 0,72.89 16.57,107.18 16.641,34.38 39.289,65.24 67.961,92.66 28.75,27.5 61.25,50.66 97.5,69.53 36.25,18.95 67.539,30.39 93.91,34.38 26.328,3.94 48.16,4.76 65.47,2.5 17.26,-2.31 32.73,-7.27 46.41,-14.85 29.57,-17.73 47.5,-47.5 53.75,-89.37 1.56,-10.12 2.18,-20.08 1.87,-29.85 -0.31,-9.68 -0.31,-20.43 0,-32.18 z" /></g></g></svg>