<?xml version="1.0" encoding="UTF-8" standalone="no"?>
<svg
   xmlns:dc="http://purl.org/dc/elements/1.1/"
   xmlns:cc="http://creativecommons.org/ns#"
   xmlns:rdf="http://www.w3.org/1999/02/22-rdf-syntax-ns#"
   xmlns:svg="http://www.w3.org/2000/svg"
   xmlns="http://www.w3.org/2000/svg"
   viewBox="0 0 493.33334 349.33334"
   height="349.33334"
   width="493.33334"
   xml:space="preserve"
   id="svg2"
   version="1.1"><metadata
     id="metadata8"><rdf:RDF><cc:Work
         rdf:about=""><dc:format>image/svg+xml</dc:format><dc:type
           rdf:resource="http://purl.org/dc/dcmitype/StillImage" /></cc:Work></rdf:RDF></metadata><defs
     id="defs6" /><g
     transform="matrix(1.3333333,0,0,-1.3333333,0,349.33333)"
     id="g10"><g
       transform="scale(0.1)"
       id="g12"><path
         id="path14"
         style="fill:#730ff5;fill-opacity:1;fill-rule:evenodd;stroke:none"
         d="m 1375.12,1389.92 c -0.43,-2.81 -3.21,-20.66 -8.48,-53.44 -5.27,-32.73 -10.51,-62.3 -15.78,-88.59 -13.4,1.64 -13.4,21.49 0,59.49 1.6,2.85 4.65,20.43 9.1,52.78 4.45,32.38 1.41,63.16 -9.1,92.26 -0.82,4.03 -8.13,10.35 -21.88,18.83 -13.75,0.82 -13.75,9.3 0,25.47 4.89,-3.6 15.79,5.51 32.78,27.3 2.46,-0.39 4.69,17.66 6.68,54.07 0.43,2.77 0.62,18.79 0.62,47.93 0.43,29.1 0.2,54.6 -0.62,76.48 -4.03,9.3 0.43,26.25 13.36,50.98 1.64,-5.28 5.66,-29.53 12.15,-72.86 0.82,-4.88 0.62,-38.43 -0.63,-100.74 -0.78,-61.91 -6.87,-125.23 -18.2,-189.96 m 283.47,1006.88 c -11.36,79.68 -11.79,136.56 -1.25,170.54 10.51,33.95 17.23,50.55 20,49.73 -12.14,2.85 -26.87,-5.43 -44.29,-24.88 -17.39,-19.38 -27.11,-30.71 -29.1,-33.95 -32.39,-6.48 -75.86,-20.66 -130.47,-42.5 -55.08,-22.26 -85.59,-34.76 -91.68,-37.62 -35.2,-12.96 -53.01,-18.04 -53.44,-15.19 -29.53,-4.84 -41.68,-9.88 -36.41,-15.16 -29.92,-37.22 -41.44,-62.93 -34.57,-77.11 -11.33,-47.3 -31.36,-112.46 -60.08,-195.39 -28.71,-82.97 -44.92,-128.86 -48.55,-137.77 -26.29,-89.02 -39.06,-167.3 -38.24,-234.84 0.82,-67.19 2.22,-102.62 4.26,-106.21 -4.89,-26.76 -11.33,-41.92 -19.46,-45.55 -18.98,-38.05 -24.65,-63.17 -16.95,-75.28 5.62,-38.39 10.9,-77.5 15.78,-117.1 4.41,-40.08 6.88,-61.72 7.27,-64.97 6.05,-50.19 10.31,-78.28 12.73,-84.37 9.3,-29.92 15.82,-50.55 19.45,-61.88 -2.03,-0.42 -6.48,-10.31 -13.36,-29.76 -7.3,-19.42 -4.29,-43.48 9.11,-72.23 16.17,-46.13 23.28,-75.66 21.25,-88.59 -0.43,-33.17 1.79,-48.95 6.68,-47.34 14.1,-27.931 27.5,-58.29 40.03,-91.021 12.97,-33.199 19.85,-51.168 20.63,-54.019 12.54,-31.57 19.84,-43.91 21.87,-37.039 33.13,50.98 55,80.937 65.55,89.808 -7.69,-19.808 -14.76,-43.668 -21.25,-71.597 -6.52,-28.282 -9.92,-43.91 -10.35,-46.762 -10.47,-54.609 -16.17,-82.109 -16.95,-82.5 -0.82,-23.48 1.79,-29.141 7.85,-16.988 24.3,34.758 41.09,55.039 50.39,60.66 56.25,45.699 103.01,93.707 140.23,143.867 37.19,50.551 56.61,77.852 58.21,81.91 13.79,24.691 31.17,58.281 52.22,100.781 20.63,42.07 31.96,65.51 33.99,70.36 20.62,42.11 36.4,82.38 47.3,120.82 10.98,38.39 16.41,59.02 16.41,61.87 19.84,128.67 28.94,274.53 27.3,437.58 -2.03,162.66 -7.65,305.08 -16.95,427.27 -8.91,122.18 -13.98,186.36 -15.16,192.42" /><path
         id="path16"
         style="fill:#730ff5;fill-opacity:1;fill-rule:evenodd;stroke:none"
         d="m 2323.16,1216.95 c 1.18,8.52 -12.38,52.43 -40.7,131.68 -2.03,0.43 -9.3,15.35 -21.87,44.92 -12.93,29.97 -18.56,71.65 -16.96,125 1.17,2.07 6.25,16.61 15.16,43.75 8.94,27.11 15.19,54.81 18.83,83.09 0.39,2.07 1.79,15.2 4.22,39.45 2.42,24.3 4.64,47.19 6.68,68.64 11.71,-13.75 20.27,-44.73 25.5,-92.89 -1.21,-3.6 -2.03,-21.45 -2.46,-53.4 -0.35,-32.39 6.1,-58.09 19.46,-77.11 -1.25,-2.78 -3.48,-24.26 -6.68,-64.3 -2.86,-40.47 -0.63,-82.97 6.68,-127.42 4.02,0.78 4.02,-11.56 0,-37.03 -10.51,-4.1 -9.3,-24.92 3.63,-62.54 1.21,-1.64 -2.62,-8.87 -11.49,-21.84 m 248.83,188.17 c 17.39,44.88 22.62,66.95 15.74,66.13 -12.96,46.52 -21.64,72.42 -26.09,77.66 5.27,6.09 2.42,61.75 -8.48,166.91 -10.97,72.03 -19.45,145.47 -25.5,220.35 -6.1,74.81 -9.11,115.31 -9.11,121.37 -5.27,93.05 -15.54,158.01 -30.97,194.76 -15.74,36.45 -24.65,53.83 -26.68,52.23 -25.08,39.65 -36.25,61.72 -33.4,66.13 -19.38,48.99 -33.75,67.19 -43.09,54.65 -27.5,14.57 -58.04,24.49 -91.6,29.77 -33.63,5.27 -52.03,7.65 -55.23,7.26 -28.36,24.26 -56.06,41.84 -83.17,52.82 -27.53,10.89 -42.3,16.17 -44.29,15.78 -39.26,71.17 -61.53,99.72 -66.76,85.54 12.93,-44.49 16.37,-91.25 10.27,-140.15 -6.05,-48.99 -10.08,-75.51 -12.15,-79.53 -18.55,-74.07 -39.45,-169.77 -62.46,-287.11 -22.69,-117.31 -35,-182.27 -37.03,-194.77 -9.29,-65.15 -18.24,-128.67 -26.72,-190.62 -8.08,-61.49 -12.54,-94.46 -13.36,-98.91 -4.41,-56.21 -1.17,-118.94 9.73,-188.12 10.94,-68.79 17.38,-106.41 19.41,-112.89 40.47,-145.67 66.61,-224.97 78.29,-237.9 47.77,-93.902 97.93,-161.05 150.5,-201.519 53.01,-40.43 81.76,-60.082 86.21,-58.871 28.29,-16.559 57.86,-36.012 88.6,-58.238 30.74,-21.872 47.34,-33.981 49.76,-36.403 27.54,-8.91 43.09,-6.097 46.76,8.473 -0.43,1.988 -1.25,13.129 -2.42,33.398 -1.25,20.2 0.78,37.809 6.05,52.77 7.7,27.539 9.3,41.922 4.85,43.09 27.5,85.781 46.13,133.52 55.86,143.24 18.59,48.56 30.7,94.26 36.4,137.15 5.28,43.32 7.5,66.37 6.68,69.18 14.96,76.87 24.65,115.16 29.11,114.73 8.51,39.61 9.92,63.51 4.29,71.64" /><path
         id="path18"
         style="fill:#3a351e;fill-opacity:1;fill-rule:evenodd;stroke:none"
         d="m 1867.34,1008.16 -77.69,-80.109 -64.3,86.789 c 0,10.16 0.55,95.12 1.8,254.89 1.21,159.84 4.02,334.84 8.47,525 4.46,190.15 11.14,335.82 20.04,436.95 0,3.67 2,22.89 6.1,57.66 4.41,34.8 11.72,64.96 21.79,90.43 -8.86,4.45 -19.17,32.18 -30.89,83.16 l 32.14,35.82 c 7.66,4.45 29.11,3.63 64.34,-2.42 l 33.98,-55.86 c -7.3,-0.39 -24.68,-21.02 -52.18,-61.88 3.2,-7.3 7.07,-32.77 11.52,-76.48 0.43,-14.18 3.2,-118.56 8.48,-313.16 5.27,-194.61 9.92,-394.89 13.98,-600.86 4.03,-205.94 4.85,-332.58 2.42,-379.93" /><path
         id="path20"
         style="fill:#3c3821;fill-opacity:1;fill-rule:nonzero;stroke:none"
         d="m 239.219,215.23 c 0,-26.992 -7.77,-46.011 -23.278,-57.031 -5,-3.429 -12.742,-6.168 -23.132,-8.117 -12.5,0 -22.297,1.09 -29.368,3.277 -6.992,2.262 -13.441,6.172 -19.382,11.723 L 65.3086,231.02 c -2.1094,1.441 -5.2695,1.562 -9.5273,0.312 -4.1797,-1.25 -7.0313,-1.883 -8.5899,-1.883 -9.4922,0 -19.7695,6.602 -30.7812,19.852 C 5.46875,262.621 0,276.25 0,290.23 c 0,13.52 3.98047,25.79 12.0313,36.719 2.5,3.52 6.4882,7.821 12.0273,12.821 5,0 10.082,0.23 15.3203,0.781 5.1914,0.5 10.0703,2.73 14.6797,6.719 l 90.0004,85.46 c 0,8.008 0.711,13.79 2.191,17.352 4.449,11.949 13.48,17.969 27.031,17.969 15.938,0 30.938,-9.77 45,-29.219 12.5,-17.5 18.75,-33.75 18.75,-48.75 0,-12.113 -5.269,-20.633 -15.781,-25.633 -3.551,-1.48 -9.059,-2.73 -16.559,-3.75 l -66.722,-56.867 c 2.5,-3.051 5.703,-7.582 9.691,-13.602 4.059,-5.929 8.82,-10.148 14.371,-12.648 15,-16.562 32.5,-24.852 52.5,-24.852 3.949,0 9.059,-3.511 15.309,-10.46 6.25,-7 9.379,-16.02 9.379,-27.04 z" /><path
         id="path22"
         style="fill:#3c3821;fill-opacity:1;fill-rule:nonzero;stroke:none"
         d="m 1729.45,586.48 c 0,-9.492 -4.02,-21.011 -12.03,-34.531 -1.05,-1.988 -3.28,-4.961 -6.72,-8.898 L 1610.23,203.98 c 2.5,-6.48 3.75,-16.48 3.75,-30 0,-10.929 -0.62,-21.32 -1.87,-31.089 -1.25,-9.801 -2.66,-18.672 -4.22,-26.559 -2.5,-5 -4.77,-8.75 -6.72,-11.25 -14.49,-17.5 -35.74,-26.25 -63.75,-26.25 -21.05,0 -39.61,5.8164 -55.62,17.5 -15.94,11.758 -23.91,27.188 -23.91,46.25 0,7.5 1.25,17.066 3.75,28.75 2.5,11.758 3.75,18.898 3.75,21.398 0,6.961 -1.72,13.211 -5.16,18.75 l -55.62,198.75 -67.5,-233.898 c 3.51,-7.5 6.01,-13.562 7.5,-18.133 5.51,-15 8.28,-26.48 8.28,-34.367 0,-22.5 -5.27,-41.25 -15.78,-56.25 -11.99,-17.0703 -29.49,-25.6328 -52.5,-25.6328 -25,0 -41.99,12.5 -50.94,37.5 -2.5,8.0117 -4.49,20.5117 -5.94,37.4998 l -94.53,408.133 c -3.04,5.387 -5.27,9.609 -6.72,12.648 -4.6,10 -6.87,18.29 -6.87,24.852 0,9.449 5.7,18.438 17.19,26.867 11.56,8.52 24.1,12.821 37.65,12.821 21.45,0 36.72,-5.75 45.78,-17.192 6.96,-9.058 10.47,-20.59 10.47,-34.527 0,-4.5 -0.27,-8.52 -0.78,-12.031 -0.54,-3.559 -1.25,-6.801 -2.19,-9.688 l 46.41,-252.812 75.78,274.531 c -1.05,2.5 -1.56,4.219 -1.56,5.148 -2.5,9.071 -3.75,15.821 -3.75,20.321 1.56,11.949 7.97,20.539 19.22,25.781 11.25,5.308 24.37,7.969 39.37,7.969 14.46,0 27.19,-3.68 38.13,-10.942 11.01,-7.187 18.05,-17.578 21.09,-31.098 0.51,-1.992 0.78,-4.96 0.78,-8.898 0,-5 -0.54,-9.812 -1.56,-14.383 -0.94,-4.488 -1.95,-8.711 -2.97,-12.648 l 74.22,-255.781 79.53,268.429 c 0,2.5 0,4.531 0,6.102 -0.54,2.5 -0.78,5.23 -0.78,8.281 0,17.496 3.75,31.949 11.25,43.438 11.02,16.949 30.04,25.46 57.03,25.46 13.01,0 24.53,-3.902 34.53,-11.71 10,-7.739 15,-17.579 15,-29.54 z" /><path
         id="path24"
         style="fill:#3c3821;fill-opacity:1;fill-rule:nonzero;stroke:none"
         d="m 2006.33,556.48 c 0,-7.5 -3.52,-14.14 -10.47,-19.839 -6.99,-5.743 -17.97,-8.59 -32.97,-8.59 -3.98,0 -8.87,0 -14.69,0 -5.74,0 -9.61,0.469 -11.56,1.398 -5,0 -16.87,-3.75 -35.62,-11.25 -18.75,-7.5 -34.14,-15.469 -46.1,-23.898 0,-14.5 -0.43,-31.25 -1.25,-50.321 -0.74,-18.98 -1.33,-39.679 -1.72,-62.179 0,-17.5 0.98,-32.031 2.97,-43.602 5.94,1.571 12.19,3.321 18.75,5.321 8.44,8.941 18.17,13.429 29.22,13.429 9.45,0 22.81,-5.539 40,-16.558 17.27,-10.942 25.94,-21.411 25.94,-31.411 0,-16.992 -3.52,-28.511 -10.47,-34.531 -6.99,-5.929 -16.48,-8.898 -28.44,-8.898 l -31.56,1.398 c -5,0 -12.77,-2.5 -23.28,-7.5 -5,-2.5 -11.72,-6.008 -20.16,-10.469 0,-5.929 -0.15,-12.031 -0.47,-18.281 -0.23,-6.25 -0.31,-12.648 -0.31,-19.219 0,-16.992 1.48,-29.761 4.53,-38.281 8.44,2.071 17.38,4.571 26.88,7.5 9.57,3.012 16.09,5.781 19.53,8.281 2.5,3.008 4.76,5.239 6.87,6.719 6.96,5 14.22,7.5 21.72,7.5 10.94,0 23.28,-6.359 37.03,-19.058 13.75,-12.731 20.63,-26.371 20.63,-40.942 0,-8.98 -1.72,-15.699 -5.16,-20.148 -5.55,-7 -15.27,-10.469 -29.22,-10.469 -20.54,0 -41.33,-6.062 -62.34,-18.1328 -20.94,-11.9883 -41.68,-24.2187 -62.19,-36.7187 -16.56,2.5 -30.58,8.5586 -42.03,18.1289 -11.48,9.4492 -21.72,24.4106 -30.78,44.8396 -0.94,2.071 -0.59,5.199 1.09,9.383 1.76,4.258 3.64,8.438 5.63,12.5 0,37.5 -0.12,81.25 -0.31,131.25 -0.24,50 -0.47,99.719 -0.79,149.219 -0.23,49.449 -0.31,92.687 -0.31,129.679 -3.55,5.508 -5.31,10.04 -5.31,13.602 0,7.887 4.73,14.098 14.22,18.59 9.57,4.566 19.84,7.348 30.78,8.277 6.95,0 18.2,-4.219 33.75,-12.648 18.01,5.5 42.54,13.75 73.59,24.679 23.44,8.52 38.44,12.821 45,12.821 10,0 20,-4.77 30,-14.223 12.89,-12.109 19.38,-27.887 19.38,-47.348 z" /><path
         id="path26"
         style="fill:#3c3821;fill-opacity:1;fill-rule:nonzero;stroke:none"
         d="m 2322.93,311.332 c 0,-29.613 -13.52,-62.891 -40.47,-99.852 -16.48,-22.5 -46.72,-56.25 -90.78,-101.25 -8.05,-13.0386 -15.78,-26.0112 -23.28,-38.898 -9.49,-13.0117 -20.74,-19.5312 -33.75,-19.5312 -15,0 -32.74,7.2578 -53.13,21.7187 -23.04,16.4414 -34.53,33.1995 -34.53,50.3125 0,5.387 0.71,9.367 2.19,11.867 1.56,2.5 5.55,7.031 12.03,13.602 -0.55,6.437 -2.19,36.558 -5,90.308 -2.73,53.75 -5.78,118.36 -9.22,193.911 -1.56,30.5 -3.08,61.25 -4.53,92.179 -3.05,5.512 -5.27,10.039 -6.72,13.602 -4.49,10.929 -6.72,20.39 -6.72,28.429 0,6.02 0.98,10.79 2.97,14.219 5.94,10.512 15.67,17.27 29.22,20.321 11.45,3 26.45,-2.27 45,-15.79 3.01,-1.992 7.03,-5.46 12.03,-10.46 18.44,5 32.66,8.75 42.66,11.25 32.07,8 52.58,12.031 61.56,12.031 23.52,0 41.02,-6.531 52.5,-19.531 11.45,-13.051 17.19,-29.809 17.19,-50.321 0,-27.929 -12.27,-60.429 -36.72,-97.5 -8.05,-11.988 -20.55,-27.73 -37.5,-47.179 23.52,-5 41.02,-9.77 52.5,-14.219 35,-14.5 52.5,-34.219 52.5,-59.219 z m -126.72,195.617 c 0,6.571 -1.99,9.852 -5.94,9.852 -10,0 -24.02,-4.531 -42.03,-13.602 -6.05,-2.929 -14.33,-7.648 -24.84,-14.219 l 3.12,-81.71 c 15.39,15 26.88,26.949 34.38,35.929 23.51,27.5 35.31,48.75 35.31,63.75 z m 34.53,-215.148 c 0,11.949 -8.04,17.969 -24.06,17.969 -10.55,0 -25.55,-4.77 -45,-14.219 -6.48,-3.051 -15.47,-8.051 -27.03,-15 l 2.34,-99.071 c 20.94,16.571 36.41,29.852 46.41,39.852 31.56,30.387 47.34,53.898 47.34,70.469 z" /><path
         id="path28"
         style="fill:#3c3821;fill-opacity:1;fill-rule:nonzero;stroke:none"
         d="m 2797.19,95.2305 c 0,-20 -17.03,-30 -51.1,-30 -11.99,0 -20.23,0.789 -24.68,2.3515 -8.56,2.9297 -12.82,9.3672 -12.82,19.3672 -0.54,2.0703 0.47,7.5821 2.97,16.5708 0.51,2.5 1.76,6.75 3.75,12.812 -8.43,-14.062 -18.28,-24.8515 -29.53,-32.3515 -11.25,-7.5 -24.92,-11.25 -40.94,-11.25 -30.93,0 -55.15,15.7109 -72.65,47.1915 -17.5,31.558 -26.25,77.848 -26.25,138.91 0.39,10.387 0.62,16.129 0.62,17.188 0,35.5 9.77,71.011 29.38,106.562 22.89,41.949 49.88,62.969 80.94,62.969 8.94,0 17.69,-2.93 26.24,-8.75 8.52,-5.75 18.29,-16.84 29.22,-33.281 v 84.062 c 1.02,4.449 -0.23,9.918 -3.75,16.398 -8.98,17.5 -13.43,29.258 -13.43,35.321 0,10 5.07,19.371 15.31,28.121 10.31,8.75 21.72,13.129 34.22,13.129 12.5,0 22.97,-2.313 31.4,-6.879 8.52,-4.492 14.53,-12.461 17.97,-23.902 0.51,-2 0.78,-5.239 0.78,-9.688 0,-10 -1.52,-20 -4.53,-30 -0.43,-1.562 -1.4,-3.871 -2.97,-6.883 l 0.78,-383.898 c 1.96,-3.563 3.48,-6.332 4.54,-8.281 3,-6.489 4.53,-11.7192 4.53,-15.7895 z M 2704.84,257.27 c 0,25 -4.14,50.351 -12.34,76.089 -8.24,25.7 -17.11,38.59 -26.56,38.59 -12.5,0 -21.53,-13.98 -27.03,-41.867 -3.56,-18.051 -5.32,-41.562 -5.32,-70.633 0,-7.5 0,-12.5 0,-15 0,-1.48 0,-3.429 0,-5.929 -0.54,-3.989 -1.05,-9.61 -1.56,-16.879 -0.43,-7.301 -0.62,-12.661 -0.62,-16.09 0,-26.063 3.12,-44.071 9.37,-54.071 6.25,-10 14.61,-15 25.16,-15 9.45,0 18.32,12.969 26.56,38.911 8.2,26.019 12.34,53.32 12.34,81.879 z" /><path
         id="path30"
         style="fill:#3c3821;fill-opacity:1;fill-rule:nonzero;stroke:none"
         d="m 3070.82,151.48 c 0,-20 -12.42,-39.371 -37.19,-58.1206 -24.68,-18.75 -52.58,-28.1289 -83.59,-28.1289 -40.55,0 -70.55,17.2304 -90,51.7185 -16.99,30 -25.47,71.492 -25.47,124.531 0,68.008 13.2,120.79 39.69,158.29 24.57,34.449 56.33,51.71 95.31,51.71 23.95,0 43.67,-7.5 59.22,-22.5 17.5,-16.992 26.25,-41.48 26.25,-73.429 0,-33.051 -11.99,-65.551 -35.94,-97.5 -26.99,-36.063 -62.26,-62.031 -105.78,-77.969 0.51,-11.062 1.76,-19.344 3.75,-24.852 6.45,-16.992 19.45,-25.46 39.06,-25.46 21.45,0 36.8,10.851 46.1,32.652 9.25,21.758 17.85,33.129 25.78,34.058 8.01,0 16.29,-3.242 24.84,-9.679 11.95,-9.071 17.97,-20.86 17.97,-35.321 z m -79.53,202.5 c 0,6.961 -1.8,12.969 -5.31,17.969 -3.44,5 -9.18,7.5 -17.19,7.5 -19.49,0 -34.49,-13.039 -45,-39.058 -10.55,-25.942 -15.78,-58.121 -15.78,-96.559 13.01,2.887 29.06,14.367 48.12,34.367 23.44,25 35.16,50.242 35.16,75.781 z" /><path
         id="path32"
         style="fill:#3c3821;fill-opacity:1;fill-rule:nonzero;stroke:none"
         d="m 3398.83,413.98 c 0,-10.539 -3.75,-21.25 -11.25,-32.179 -10.55,-16.063 -16.8,-26.571 -18.75,-31.571 l -74.38,-208.429 c -12.5,-35 -19.49,-54.0315 -20.93,-57.0315 -10.55,-18.0078 -27.04,-27.039 -49.54,-27.039 -21.99,0 -36.21,4.539 -42.65,13.6015 -3.56,5 -5.31,15.6993 -5.31,32.188 0,10.5 -0.75,18.511 -2.19,24.062 l -67.5,240 c -1.06,3.438 -7.58,12.887 -19.53,28.438 -5.51,6.949 -8.28,13.468 -8.28,19.531 0,10 4.21,17.847 12.65,23.59 8.52,5.699 19.06,8.589 31.56,8.589 15,0 26.96,-4.761 35.94,-14.21 9.06,-9.5 16.1,-22.739 21.1,-39.688 l 54.06,-195.781 77.97,233.281 c 1.44,3.938 6.56,8.277 15.31,12.969 8.75,4.758 17.66,7.179 26.72,7.179 10.94,0 19.88,-1.71 26.87,-5.148 12.07,-6.062 18.13,-16.844 18.13,-32.352 z" /><path
         id="path34"
         style="fill:#3c3821;fill-opacity:1;fill-rule:nonzero;stroke:none"
         d="m 3695.94,291.801 c 0,-14.071 -5.39,-27.742 -16.1,-40.942 -10.74,-13.238 -21.09,-19.839 -31.09,-19.839 -1.56,0 -4.49,0.699 -8.75,2.179 -4.18,1.571 -7.27,1.332 -9.22,-0.617 l -78.75,-66.102 c -4.06,-3.429 -7.62,-5.929 -10.62,-7.5 -10,-5 -22.74,-7.5 -38.13,-7.5 -6.05,0.508 -10.86,1.489 -14.37,2.969 -21.49,9.071 -32.19,29.852 -32.19,62.352 0,13.429 4.73,24.14 14.22,32.179 4.45,3.52 7.97,5.321 10.47,5.321 20,0 37.5,8.199 52.5,24.679 5,2.5 9.25,6.102 12.81,10.79 3.51,4.761 7.26,9.921 11.25,15.46 l -66.72,57.04 c -6.99,0.5 -12.27,1.48 -15.78,2.96 -11.06,5 -16.56,13.75 -16.56,26.25 0,15 6.01,30.981 18.12,47.969 13.95,20 29.14,30 45.63,30 13,0 21.75,-5.738 26.25,-17.179 1.56,-3.559 2.57,-9.54 3.12,-17.969 l 90,-85.469 c 3.44,-3.562 7.89,-5.594 13.44,-6.102 5.51,-0.539 11.01,-1.011 16.56,-1.398 5.39,-4.613 9.38,-8.602 11.88,-12.031 8,-11.063 12.03,-23.563 12.03,-37.5 z" /><path
         id="path36"
         style="fill:#7510f7;fill-opacity:1;fill-rule:nonzero;stroke:none"
         d="M 551.41,43.3203 C 488.672,214.449 455.512,311.801 451.879,335.352 l -12.348,-4.84 C 427.23,210.82 418.199,120.039 412.5,58.1602 L 255.469,4.73047 C 298.051,332.93 321.762,565.512 326.559,702.379 c 72.703,28.519 155.32,46.293 247.82,53.281 69.449,5.199 112.422,-15.859 128.902,-63.121 4.879,-14.379 8.168,-32.5 9.84,-54.379 1.649,-21.871 -1.09,-45.859 -8.281,-71.871 -7.11,-26.059 -17.418,-51.207 -30.93,-75.469 -28.75,-49.488 -65.629,-88.441 -110.629,-116.871 29.059,-52.187 55.16,-101.527 78.278,-147.969 23.211,-46.371 42.851,-85.39 58.91,-117.031 z m -33.289,570.4687 -42.34,-4.219 -20,-159.531 c 25.391,4.57 56.641,23.441 93.75,56.563 38.199,33.949 56.559,60.82 55,80.628 -1.371,18.75 -19.84,28.04 -55.472,27.969 -10.309,-0.238 -20.618,-0.711 -30.938,-1.41 z m 486.219,-44.957 c 2.18,13.117 2.73,26.719 1.71,40.777 -1.05,14.141 -5.43,25.313 -13.12,33.442 -7.731,8.121 -15.629,11.871 -23.75,11.25 -8.051,-0.629 -15.739,-3.129 -23.129,-7.5 -7.301,-4.379 -14.602,-10.082 -21.871,-17.031 -16.989,-16.18 -24.84,-32.782 -23.59,-49.848 1.32,-16.992 6.91,-30.434 16.711,-40.313 9.89,-9.918 21.719,-18.91 35.469,-27.027 13.832,-8.051 28.832,-16.25 45,-24.691 16.14,-8.442 31.49,-19.61 46.1,-33.442 33.51,-33.668 52.54,-80.39 57.03,-140.148 5.39,-72 -16.41,-133.403 -65.47,-184.219 C 988.551,81.332 926.879,54.0586 850.43,48.3594 793.75,44.0586 739.801,69.6914 688.551,125.23 l 62.5,149.379 c 10.32,-17.418 28.828,-32.5 55.629,-45.308 26.949,-13.563 46.871,-19.852 59.691,-18.91 12.809,1.019 23.469,3.129 32.027,6.25 8.512,3.199 16.09,7.699 22.653,13.441 15.32,12.809 22.347,27.379 21.097,43.75 -1.25,16.438 -7.5,31.008 -18.75,43.75 -11.25,12.688 -24.957,24.566 -41.097,35.617 -16.051,11.02 -33.391,22.192 -52.031,33.442 -18.551,11.25 -35.739,23.32 -51.559,36.25 -38.359,29.449 -58.871,61.879 -61.563,97.191 -2.617,35.309 5.082,68.469 23.122,99.527 18.011,31.129 41.449,58.629 70.32,82.5 28.941,23.832 61.09,43.36 96.398,58.59 35.391,15.199 65.633,23.75 90.633,25.629 25.079,1.871 45.699,1.133 61.869,-2.187 16.13,-3.243 30.24,-8.981 42.35,-17.192 26.64,-18.668 41.48,-47.929 44.53,-87.808 0.7,-9.61 0.62,-18.981 -0.32,-28.121 -0.93,-9.071 -1.67,-19.141 -2.18,-30.161 z" /><path
         id="path38"
         style="fill:#7510f7;fill-opacity:1;fill-rule:nonzero;stroke:none"
         d="m 2381.45,101.602 c -9.69,0 -17.62,1.558 -23.75,4.687 -6.06,3.051 -11.02,6.871 -14.85,11.563 -8.32,10.308 -12.5,22.269 -12.5,35.937 0,23.199 10.2,39.691 30.63,49.371 6.87,3.211 14.92,4.852 24.22,4.852 21.44,0 37.42,-5 47.96,-15 10.63,-10 15.94,-21.492 15.94,-34.383 0,-15.43 -5.9,-28.508 -17.65,-39.219 -13.25,-11.871 -29.93,-17.808 -50,-17.808 z" /></g></g></svg>