<?xml version="1.0" encoding="UTF-8" standalone="no"?>
<svg
   xmlns:dc="http://purl.org/dc/elements/1.1/"
   xmlns:cc="http://creativecommons.org/ns#"
   xmlns:rdf="http://www.w3.org/1999/02/22-rdf-syntax-ns#"
   xmlns:svg="http://www.w3.org/2000/svg"
   xmlns="http://www.w3.org/2000/svg"
   viewBox="0 0 445.33334 342.66666"
   height="342.66666"
   width="445.33334"
   xml:space="preserve"
   id="svg2"
   version="1.1"><metadata
     id="metadata8"><rdf:RDF><cc:Work
         rdf:about=""><dc:format>image/svg+xml</dc:format><dc:type
           rdf:resource="http://purl.org/dc/dcmitype/StillImage" /></cc:Work></rdf:RDF></metadata><defs
     id="defs6" /><g
     transform="matrix(1.3333333,0,0,-1.3333333,0,342.66667)"
     id="g10"><g
       transform="scale(0.1)"
       id="g12"><path
         id="path14"
         style="fill:#730ff5;fill-opacity:1;fill-rule:evenodd;stroke:none"
         d="m 1167.77,1269.26 c -0.47,-3.01 -3.39,-21.84 -8.98,-56.49 -5.55,-34.65 -11.13,-65.89 -16.68,-93.71 -14.14,1.76 -14.14,22.7 0,62.93 1.68,3.01 4.88,21.6 9.61,55.78 4.73,34.26 1.52,66.8 -9.61,97.58 -0.86,4.26 -8.59,10.94 -23.13,19.92 -14.53,0.86 -14.53,9.81 0,26.92 5.16,-3.83 16.68,5.82 34.65,28.86 2.62,-0.39 4.96,18.68 7.07,57.19 0.43,2.93 0.67,19.85 0.67,50.67 0.43,30.78 0.19,57.77 -0.67,80.89 -4.25,9.81 0.43,27.78 14.14,53.87 1.68,-5.55 5.98,-31.21 12.82,-76.99 0.86,-5.16 0.66,-40.66 -0.63,-106.56 -0.86,-65.47 -7.26,-132.42 -19.26,-200.86 m 299.73,1064.72 c -11.99,84.26 -12.42,144.38 -1.29,180.36 11.13,35.89 18.2,53.43 21.13,52.57 -12.81,3.01 -28.43,-5.74 -46.83,-26.32 -18.4,-20.51 -28.67,-32.47 -30.78,-35.9 -34.22,-6.88 -80.2,-21.84 -137.97,-44.92 -58.21,-23.56 -90.51,-36.8 -96.92,-39.81 -37.26,-13.67 -56.05,-19.06 -56.52,-16.05 -31.21,-5.12 -44.06,-10.47 -38.48,-16.02 -31.64,-39.37 -43.82,-66.56 -36.56,-81.52 -11.99,-50.04 -33.2,-118.95 -63.51,-206.64 -30.391,-87.74 -47.54,-136.29 -51.372,-145.71 -27.808,-94.1 -41.289,-176.87 -40.468,-248.32 0.859,-71.05 2.379,-108.51 4.531,-112.34 -5.16,-28.28 -11.992,-44.3 -20.551,-48.13 -20.109,-40.27 -26.09,-66.79 -17.961,-79.61 5.973,-40.62 11.52,-81.91 16.711,-123.86 4.649,-42.35 7.27,-65.2 7.66,-68.67 6.41,-53.05 10.942,-82.78 13.481,-89.18 9.84,-31.64 16.719,-53.48 20.539,-65.47 -2.141,-0.43 -6.828,-10.9 -14.141,-31.49 -7.687,-20.5 -4.488,-45.97 9.653,-76.33 17.109,-48.78 24.609,-80.03 22.457,-93.71 -0.469,-35.07 1.921,-51.75 7.07,-50.031 14.922,-29.539 29.07,-61.649 42.391,-96.289 13.671,-35.078 20.93,-54.11 21.79,-57.11 13.24,-33.402 20.94,-46.41 23.13,-39.14 35.04,53.898 58.16,85.582 69.26,94.961 -8.09,-20.981 -15.59,-46.18 -22.47,-75.711 -6.83,-29.961 -10.46,-46.442 -10.89,-49.449 -11.1,-57.77 -17.11,-86.84 -17.97,-87.231 -0.86,-24.84 1.91,-30.859 8.32,-18 25.66,36.789 43.47,58.199 53.32,64.18 59.45,48.32 108.86,99.058 148.24,152.109 39.38,53.43 59.88,82.34 61.56,86.641 14.61,26.09 32.97,61.64 55.2,106.558 21.83,44.454 33.83,69.302 35.97,74.372 21.8,44.53 38.52,87.11 50.04,127.78 11.57,40.62 17.35,62.42 17.35,65.43 20.93,136.09 30.58,290.31 28.86,462.73 -2.14,171.99 -8.12,322.58 -17.93,451.8 -9.45,129.22 -14.8,197.03 -16.05,203.47" /><path
         id="path16"
         style="fill:#730ff5;fill-opacity:1;fill-rule:evenodd;stroke:none"
         d="m 2170.23,1086.37 c 1.25,8.98 -13.08,55.39 -43,139.22 -2.15,0.46 -9.85,16.25 -23.13,47.5 -13.67,31.68 -19.65,75.74 -17.93,132.22 1.25,2.15 6.6,17.54 16.06,46.21 9.41,28.68 16.01,57.97 19.88,87.89 0.39,2.15 1.91,16.06 4.45,41.72 2.58,25.67 4.92,49.89 7.07,72.54 12.39,-14.53 21.41,-47.26 26.99,-98.2 -1.32,-3.83 -2.14,-22.66 -2.61,-56.45 -0.39,-34.25 6.4,-61.44 20.54,-81.52 -1.28,-2.97 -3.63,-25.7 -7.07,-68.01 -3,-42.81 -0.62,-87.73 7.07,-134.76 4.26,0.86 4.26,-12.23 0,-39.18 -11.13,-4.3 -9.8,-26.29 3.87,-66.14 1.25,-1.68 -2.81,-9.37 -12.19,-23.04 m 263.13,198.94 c 18.4,47.5 23.94,70.82 16.68,69.96 -13.71,49.18 -22.89,76.57 -27.58,82.11 5.55,6.41 2.54,65.28 -8.98,176.49 -11.6,76.17 -20.55,153.83 -27,233.01 -6.4,79.1 -9.6,121.95 -9.6,128.35 -5.59,98.36 -16.45,167.07 -32.74,205.98 -16.64,38.52 -26.09,56.91 -28.24,55.2 -26.52,41.91 -38.32,65.27 -35.31,69.96 -20.51,51.75 -35.67,71.01 -45.55,57.73 -29.1,15.47 -61.37,25.94 -96.88,31.49 -35.54,5.58 -55,8.12 -58.43,7.69 -29.96,25.67 -59.26,44.26 -87.93,55.86 -29.07,11.52 -44.73,17.07 -46.84,16.68 -41.52,75.27 -65,105.43 -70.58,90.43 13.67,-47.03 17.3,-96.45 10.89,-148.2 -6.44,-51.8 -10.7,-79.81 -12.85,-84.07 -19.65,-78.32 -41.72,-179.49 -66.09,-303.59 -23.95,-124.06 -36.99,-192.73 -39.14,-205.98 -9.85,-68.9 -19.26,-136.09 -28.24,-201.56 -8.56,-65.04 -13.29,-99.88 -14.15,-104.57 -4.64,-59.49 -1.25,-125.82 10.28,-198.98 11.6,-72.74 18.4,-112.5 20.58,-119.38 42.74,-154.02 70.39,-237.85 82.78,-251.522 50.47,-99.296 103.51,-170.347 159.14,-213.089 56.05,-42.77 86.44,-63.547 91.13,-62.297 29.96,-17.5 61.17,-38.051 93.71,-61.563 32.5,-23.129 50.04,-35.937 52.62,-38.519 29.1,-9.41 45.55,-6.41 49.41,8.98 -0.43,2.11 -1.29,13.91 -2.54,35.32 -1.32,21.36 0.86,40 6.41,55.782 8.13,29.136 9.84,44.328 5.12,45.578 29.06,90.711 48.79,141.211 59.06,151.488 19.65,51.332 32.5,99.652 38.52,145.042 5.54,45.78 7.93,70.15 7.07,73.16 15.78,81.25 26.05,121.72 30.78,121.29 8.98,41.91 10.47,67.19 4.49,75.74" /><path
         id="path18"
         style="fill:#3a351e;fill-opacity:1;fill-rule:evenodd;stroke:none"
         d="m 1688.24,865.551 -82.15,-84.692 -68,91.762 c 0,10.738 0.62,100.578 1.91,269.569 1.29,168.98 4.26,354.06 8.98,555.11 4.69,201.1 11.76,355.16 21.22,462.08 0,3.86 2.1,24.17 6.4,60.97 4.65,36.8 12.38,68.71 23.05,95.63 -9.38,4.72 -20.27,34.02 -32.66,87.93 l 33.99,37.85 c 8.12,4.72 30.78,3.86 68.04,-2.54 l 35.94,-59.06 c -7.73,-0.39 -26.13,-22.23 -55.19,-65.43 3.39,-7.74 7.46,-34.65 12.18,-80.9 0.43,-14.96 3.4,-125.31 8.95,-331.13 5.58,-205.79 10.51,-417.58 14.8,-635.4 4.26,-217.73 5.12,-351.64 2.54,-401.749" /><path
         id="path20"
         style="fill:#ffffff;fill-opacity:1;fill-rule:nonzero;stroke:none"
         d="m 347.73,230.699 c 0,-39.289 -11.25,-66.867 -33.75,-82.808 -7.3,-5.121 -18.589,-9.141 -33.902,-12.032 -18.129,0 -32.308,1.602 -42.5,4.84 -10.117,3.321 -19.527,8.949 -28.277,16.883 L 94.7695,253.52 c -2.8203,2.179 -7.3476,2.339 -13.5976,0.46 -6.1719,-1.789 -10.3125,-2.648 -12.5,-2.648 -13.75,0 -28.6719,9.609 -44.6914,28.898 -15.92972,19.258 -23.902375,39.071 -23.902375,59.379 0,19.692 5.781255,37.5 17.343775,53.442 3.6289,5.07 9.457,11.289 17.5,18.59 7.2695,0 14.7265,0.347 22.3476,1.089 7.5703,0.711 14.6797,3.95 21.25,9.692 L 209.301,546.801 c 0,11.558 1.09,19.879 3.277,25 6.563,17.5 19.613,26.25 39.223,26.25 23.199,0 45.039,-14.18 65.469,-42.5 18.121,-25.551 27.179,-49.18 27.179,-70.942 0,-17.418 -7.648,-29.769 -22.969,-37.027 -5,-2.191 -12.96,-4.031 -23.902,-5.473 l -97.027,-82.808 c 3.629,-4.379 8.359,-10.942 14.219,-19.692 5.82,-8.668 12.691,-14.808 20.621,-18.437 21.879,-23.981 47.339,-35.942 76.41,-35.942 5.82,0 13.277,-5.109 22.34,-15.308 9.058,-10.231 13.589,-23.281 13.589,-39.223 z M 1010.27,90.082 c 0,-20.4336 -9.65,-37.1914 -28.899,-50.3125 -19.301,-13.0078 -42.742,-19.539 -70.32,-19.539 -26.172,0 -40.313,3.289 -42.5,9.8515 -5.11,16.0078 -11.672,27.2578 -19.68,33.75 -10.242,9.4493 -47.82,35.8164 -112.82,79.059 -65,43.199 -100.43,67.379 -106.25,72.5 l 10.937,-98.121 c 18.133,-21.0591 26.102,-40.7114 23.91,-58.9106 -5.117,-30.3906 -27.617,-45.6289 -67.5,-45.6289 -26.878,0 -51.058,7.4687 -72.5,22.3515 -21.488,14.8789 -32.187,32.8477 -32.187,53.8985 0,5.0781 2.699,11.2495 8.129,18.4415 5.5,7.269 11.129,14.918 16.871,22.969 L 490.27,667.73 c 0,10.2 -2.571,21.098 -7.649,32.661 -5.121,11.64 -10.59,23.668 -16.41,36.089 0,18.129 10.199,31.918 30.629,41.411 14.449,6.449 36.949,11.129 67.5,14.058 9.449,0 20,-3.277 31.558,-9.84 11.641,-6.488 18.204,-15.55 19.692,-27.187 63.941,31.25 132.648,46.879 206.09,46.879 21.761,0 43.519,-9.5 65.308,-28.442 21.883,-18.871 32.813,-37.339 32.813,-55.468 0,-42.93 -11.321,-86.52 -33.903,-130.782 C 850.27,517.301 783.09,430.121 684.34,325.551 L 927.301,156.48 c 37.078,-18.121 60.16,-30.859 69.219,-38.121 9.14,-7.308 13.75,-16.718 13.75,-28.277 z M 768.238,666.641 c 0,5.82 -1.679,11.089 -5,15.781 -3.238,4.769 -7.027,7.187 -11.398,7.187 -13.75,0 -36.641,-14.179 -68.602,-42.5 C 670.121,635.43 647.93,613.98 616.68,582.73 l -2.192,-170 c 40.711,47.891 76.492,96.758 107.352,146.571 30.93,49.758 46.398,85.539 46.398,107.34 z" /><path
         id="path22"
         style="fill:#ffffff;fill-opacity:1;fill-rule:nonzero;stroke:none"
         d="m 1435.35,192.582 c 0,-48.75 -15.47,-91.844 -46.4,-129.2226 -30.86,-37.3789 -69.85,-56.08987 -117.04,-56.08987 -66.17,0 -120.31,22.14067 -162.5,66.40237 -13.75,14.5664 -27.93,36.7581 -42.5,66.5581 -14.49,9.379 -25.39,17.352 -32.65,23.911 -22.5,19.691 -35.588,38.199 -39.221,55.629 -2.187,11.64 6.871,22.378 27.191,32.179 20.39,9.77 41.48,14.692 63.28,14.692 31.95,0 55.54,-12.34 70.78,-37.032 5.82,-10.23 11.64,-20.429 17.5,-30.629 6.56,-18.859 12.03,-32.648 16.41,-41.398 14.45,-28.363 30.39,-42.5 47.81,-42.5 26.25,0 42.97,9.449 50.15,28.438 3.64,9.371 5.47,28.589 5.47,57.652 0,48.75 -21.25,85.629 -63.75,110.629 -42.5,25.078 -84.14,50 -124.84,74.679 -44.3,40.711 -66.41,103.211 -66.41,187.5 0,55.2 16.72,107.899 50.16,158.129 37.69,56.641 83.48,85 137.34,85 74.07,0 124.89,-33.089 152.5,-99.218 8.75,-21.801 15.32,-55.231 19.69,-100.313 2.89,-6.558 4.73,-11.988 5.47,-16.25 3.63,-13.129 5.47,-24.808 5.47,-35 0,-5.117 -0.39,-8.707 -1.1,-10.777 -4.37,-23.36 -9.14,-38.602 -14.21,-45.781 -9.5,-13.129 -25.47,-19.688 -47.97,-19.688 -24.69,0 -46.18,9.406 -64.38,28.277 -18.12,18.942 -27.19,41.481 -27.19,67.661 0,7.261 2.7,15.968 8.13,26.089 5.51,10.192 8.28,17.5 8.28,21.871 0,4.379 -0.74,7.661 -2.19,9.848 -2.93,5.703 -5.47,11.871 -7.65,18.442 -3.68,5.07 -12,7.652 -25,7.652 -18.99,0 -34.46,-11.481 -46.41,-34.371 -11.99,-22.821 -17.97,-48.442 -17.97,-76.879 0,-46.481 22.5,-85.313 67.5,-116.563 42.19,-27.621 84.73,-55.23 127.66,-82.808 45.7,-41.492 68.59,-97.031 68.59,-166.719 z" /><path
         id="path24"
         style="fill:#ffffff;fill-opacity:1;fill-rule:nonzero;stroke:none"
         d="m 1615.04,136.949 c 0,-4.367 -1.68,-12.179 -5,-23.429 -3.24,-11.25 -5.9,-21.2505 -7.97,-30.0005 0,-6.5703 -0.23,-12.5781 -0.62,-17.9687 -0.32,-5.4297 -1.57,-12.8906 -3.75,-22.3516 -5.12,-13.8203 -20,-21.8672 -44.69,-24.0586 -22.62,0 -39.92,4.6094 -51.88,13.75 -11.99,9.0586 -17.97,21.5586 -17.97,37.5 0,8.75 4.38,21.4492 13.13,38.1294 v 44.679 c 0,8.012 4.3,14.571 12.97,19.692 8.75,5.078 19.29,8.359 31.72,9.839 9.45,0 19.61,-1.48 30.47,-4.371 29.06,-8.05 43.59,-21.839 43.59,-41.41 z" /><path
         id="path26"
         style="fill:#ffffff;fill-opacity:1;fill-rule:nonzero;stroke:none"
         d="m 2030,56.332 c 0,-29.0625 -24.77,-43.6015 -74.22,-43.6015 -17.42,0 -29.37,1.0586 -35.94,3.1289 -12.42,4.3711 -18.59,13.8711 -18.59,28.4414 -0.74,2.8906 0.7,10.8594 4.37,23.8984 0.71,3.6406 2.54,9.8516 5.47,18.6016 -12.3,-20.3203 -26.64,-35.9414 -42.97,-46.8789 -16.36,-10.9414 -36.21,-16.4024 -59.53,-16.4024 -45,0 -80.23,22.8516 -105.62,68.5899 -25.43,45.8206 -38.13,113.0506 -38.13,201.7226 0.71,15.309 1.1,23.668 1.1,25.148 0,51.571 14.14,103.129 42.5,154.692 33.44,61.019 72.65,91.558 117.65,91.558 13.13,0 25.82,-4.179 38.13,-12.5 12.38,-8.351 26.56,-24.492 42.5,-48.429 v 122.027 c 1.44,6.563 -0.39,14.531 -5.47,23.902 -13.05,25.508 -19.53,42.579 -19.53,51.25 0,14.571 7.42,28.211 22.34,40.942 14.89,12.699 31.41,19.058 49.53,19.058 18.21,0 33.48,-3.281 45.79,-9.839 12.38,-6.563 21.13,-18.2 26.24,-34.84 0.71,-2.93 1.1,-7.66 1.1,-14.223 0,-14.488 -2.19,-29.027 -6.56,-43.598 -0.75,-2.179 -2.19,-5.46 -4.38,-9.839 l 1.1,-557.9691 c 2.89,-5.1211 5.07,-9.1406 6.56,-12.0313 4.37,-9.4922 6.56,-17.1093 6.56,-22.8086 z m -134.06,235.309 c 0,36.328 -6.06,73.199 -18.13,110.629 -11.99,37.5 -24.84,56.25 -38.59,56.25 -18.24,0 -31.33,-20.399 -39.22,-61.098 -5.12,-26.172 -7.66,-60.313 -7.66,-102.5 0,-10.863 0,-18.082 0,-21.723 0,-2.179 0,-5.109 0,-8.75 -0.74,-5.859 -1.48,-14.019 -2.18,-24.527 -0.75,-10.543 -1.1,-18.363 -1.1,-23.442 0,-37.808 4.53,-64.019 13.6,-78.589 9.06,-14.493 21.25,-21.719 36.56,-21.719 13.75,0 26.6,18.91 38.59,56.719 12.07,37.808 18.13,77.379 18.13,118.75 z" /><path
         id="path28"
         style="fill:#ffffff;fill-opacity:1;fill-rule:nonzero;stroke:none"
         d="m 2427.73,138.051 c 0,-29.071 -18.04,-57.2697 -54.06,-84.5315 -35.94,-27.1875 -76.4,-40.789 -121.4,-40.789 -58.87,0 -102.47,25.039 -130.79,75.1601 -24.8,43.5194 -37.18,103.8284 -37.18,180.9414 0,98.828 19.25,175.508 57.81,230 35.62,50.078 81.76,75.148 138.44,75.148 34.88,0 63.59,-10.89 86.09,-32.652 25.39,-24.687 38.13,-60.308 38.13,-106.879 0,-47.929 -17.47,-95.148 -52.35,-141.719 -39.18,-52.3 -90.39,-90.07 -153.59,-113.281 0.7,-16.051 2.54,-28.039 5.47,-35.929 9.37,-24.809 28.28,-37.188 56.72,-37.188 31.13,0 53.43,15.777 66.87,47.34 13.52,31.637 26.09,48.207 37.66,49.687 11.64,0 23.63,-4.687 35.93,-14.058 17.5,-13.129 26.25,-30.242 26.25,-51.25 z M 2312.11,432.27 c 0,10.191 -2.58,18.902 -7.66,26.089 -5,7.262 -13.36,10.942 -25,10.942 -28.36,0 -50.15,-18.91 -65.47,-56.719 -15.23,-37.742 -22.81,-84.531 -22.81,-140.473 18.83,4.371 42.11,21.09 69.85,50.161 34.06,36.25 51.09,72.89 51.09,110 z" /><path
         id="path30"
         style="fill:#ffffff;fill-opacity:1;fill-rule:nonzero;stroke:none"
         d="m 2904.3,519.449 c 0,-15.23 -5.47,-30.859 -16.41,-46.867 -15.23,-23.242 -24.3,-38.523 -27.19,-45.781 L 2752.73,123.832 c -18.12,-50.8632 -28.28,-78.4414 -30.46,-82.8125 -15.24,-26.1406 -39.18,-39.21872 -71.88,-39.21872 -31.99,0 -52.73,6.51953 -62.19,19.53122 -5.11,7.2969 -7.65,22.8868 -7.65,46.8672 0,15.3203 -1.1,26.961 -3.28,34.9998 l -98.13,348.75 c -1.37,5.082 -10.78,18.91 -28.28,41.41 -8.01,10.192 -12.03,19.61 -12.03,28.282 0,14.57 6.21,26.019 18.59,34.379 12.38,8.32 27.66,12.5 45.78,12.5 21.76,0 39.14,-6.961 52.19,-20.79 13.13,-13.75 23.32,-32.96 30.63,-57.648 l 78.43,-284.531 113.44,339.058 c 2.19,5.821 9.61,12.192 22.34,19.063 12.7,6.879 25.63,10.308 38.75,10.308 15.94,0 28.99,-2.57 39.22,-7.652 17.39,-8.668 26.1,-24.297 26.1,-46.879 z" /><path
         id="path32"
         style="fill:#ffffff;fill-opacity:1;fill-rule:nonzero;stroke:none"
         d="m 3336.21,341.801 c 0,-20.321 -7.81,-40.121 -23.44,-59.379 -15.62,-19.301 -30.7,-28.902 -45.15,-28.902 -2.19,0 -6.41,1.089 -12.66,3.281 -6.17,2.179 -10.7,1.789 -13.59,-1.102 L 3126.99,159.77 c -5.86,-5.122 -10.94,-8.719 -15.31,-10.79 -14.49,-7.3 -33.05,-10.929 -55.63,-10.929 -8.67,0.699 -15.54,2.179 -20.62,4.371 -31.25,13.008 -46.88,43.168 -46.88,90.469 0,19.57 6.92,35.199 20.79,46.879 6.44,5 11.48,7.5 15.15,7.5 29.06,0 54.46,12.031 76.25,36.089 7.27,3.629 13.48,8.911 18.6,15.782 5.07,6.879 10.54,14.3 16.4,22.339 l -97.03,82.821 c -10.23,0.699 -17.89,2.179 -22.97,4.371 -15.94,7.269 -23.9,20 -23.9,38.129 0,21.75 8.67,45.039 26.09,69.84 20.39,29.058 42.58,43.589 66.56,43.589 18.83,0 31.56,-8.39 38.13,-25.152 2.18,-5.117 3.63,-13.828 4.37,-26.098 l 130.78,-124.371 c 5.08,-5 11.61,-7.89 19.53,-8.589 8.01,-0.75 16.02,-1.489 24.07,-2.188 8.01,-6.562 13.83,-12.422 17.5,-17.5 11.56,-15.941 17.34,-34.141 17.34,-54.531 z" /></g></g></svg>