<?xml version="1.0" encoding="UTF-8" standalone="no"?>
<svg
   xmlns:dc="http://purl.org/dc/elements/1.1/"
   xmlns:cc="http://creativecommons.org/ns#"
   xmlns:rdf="http://www.w3.org/1999/02/22-rdf-syntax-ns#"
   xmlns:svg="http://www.w3.org/2000/svg"
   xmlns="http://www.w3.org/2000/svg"
   viewBox="0 0 514.66669 272"
   height="272"
   width="514.66669"
   xml:space="preserve"
   id="svg2"
   version="1.1"><metadata
     id="metadata8"><rdf:RDF><cc:Work
         rdf:about=""><dc:format>image/svg+xml</dc:format><dc:type
           rdf:resource="http://purl.org/dc/dcmitype/StillImage" /></cc:Work></rdf:RDF></metadata><defs
     id="defs6" /><g
     transform="matrix(1.3333333,0,0,-1.3333333,0,272)"
     id="g10"><g
       transform="scale(0.1)"
       id="g12"><path
         id="path14"
         style="fill:#730ff5;fill-opacity:1;fill-rule:evenodd;stroke:none"
         d="m 1239.34,739.262 c -0.47,-3.012 -3.44,-21.84 -8.99,-56.492 -5.58,-34.649 -11.13,-65.891 -16.72,-93.711 -14.14,1.761 -14.14,22.703 0,62.929 1.72,3.012 4.92,21.602 9.65,55.782 4.73,34.261 1.49,66.8 -9.65,97.582 -0.82,4.257 -8.55,10.937 -23.08,19.918 -14.57,0.859 -14.57,9.812 0,26.921 5.15,-3.832 16.68,5.821 34.65,28.86 2.57,-0.391 4.96,18.679 7.07,57.187 0.43,2.934 0.62,19.852 0.62,50.672 0.47,30.78 0.2,57.77 -0.62,80.89 -4.26,9.81 0.43,27.78 14.14,53.87 1.68,-5.55 5.93,-31.21 12.81,-76.99 0.86,-5.16 0.66,-40.66 -0.63,-106.559 -0.86,-65.473 -7.3,-132.422 -19.25,-200.859 m 299.72,1064.718 c -11.99,84.26 -12.46,144.38 -1.33,180.36 11.14,35.89 18.21,53.43 21.18,52.57 -12.86,3.01 -28.44,-5.74 -46.84,-26.32 -18.4,-20.51 -28.67,-32.47 -30.78,-35.9 -34.26,-6.88 -80.24,-21.84 -137.97,-44.92 -58.2,-23.56 -90.51,-36.8 -96.91,-39.81 -37.27,-13.67 -56.06,-19.06 -56.53,-16.05 -31.25,-5.12 -44.06,-10.47 -38.51,-16.02 -31.64,-39.37 -43.83,-66.56 -36.53,-81.52 -11.99,-50.04 -33.2,-118.95 -63.55,-206.64 -30.39,-87.74 -47.54,-136.29 -51.329,-145.71 -27.813,-94.1 -41.332,-176.87 -40.473,-248.32 0.864,-71.05 2.352,-108.51 4.532,-112.34 -5.192,-28.28 -11.989,-44.3 -20.579,-48.13 -20.082,-40.269 -26.062,-66.789 -17.929,-79.609 5.968,-40.621 11.519,-81.91 16.679,-123.859 4.688,-42.352 7.258,-65.203 7.688,-68.672 6.41,-53.051 10.902,-82.781 13.48,-89.18 9.84,-31.64 16.68,-53.48 20.551,-65.469 -2.148,-0.429 -6.879,-10.902 -14.14,-31.492 -7.7,-20.5 -4.5,-45.969 9.64,-76.328 17.07,-48.781 24.61,-80.031 22.47,-93.711 -0.47,-35.07 1.87,-51.75 7.07,-50.031 14.92,-29.539 29.06,-61.649 42.34,-96.289 13.71,-35.078 20.98,-54.11 21.83,-57.11 13.21,-33.402 20.94,-46.41 23.09,-39.14 35.08,53.898 58.17,85.582 69.3,94.961 -8.13,-20.981 -15.59,-46.18 -22.46,-75.711 -6.88,-29.961 -10.47,-46.442 -10.94,-49.449 -11.06,-57.7699 -17.07,-86.8402 -17.93,-87.2308 -0.86,-24.83989 1.91,-30.85942 8.32,-18.00004 25.66,36.78904 43.48,58.19924 53.28,64.17964 59.49,48.3202 108.91,99.0582 148.28,152.1092 39.34,53.43 59.85,82.34 61.56,86.641 14.61,26.09 32.93,61.64 55.2,106.558 21.84,44.454 33.79,69.301 35.98,74.372 21.79,44.531 38.47,87.109 50.04,127.781 11.56,40.621 17.34,62.418 17.34,65.429 20.94,136.09 30.59,290.309 28.87,462.73 -2.15,171.99 -8.13,322.58 -17.97,451.8 -9.42,129.22 -14.77,197.03 -16.02,203.47" /><path
         id="path16"
         style="fill:#730ff5;fill-opacity:1;fill-rule:evenodd;stroke:none"
         d="m 2241.8,556.371 c 1.25,8.981 -13.09,55.391 -43.01,139.219 -2.15,0.461 -9.84,16.25 -23.13,47.5 -13.67,31.68 -19.64,75.742 -17.93,132.219 1.25,2.152 6.61,17.543 16.02,46.211 9.45,28.679 16.05,57.968 19.92,87.89 0.39,2.15 1.92,16.06 4.45,41.72 2.58,25.67 4.93,49.89 7.08,72.54 12.38,-14.53 21.4,-47.26 26.99,-98.2 -1.33,-3.83 -2.19,-22.66 -2.62,-56.45 -0.39,-34.25 6.41,-61.438 20.55,-81.52 -1.29,-2.969 -3.67,-25.699 -7.07,-68.012 -3.01,-42.808 -0.67,-87.726 7.07,-134.758 4.26,0.86 4.26,-12.23 0,-39.179 -11.14,-4.301 -9.81,-26.289 3.86,-66.141 1.25,-1.68 -2.81,-9.371 -12.18,-23.039 m 263.12,198.938 c 18.4,47.5 23.91,70.82 16.64,69.961 -13.67,49.179 -22.85,76.57 -27.58,82.109 5.59,6.41 2.58,65.281 -8.94,176.491 -11.6,76.17 -20.59,153.83 -26.99,233.01 -6.41,79.1 -9.61,121.95 -9.61,128.35 -5.59,98.36 -16.45,167.07 -32.78,205.98 -16.64,38.52 -26.05,56.91 -28.2,55.2 -26.52,41.91 -38.32,65.27 -35.31,69.96 -20.51,51.75 -35.7,71.01 -45.59,57.73 -29.06,15.47 -61.36,25.94 -96.83,31.49 -35.55,5.58 -55,8.12 -58.44,7.69 -29.96,25.67 -59.26,44.26 -87.93,55.86 -29.1,11.52 -44.73,17.07 -46.84,16.68 -41.52,75.27 -65.04,105.43 -70.58,90.43 13.67,-47.03 17.3,-96.45 10.86,-148.2 -6.41,-51.8 -10.67,-79.81 -12.82,-84.07 -19.64,-78.32 -41.71,-179.49 -66.09,-303.59 -23.98,-124.06 -36.99,-192.73 -39.14,-205.98 -9.84,-68.9 -19.26,-136.09 -28.24,-201.56 -8.6,-65.04 -13.28,-99.881 -14.14,-104.569 -4.65,-59.492 -1.25,-125.82 10.27,-198.98 11.6,-72.742 18.4,-112.5 20.55,-119.379 42.77,-154.024 70.39,-237.852 82.77,-251.524 50.51,-99.296 103.56,-170.347 159.14,-213.089 56.1,-42.77 86.45,-63.547 91.17,-62.297 29.93,-17.5 61.18,-38.051 93.71,-61.5628 32.5,-23.1289 50.04,-35.9375 52.58,-38.5195 29.14,-9.4102 45.59,-6.4102 49.46,8.9805 -0.47,2.1093 -1.29,13.9101 -2.54,35.3203 -1.33,21.3595 0.82,39.9995 6.4,55.7815 8.13,29.136 9.81,44.328 5.12,45.578 29.06,90.711 48.79,141.211 59.06,151.488 19.65,51.332 32.5,99.652 38.52,145.043 5.54,45.777 7.89,70.149 7.07,73.16 15.78,81.25 26.05,121.719 30.78,121.289 8.95,41.91 10.47,67.192 4.49,75.739" /><path
         id="path18"
         style="fill:#3a351e;fill-opacity:1;fill-rule:evenodd;stroke:none"
         d="m 1759.8,335.551 -82.18,-84.692 -67.97,91.762 c 0,10.738 0.58,100.578 1.91,269.57 1.29,168.981 4.26,354.059 8.99,555.109 4.68,201.1 11.75,355.16 21.17,462.08 0,3.86 2.11,24.17 6.44,60.97 4.65,36.8 12.39,68.71 23.05,95.63 -9.37,4.72 -20.31,34.02 -32.69,87.93 l 34.02,37.85 c 8.08,4.72 30.78,3.86 68.01,-2.54 l 35.97,-59.06 c -7.73,-0.39 -26.13,-22.23 -55.23,-65.43 3.44,-7.74 7.5,-34.65 12.19,-80.9 0.47,-14.96 3.43,-125.31 8.98,-331.13 5.59,-205.79 10.47,-417.579 14.81,-635.399 4.25,-217.731 5.11,-351.641 2.53,-401.75" /><path
         id="path20"
         style="fill:#ffffff;fill-opacity:1;fill-rule:nonzero;stroke:none"
         d="m 401.91,763.281 c 0,-45.312 -13.039,-77.191 -39.058,-95.621 -8.364,-5.941 -21.372,-10.59 -39.063,-13.91 -20.937,0 -37.309,1.871 -49.059,5.629 -11.8,3.742 -22.742,10.23 -32.82,19.531 L 109.57,789.84 c -3.359,2.5 -8.59,2.699 -15.7809,0.629 -7.1094,-2.11 -11.8789,-3.129 -14.3789,-3.129 -15.9297,0 -33.1993,11.101 -51.711,33.281 -18.43748,22.27 -27.6601375,45.199 -27.6601375,68.758 0,22.691 6.7226575,43.281 20.1601375,61.711 4.1406,5.82 10.8516,12.969 20.1524,21.41 8.4375,0 17.0273,0.391 25.7773,1.25 8.832,0.82 17.0313,4.609 24.5313,11.41 L 241.91,1128.75 c 0,13.44 1.25,23.05 3.75,28.91 7.578,20.19 22.738,30.31 45.469,30.31 26.883,0 52.031,-16.37 75.473,-49.06 21.019,-29.5 31.558,-56.84 31.558,-82.03 0,-20.12 -8.82,-34.38 -26.398,-42.82 -5.942,-2.5 -15.242,-4.61 -27.813,-6.25 L 231.91,912.031 c 4.141,-5 9.57,-12.582 16.25,-22.652 6.762,-10.117 14.77,-17.27 24.07,-21.41 25.192,-27.739 54.571,-41.559 88.122,-41.559 6.757,0 15.347,-5.898 25.777,-17.66 10.512,-11.801 15.781,-26.949 15.781,-45.469 z m 765.82,-162.5 c 0,-23.551 -11.17,-42.89 -33.43,-57.972 -22.19,-15.079 -49.3,-22.649 -81.25,-22.649 -30.24,0 -46.57,3.82 -49.07,11.399 -5.859,18.441 -13.39,31.453 -22.652,39.062 -11.797,10.828 -55.277,41.258 -130.469,91.258 -75.238,50 -116.168,77.961 -122.808,83.902 L 740.699,632.34 c 20.942,-24.371 30.16,-47.11 27.66,-68.121 C 762.5,529.02 736.48,511.41 690.23,511.41 c -31.05,0 -58.98,8.59 -83.75,25.781 -24.8,17.188 -37.179,37.969 -37.179,62.34 0,5.938 3.121,13.047 9.371,21.41 6.328,8.438 12.848,17.258 19.527,26.559 l -31.398,621.09 c 0,11.76 -2.973,24.38 -8.91,37.82 -5.86,13.43 -12.153,27.26 -18.911,41.56 0,21.01 11.758,37.03 35.321,47.97 16.75,7.5 42.808,12.89 78.121,16.25 10.937,0 23.129,-3.83 36.558,-11.41 13.442,-7.5 20.981,-17.97 22.661,-31.4 73.949,36.13 153.32,54.21 238.129,54.21 25.191,0 50.39,-10.93 75.62,-32.81 25.2,-21.8 37.81,-43.2 37.81,-64.22 0,-49.61 -13.04,-100 -39.06,-151.25 C 982.969,1094.69 905.27,993.91 791.02,872.969 L 1071.95,677.66 c 42.89,-20.941 69.57,-35.629 80,-44.07 10.51,-8.43 15.78,-19.371 15.78,-32.809 z M 888.051,1267.34 c 0,6.76 -1.961,12.86 -5.781,18.28 -3.75,5.4 -8.129,8.13 -13.129,8.13 -15.942,0 -42.422,-16.37 -79.371,-49.06 -15.122,-13.44 -40.75,-38.24 -76.879,-74.38 l -2.5,-196.56 c 47.07,55.39 88.437,111.87 124.058,169.37 35.711,57.58 53.602,98.99 53.602,124.22 z" /><path
         id="path22"
         style="fill:#ffffff;fill-opacity:1;fill-rule:nonzero;stroke:none"
         d="m 1659.18,719.219 c 0,-56.25 -17.89,-106.059 -53.59,-149.379 -35.63,-43.199 -80.75,-64.84 -135.32,-64.84 -76.48,0 -139.06,25.621 -187.81,76.879 -15.94,16.871 -32.3,42.5 -49.06,76.871 -16.88,10.941 -29.49,20.199 -37.81,27.809 -26.06,22.582 -41.18,43.992 -45.32,64.222 -2.61,13.438 7.85,25.821 31.41,37.188 23.52,11.332 47.89,17.031 73.12,17.031 36.96,0 64.26,-14.34 81.88,-42.969 6.64,-11.801 13.36,-23.511 20.16,-35.152 7.57,-21.879 13.9,-37.899 18.9,-47.969 16.76,-32.738 35.24,-49.07 55.47,-49.07 30.2,0 49.53,10.859 57.97,32.66 4.14,10.941 6.25,33.199 6.25,66.879 0,56.242 -24.61,98.82 -73.75,127.812 -49.06,28.938 -97.15,57.731 -144.22,86.399 -51.25,46.961 -76.87,119.22 -76.87,216.72 0,63.75 19.29,124.61 57.96,182.66 43.64,65.51 96.57,98.28 158.75,98.28 85.71,0 144.54,-38.24 176.41,-114.69 10.08,-25.23 17.66,-63.86 22.66,-115.94 3.32,-7.5 5.47,-13.82 6.4,-18.9 4.14,-15.12 6.25,-28.56 6.25,-40.31 0,-5.86 -0.43,-10 -1.25,-12.5 -5.11,-27 -10.58,-44.65 -16.4,-52.97 -10.94,-15.12 -29.46,-22.66 -55.47,-22.66 -28.56,0 -53.36,10.86 -74.38,32.66 -20.93,21.87 -31.4,47.89 -31.4,78.12 0,8.44 3.12,18.52 9.37,30.32 6.33,11.75 9.53,20.15 9.53,25.15 0,5.08 -0.86,8.91 -2.5,11.41 -3.43,6.64 -6.4,13.79 -8.9,21.4 -4.18,5.82 -13.83,8.75 -28.91,8.75 -21.87,0 -39.76,-13.24 -53.59,-39.68 -13.87,-26.49 -20.78,-56.06 -20.78,-88.75 0,-53.75 26.01,-98.71 78.12,-134.85 48.75,-31.99 97.85,-63.9 147.34,-95.779 52.9,-47.929 79.38,-112.191 79.38,-192.812 z" /><path
         id="path24"
         style="fill:#ffffff;fill-opacity:1;fill-rule:nonzero;stroke:none"
         d="m 1866.99,655 c 0,-5 -1.95,-14.02 -5.78,-27.031 -3.75,-13.047 -6.87,-24.61 -9.37,-34.688 0,-7.621 -0.24,-14.609 -0.63,-20.941 -0.43,-6.25 -1.87,-14.84 -4.37,-25.781 -5.94,-15.938 -23.21,-25.149 -51.72,-27.649 -26.06,0 -46.02,5.27 -59.85,15.781 -13.86,10.508 -20.78,25 -20.78,43.43 0,10.078 5.04,24.77 15.16,44.07 v 51.719 c 0,9.25 5,16.789 15,22.649 10.08,5.941 22.34,9.73 36.72,11.41 10.82,0 22.54,-1.719 35.15,-5.16 33.64,-9.18 50.47,-25.11 50.47,-47.809 z" /><path
         id="path26"
         style="fill:#ffffff;fill-opacity:1;fill-rule:nonzero;stroke:none"
         d="m 2346.6,561.719 c 0,-33.52 -28.59,-50.309 -85.78,-50.309 -20.12,0 -33.98,1.25 -41.56,3.75 -14.3,5 -21.41,15.93 -21.41,32.809 -0.86,3.32 0.82,12.543 5,27.652 0.82,4.149 2.97,11.289 6.41,21.41 -14.38,-23.551 -31.02,-41.64 -49.85,-54.222 -18.86,-12.579 -41.71,-18.899 -68.59,-18.899 -52.11,0 -92.89,26.442 -122.34,79.371 -29.38,52.891 -44.07,130.629 -44.07,233.129 0.82,17.692 1.25,27.379 1.25,29.059 0,59.57 16.41,119.222 49.22,178.911 38.64,70.5 83.99,105.78 136.1,105.78 15.07,0 29.76,-4.85 44.06,-14.54 14.26,-9.6 30.62,-28.24 49.06,-55.93 v 141.09 c 1.64,7.5 -0.43,16.72 -6.25,27.66 -15.12,29.37 -22.65,49.1 -22.65,59.22 0,16.75 8.59,32.5 25.78,47.18 17.18,14.77 36.29,22.19 57.34,22.19 21.02,0 38.67,-3.83 52.97,-11.41 14.26,-7.61 24.3,-21.05 30.16,-40.31 0.82,-3.36 1.25,-8.83 1.25,-16.4 0,-16.8 -2.5,-33.56 -7.5,-50.32 -0.86,-2.61 -2.5,-6.4 -5,-11.4 l 1.25,-645.159 c 3.32,-5.859 5.82,-10.429 7.5,-13.75 5.07,-10.941 7.65,-19.801 7.65,-26.562 z m -155,272.191 c 0,41.949 -6.95,84.57 -20.78,127.809 -13.87,43.321 -28.83,65.001 -44.84,65.001 -20.94,0 -36.06,-23.56 -45.32,-70.63 -5.86,-30.231 -8.75,-69.68 -8.75,-118.43 0,-12.621 0,-21.019 0,-25.16 0,-2.5 0,-5.898 0,-10.16 -0.86,-6.68 -1.71,-16.09 -2.65,-28.281 -0.86,-12.18 -1.25,-21.207 -1.25,-27.028 0,-43.75 5.23,-74.019 15.78,-90.781 10.51,-16.801 24.57,-25.16 42.19,-25.16 16.01,0 30.97,21.801 44.84,65.469 13.83,43.64 20.78,89.421 20.78,137.351 z" /><path
         id="path28"
         style="fill:#ffffff;fill-opacity:1;fill-rule:nonzero;stroke:none"
         d="m 2806.41,656.25 c 0,-33.672 -20.86,-66.211 -62.5,-97.66 -41.57,-31.442 -88.4,-47.18 -140.47,-47.18 -68.05,0 -118.4,28.942 -151.1,86.871 -28.55,50.391 -42.81,120.16 -42.81,209.219 0,114.141 22.23,202.73 66.72,265.78 41.13,58.01 94.45,87.03 160,87.03 40.31,0 73.48,-12.61 99.53,-37.81 29.38,-28.55 44.06,-69.77 44.06,-123.59 0,-55.43 -20.15,-110 -60.46,-163.75 -45.32,-60.551 -104.54,-104.219 -177.66,-131.101 0.82,-18.438 2.97,-32.297 6.4,-41.559 10.83,-28.551 32.66,-42.809 65.47,-42.809 36.14,0 61.96,18.278 77.5,54.84 15.51,36.559 30,55.668 43.44,57.348 13.44,0 27.27,-5.469 41.56,-16.41 20.2,-15.117 30.32,-34.848 30.32,-59.219 z m -133.6,340.16 c 0,11.75 -2.97,21.79 -8.9,30.15 -5.86,8.44 -15.47,12.66 -28.91,12.66 -32.73,0 -57.93,-21.84 -75.62,-65.47 -17.62,-43.668 -26.41,-97.809 -26.41,-162.5 21.87,5 48.75,24.301 80.62,57.969 39.46,41.953 59.22,84.371 59.22,127.191 z" /><path
         id="path30"
         style="fill:#ffffff;fill-opacity:1;fill-rule:nonzero;stroke:none"
         d="m 3357.23,1097.19 c 0,-17.62 -6.33,-35.63 -18.91,-54.07 -17.62,-26.87 -28.09,-44.53 -31.41,-52.96 L 3182.07,639.84 c -20.94,-58.75 -32.66,-90.699 -35.16,-95.781 -17.73,-30.188 -45.46,-45.309 -83.28,-45.309 -36.87,0 -60.78,7.578 -71.72,22.66 -5.93,8.43 -8.9,26.481 -8.9,54.211 0,17.578 -1.25,31.02 -3.75,40.32 l -113.44,403.119 c -1.68,5.94 -12.58,21.92 -32.66,47.97 -9.25,11.76 -13.9,22.7 -13.9,32.81 0,16.76 7.15,29.93 21.4,39.54 14.26,9.68 31.92,14.53 52.97,14.53 25.2,0 45.35,-7.97 60.47,-23.91 15.08,-15.94 26.88,-38.2 35.31,-66.72 l 90.63,-328.901 131.09,391.871 c 2.5,6.64 11.1,13.98 25.78,22.03 14.69,8.01 29.61,12.03 44.85,12.03 18.44,0 33.51,-2.97 45.31,-8.9 20.08,-10.12 30.16,-28.21 30.16,-54.22 z" /><path
         id="path32"
         style="fill:#ffffff;fill-opacity:1;fill-rule:nonzero;stroke:none"
         d="m 3856.64,891.879 c 0,-23.559 -9.06,-46.488 -27.19,-68.758 -18.04,-22.18 -35.43,-33.281 -52.18,-33.281 -2.5,0 -7.35,1.25 -14.54,3.75 -7.11,2.5 -12.34,2.07 -15.78,-1.25 L 3614.77,681.41 c -6.8,-5.859 -12.66,-10 -17.66,-12.5 -16.88,-8.441 -38.36,-12.66 -64.38,-12.66 -10,0.82 -17.96,2.5 -23.9,5 -36.17,15.078 -54.22,50 -54.22,104.691 0,22.579 8.01,40.618 24.06,54.059 7.5,5.941 13.36,8.91 17.66,8.91 33.51,0 62.89,13.82 88.12,41.559 8.44,4.14 15.55,10.191 21.41,18.121 5.94,8.012 12.23,16.64 18.91,25.941 l -112.19,95.779 c -11.8,0.82 -20.59,2.5 -26.41,5 -18.44,8.44 -27.65,23.13 -27.65,44.07 0,25.19 10.03,52.1 30.15,80.78 23.52,33.51 49.14,50.31 76.88,50.31 21.87,0 36.56,-9.65 44.06,-28.91 2.58,-5.94 4.3,-16.05 5.16,-30.31 l 151.09,-143.59 c 5.94,-5.941 13.48,-9.34 22.66,-10.16 9.25,-0.859 18.51,-1.68 27.81,-2.5 9.26,-7.5 15.97,-14.219 20.15,-20.16 13.44,-18.43 20.16,-39.449 20.16,-62.961 z" /></g></g></svg>