<?xml version="1.0" encoding="UTF-8" standalone="no"?>
<svg
   xmlns:dc="http://purl.org/dc/elements/1.1/"
   xmlns:cc="http://creativecommons.org/ns#"
   xmlns:rdf="http://www.w3.org/1999/02/22-rdf-syntax-ns#"
   xmlns:svg="http://www.w3.org/2000/svg"
   xmlns="http://www.w3.org/2000/svg"
   viewBox="0 0 348 352"
   height="352"
   width="348"
   xml:space="preserve"
   id="svg2"
   version="1.1"><metadata
     id="metadata8"><rdf:RDF><cc:Work
         rdf:about=""><dc:format>image/svg+xml</dc:format><dc:type
           rdf:resource="http://purl.org/dc/dcmitype/StillImage" /></cc:Work></rdf:RDF></metadata><defs
     id="defs6" /><g
     transform="matrix(1.3333333,0,0,-1.3333333,0,352)"
     id="g10"><g
       transform="scale(0.1)"
       id="g12"><path
         id="path14"
         style="fill:#4c61d7;fill-opacity:1;fill-rule:evenodd;stroke:none"
         d="m 837.461,1339.26 c -0.43,-3.01 -3.402,-21.84 -8.941,-56.49 -5.59,-34.65 -11.141,-65.89 -16.719,-93.71 -14.141,1.76 -14.141,22.7 0,62.93 1.719,3.01 4.918,21.6 9.648,55.78 4.68,34.26 1.481,66.8 -9.648,97.58 -0.86,4.26 -8.563,10.94 -23.129,19.92 -14.531,0.86 -14.531,9.81 0,26.92 5.199,-3.83 16.719,5.82 34.648,28.86 2.621,-0.39 4.961,18.68 7.071,57.19 0.468,2.93 0.66,19.85 0.66,50.67 0.469,30.78 0.199,57.77 -0.66,80.89 -4.262,9.81 0.468,27.78 14.14,53.87 1.719,-5.55 5.981,-31.21 12.848,-76.99 0.859,-5.16 0.672,-40.66 -0.66,-106.56 -0.86,-65.47 -7.27,-132.42 -19.258,-200.86 m 299.729,1064.72 c -11.96,84.26 -12.42,144.38 -1.29,180.36 11.13,35.89 18.2,53.43 21.17,52.57 -12.85,3.01 -28.44,-5.74 -46.84,-26.32 -18.39,-20.51 -28.67,-32.47 -30.78,-35.9 -34.25,-6.88 -80.231,-21.84 -138.001,-44.92 -58.211,-23.56 -90.469,-36.8 -96.918,-39.81 -37.23,-13.67 -56.051,-19.06 -56.48,-16.05 -31.25,-5.12 -44.071,-10.47 -38.52,-16.02 -31.64,-39.37 -43.832,-66.56 -36.562,-81.52 -11.989,-50.04 -33.168,-118.95 -63.52,-206.64 -30.39,-87.74 -47.539,-136.29 -51.328,-145.71 -27.851,-94.1 -41.32,-176.87 -40.461,-248.32 0.86,-71.05 2.34,-108.51 4.488,-112.34 -5.16,-28.28 -11.949,-44.3 -20.546,-48.13 -20.122,-40.27 -26.051,-66.79 -17.93,-79.61 5.937,-40.62 11.527,-81.91 16.68,-123.86 4.648,-42.35 7.269,-65.2 7.66,-68.67 6.437,-53.05 10.937,-82.78 13.508,-89.18 9.808,-31.64 16.679,-53.48 20.55,-65.47 -2.148,-0.43 -6.871,-10.9 -14.14,-31.49 -7.731,-20.5 -4.532,-45.97 9.609,-76.33 17.109,-48.78 24.652,-80.03 22.461,-93.71 -0.43,-35.07 1.91,-51.75 7.07,-50.031 14.961,-29.539 29.102,-61.649 42.379,-96.289 13.672,-35.078 20.981,-54.11 21.801,-57.11 13.238,-33.402 20.98,-46.41 23.129,-39.14 35.031,53.898 58.16,85.582 69.293,94.961 -8.121,-20.981 -15.582,-46.18 -22.461,-75.711 -6.871,-29.961 -10.473,-46.442 -10.941,-49.449 -11.09,-57.77 -17.11,-86.84 -17.93,-87.231 -0.86,-24.84 1.879,-30.859 8.32,-18 25.668,36.789 43.442,58.199 53.289,64.18 59.449,48.32 108.903,99.058 148.281,152.109 39.329,53.43 59.84,82.34 61.559,86.641 14.57,26.09 32.931,61.64 55.191,106.56 21.8,44.45 33.79,69.3 35.94,74.37 21.84,44.53 38.52,87.11 50.04,127.78 11.6,40.62 17.34,62.42 17.34,65.43 20.98,136.09 30.59,290.31 28.91,462.73 -2.19,171.99 -8.12,322.58 -17.97,451.8 -9.41,129.22 -14.76,197.03 -16.05,203.47" /><path
         id="path16"
         style="fill:#4c61d7;fill-opacity:1;fill-rule:evenodd;stroke:none"
         d="m 1839.96,1156.37 c 1.25,8.98 -13.08,55.39 -43.05,139.22 -2.14,0.46 -9.8,16.25 -23.08,47.5 -13.71,31.68 -19.65,75.74 -17.97,132.22 1.25,2.15 6.64,17.54 16.05,46.21 9.42,28.68 16.06,57.97 19.93,87.89 0.39,2.15 1.87,16.06 4.45,41.72 2.54,25.67 4.92,49.89 7.07,72.54 12.38,-14.53 21.41,-47.26 26.95,-98.2 -1.29,-3.83 -2.15,-22.66 -2.58,-56.45 -0.43,-34.25 6.41,-61.44 20.55,-81.52 -1.33,-2.97 -3.67,-25.7 -7.07,-68.01 -3.01,-42.81 -0.66,-87.73 7.07,-134.76 4.26,0.86 4.26,-12.23 0,-39.18 -11.13,-4.3 -9.84,-26.29 3.87,-66.14 1.25,-1.68 -2.81,-9.37 -12.19,-23.04 m 263.13,198.94 c 18.39,47.5 23.9,70.82 16.64,69.96 -13.68,49.18 -22.85,76.57 -27.58,82.11 5.58,6.41 2.58,65.28 -8.99,176.49 -11.56,76.17 -20.54,153.83 -26.95,233.01 -6.44,79.1 -9.65,121.95 -9.65,128.35 -5.54,98.36 -16.44,167.07 -32.73,205.98 -16.64,38.52 -26.06,56.91 -28.24,55.2 -26.53,41.91 -38.29,65.27 -35.28,69.96 -20.51,51.75 -35.7,71.01 -45.58,57.73 -29.07,15.47 -61.37,25.94 -96.88,31.49 -35.55,5.58 -55,8.12 -58.4,7.69 -30,25.67 -59.25,44.26 -87.93,55.86 -29.1,11.52 -44.72,17.07 -46.83,16.68 -41.53,75.27 -65.04,105.43 -70.63,90.43 13.71,-47.03 17.31,-96.45 10.9,-148.2 -6.41,-51.8 -10.66,-79.81 -12.85,-84.07 -19.65,-78.32 -41.68,-179.49 -66.06,-303.59 -23.98,-124.06 -37.03,-192.73 -39.17,-205.98 -9.81,-68.9 -19.26,-136.09 -28.21,-201.56 -8.59,-65.04 -13.32,-99.88 -14.14,-104.57 -4.69,-59.49 -1.25,-125.82 10.27,-198.98 11.57,-72.74 18.4,-112.5 20.55,-119.38 42.77,-154.02 70.39,-237.85 82.77,-251.52 50.51,-99.298 103.56,-170.349 159.15,-213.091 56.05,-42.77 86.44,-63.547 91.17,-62.297 29.92,-17.5 61.17,-38.051 93.71,-61.563 32.46,-23.129 50.04,-35.937 52.58,-38.519 29.14,-9.41 45.58,-6.41 49.45,8.98 -0.47,2.11 -1.33,13.91 -2.58,35.32 -1.29,21.36 0.86,40 6.45,55.782 8.08,29.136 9.8,44.328 5.07,45.578 29.11,90.711 48.79,141.211 59.07,151.488 19.69,51.332 32.5,99.652 38.51,145.042 5.59,45.78 7.93,70.15 7.07,73.16 15.82,81.25 26.1,121.72 30.78,121.29 8.99,41.91 10.51,67.19 4.54,75.74" /><path
         id="path18"
         style="fill:#002845;fill-opacity:1;fill-rule:evenodd;stroke:none"
         d="m 1357.97,935.551 -82.19,-84.692 -67.97,91.762 c 0,10.738 0.59,100.579 1.88,269.569 1.33,168.98 4.29,354.06 8.98,555.11 4.73,201.1 11.8,355.16 21.21,462.08 0,3.86 2.11,24.17 6.41,60.97 4.69,36.8 12.38,68.71 23.09,95.63 -9.38,4.72 -20.32,34.02 -32.7,87.93 l 33.98,37.85 c 8.13,4.72 30.79,3.86 68.05,-2.54 l 35.94,-59.06 c -7.7,-0.39 -26.1,-22.23 -55.2,-65.43 3.4,-7.74 7.46,-34.65 12.19,-80.9 0.47,-14.96 3.4,-125.31 8.98,-331.13 5.55,-205.79 10.47,-417.58 14.77,-635.4 4.3,-217.73 5.12,-351.64 2.58,-401.749" /><path
         id="path20"
         style="fill:#000000;fill-opacity:1;fill-rule:nonzero;stroke:none"
         d="m 271.172,179.34 c 0,-30.629 -8.832,-52.192 -26.402,-64.692 -5.629,-3.988 -14.461,-7.109 -26.411,-9.378 -14.179,0 -25.238,1.25 -33.129,3.75 -7.929,2.582 -15.269,7.031 -22.031,13.281 l -89.2185,74.847 c -2.3008,1.641 -5.8907,1.762 -10.7813,0.313 -4.8008,-1.371 -8.039,-2.031 -9.6797,-2.031 -10.75,0 -22.3476,7.5 -34.8476,22.5 -12.50002,15 -18.750025,30.468 -18.750025,46.41 0,15.308 4.527345,29.14 13.597625,41.558 2.8907,3.942 7.4219,8.793 13.5899,14.532 5.6992,0 11.5625,0.23 17.5,0.781 5.9414,0.629 11.4414,3.168 16.5625,7.66 l 102.0271,96.867 c 0,9.063 0.821,15.551 2.5,19.532 5.082,13.64 15.321,20.468 30.629,20.468 18.121,0 35.082,-11.047 50.942,-33.117 14.14,-19.922 21.25,-38.359 21.25,-55.32 0,-13.551 -5.942,-23.199 -17.821,-28.903 -3.98,-1.679 -10.148,-3.089 -18.59,-4.218 l -75.781,-64.532 c 2.891,-3.437 6.602,-8.597 11.094,-15.468 4.566,-6.801 9.918,-11.559 16.098,-14.379 17.07,-18.672 36.91,-27.961 59.531,-27.961 4.57,0 10.39,-4.031 17.5,-12.039 7.07,-7.922 10.621,-18.082 10.621,-30.461 z M 787.809,69.6484 c 0,-15.8593 -7.579,-28.8671 -22.649,-39.0586 -15,-10.1992 -33.25,-15.3203 -54.691,-15.3203 -20.43,0 -31.489,2.5821 -33.129,7.6602 -3.981,12.3789 -9.059,21.1289 -15.309,26.25 -7.929,7.3789 -37.261,27.9687 -87.972,61.7183 -50.739,33.75 -78.399,52.582 -82.969,56.563 l 8.601,-76.5626 c 14.137,-16.4882 20.348,-31.7968 18.59,-45.9375 -3.98,-23.75 -21.519,-35.62106 -52.66,-35.62106 -20.93,0 -39.801,5.85936 -56.562,17.49996 -16.68,11.5586 -25,25.5391 -25,42.0313 0,3.9375 2.07,8.75 6.25,14.3672 4.261,5.6328 8.671,11.5625 13.281,17.8127 l -21.25,419.07 c 0,7.891 -1.988,16.399 -5.93,25.469 -3.988,9.058 -8.25,18.43 -12.82,28.121 0,14.141 7.969,24.918 23.91,32.34 11.25,5.078 28.789,8.75 52.66,10.937 7.379,0 15.621,-2.578 24.68,-7.648 9.07,-5.121 14.14,-12.192 15.32,-21.25 49.762,24.371 103.32,36.558 160.621,36.558 16.949,0 33.949,-7.418 50.938,-22.187 16.953,-14.691 25.472,-29.141 25.472,-43.281 0,-33.442 -8.75,-67.418 -26.25,-101.879 C 663.121,402.809 610.66,334.801 533.59,253.238 L 723.121,121.52 c 28.949,-14.18 46.957,-24.1411 54.07,-29.8403 7.071,-5.6289 10.618,-12.9688 10.618,-22.0313 z M 599.059,519.34 c 0,4.449 -1.329,8.512 -3.899,12.18 -2.5,3.75 -5.43,5.628 -8.75,5.628 -10.859,0 -28.711,-11.058 -53.601,-33.128 -10.231,-9.059 -27.5,-25.782 -51.868,-50.149 l -1.722,-132.66 c 31.761,37.379 59.691,75.508 83.75,114.379 24.062,38.82 36.09,66.75 36.09,83.75 z" /><path
         id="path22"
         style="fill:#000000;fill-opacity:1;fill-rule:nonzero;stroke:none"
         d="m 1119.26,149.488 c 0,-37.929 -12.03,-71.4763 -36.1,-100.6169 -24.06,-29.1406 -54.53,-43.75001 -91.398,-43.75001 -51.563,0 -93.75,17.25781 -126.563,51.71871 -10.859,11.3204 -21.879,28.629 -33.129,51.8712 -11.371,7.379 -19.922,13.629 -25.621,18.75 -17.5,15.309 -27.66,29.73 -30.469,43.277 -1.8,9.063 5.231,17.383 21.09,25 15.942,7.703 32.379,11.563 49.379,11.563 24.879,0 43.321,-9.641 55.313,-28.903 4.449,-7.929 8.976,-15.859 13.59,-23.75 5.078,-14.687 9.296,-25.468 12.66,-32.347 11.328,-22.102 23.828,-33.1213 37.5,-33.1213 20.308,0 33.316,7.3789 39.058,22.1913 2.81,7.258 4.22,22.258 4.22,45 0,37.891 -16.56,66.641 -49.688,86.25 -33.122,19.57 -65.582,38.981 -97.34,58.277 -34.614,31.641 -51.883,80.352 -51.883,146.09 0,43.133 13.012,84.223 39.07,123.282 29.449,44.14 65.192,66.25 107.18,66.25 57.821,0 97.421,-25.782 118.911,-77.34 6.87,-16.989 11.95,-43.051 15.31,-78.129 2.27,-5.11 3.75,-9.371 4.38,-12.813 2.81,-10.226 4.22,-19.289 4.22,-27.187 0,-3.981 -0.32,-6.789 -0.94,-8.43 -3.36,-18.133 -6.99,-30.082 -10.94,-35.781 -7.42,-10.238 -19.92,-15.32 -37.5,-15.32 -19.3,0 -36.02,7.351 -50.16,22.031 -14.18,14.769 -21.25,32.39 -21.25,52.82 0,5.699 2.11,12.539 6.41,20.469 4.258,7.89 6.41,13.59 6.41,17.031 0,3.32 -0.589,5.859 -1.718,7.649 -2.313,4.46 -4.301,9.261 -5.942,14.378 -2.808,3.942 -9.34,5.942 -19.531,5.942 -14.809,0 -26.879,-8.988 -36.25,-26.879 -9.301,-17.813 -13.91,-37.77 -13.91,-59.84 0,-36.25 17.543,-66.57 52.66,-90.941 32.891,-21.559 66.091,-43.09 99.531,-64.532 35.63,-32.308 53.44,-75.699 53.44,-130.16 z" /><path
         id="path24"
         style="fill:#000000;fill-opacity:1;fill-rule:nonzero;stroke:none"
         d="m 1259.41,106.211 c 0,-3.441 -1.32,-9.5313 -3.9,-18.2813 -2.5,-8.75 -4.61,-16.5586 -6.25,-23.4414 0,-5.1094 -0.16,-9.7969 -0.47,-14.0586 -0.31,-4.1797 -1.33,-9.9609 -2.97,-17.3399 -3.98,-10.7109 -15.59,-16.9609 -34.84,-18.75 -17.62,0 -31.1,3.5508 -40.47,10.6211 -9.3,7.0704 -13.91,16.8789 -13.91,29.3789 0,6.75 3.36,16.6407 10.16,29.6797 V 119.02 c 0,6.14 3.36,11.179 10.15,15.16 6.88,4.058 15.08,6.601 24.69,7.66 7.38,0 15.35,-1.102 23.91,-3.289 22.58,-6.25 33.9,-17.031 33.9,-32.34 z" /><path
         id="path26"
         style="fill:#000000;fill-opacity:1;fill-rule:nonzero;stroke:none"
         d="m 1582.97,43.2383 c 0,-22.5781 -19.3,-33.89846 -57.81,-33.89846 -13.68,0 -23.05,0.85936 -28.13,2.49996 -9.61,3.4297 -14.37,10.8594 -14.37,22.1797 -0.55,2.1914 0.62,8.3594 3.43,18.6016 0.51,2.8086 1.92,7.6484 4.22,14.5273 -9.69,-15.9375 -20.9,-28.1992 -33.59,-36.7187 -12.74,-8.4414 -28.13,-12.6602 -46.25,-12.6602 -35.24,0 -62.77,17.8516 -82.66,53.6016 -19.8,35.6989 -29.69,88.1169 -29.69,157.1799 0.63,11.961 0.94,18.48 0.94,19.539 0,40.308 11.02,80.539 33.13,120.781 26.01,47.578 56.64,71.399 91.87,71.399 10.2,0 20.08,-3.282 29.69,-9.84 9.57,-6.481 20.63,-19.059 33.13,-37.809 v 95.149 c 1.13,5.082 -0.28,11.332 -4.22,18.75 -10.24,19.89 -15.32,33.21 -15.32,40 0,11.332 5.78,21.96 17.35,31.878 11.64,9.883 24.57,14.84 38.75,14.84 14.14,0 26.01,-2.578 35.62,-7.648 9.69,-5.121 16.49,-14.18 20.47,-27.192 0.63,-2.308 0.94,-6.019 0.94,-11.097 0,-11.36 -1.72,-22.653 -5.16,-33.903 -0.62,-1.796 -1.79,-4.339 -3.43,-7.66 l 0.93,-435.3083 c 2.19,-3.9805 3.83,-7.0313 5,-9.2188 3.44,-7.4218 5.16,-13.4023 5.16,-17.9726 z M 1478.44,226.84 c 0,28.32 -4.69,57.07 -14.06,86.25 -9.38,29.25 -19.46,43.898 -30.16,43.898 -14.18,0 -24.38,-15.898 -30.63,-47.648 -3.98,-20.43 -5.93,-47.039 -5.93,-79.852 0,-8.547 0,-14.218 0,-17.027 0,-1.68 0,-3.981 0,-6.871 -0.55,-4.5 -1.1,-10.86 -1.72,-19.07 -0.55,-8.239 -0.78,-14.329 -0.78,-18.282 0,-29.488 3.51,-49.918 10.62,-61.25 7.07,-11.2497 16.56,-16.8669 28.44,-16.8669 10.7,0 20.78,14.6799 30.16,44.0589 9.37,29.449 14.06,60.351 14.06,92.66 z" /><path
         id="path28"
         style="fill:#000000;fill-opacity:1;fill-rule:nonzero;stroke:none"
         d="m 1893.24,106.988 c 0,-22.6091 -14.06,-44.5271 -42.19,-65.7771 -28.04,-21.25 -59.6,-31.87106 -94.68,-31.87106 -45.94,0 -79.96,19.53126 -102.03,58.58986 -19.3,34.0583 -28.91,81.0903 -28.91,141.0903 0,77.07 15,136.878 45,179.378 27.81,39.063 63.79,58.59 107.97,58.59 27.19,0 49.57,-8.508 67.19,-25.468 19.76,-19.29 29.68,-47.032 29.68,-83.282 0,-37.418 -13.59,-74.218 -40.78,-110.468 -30.62,-40.86 -70.58,-70.309 -119.84,-88.43 0.62,-12.5 2.03,-21.84 4.22,-27.969 7.38,-19.3007 22.11,-28.9101 44.22,-28.9101 24.37,0 41.75,12.2696 52.18,36.8791 10.51,24.68 20.35,37.57 29.53,38.75 9.07,0 18.36,-3.711 27.97,-11.102 13.64,-10.226 20.47,-23.547 20.47,-40 z m -90.15,229.532 c 0,7.89 -2,14.691 -5.94,20.32 -3.99,5.699 -10.47,8.59 -19.53,8.59 -22.11,0 -39.14,-14.77 -51.1,-44.219 -11.87,-29.492 -17.81,-66.051 -17.81,-109.691 14.77,3.441 32.89,16.492 54.38,39.218 26.64,28.321 40,56.922 40,85.782 z" /><path
         id="path30"
         style="fill:#000000;fill-opacity:1;fill-rule:nonzero;stroke:none"
         d="m 2264.77,404.488 c 0,-11.867 -4.22,-24.058 -12.66,-36.558 -11.99,-18.129 -19.06,-30 -21.25,-35.629 L 2146.64,96.0508 c -14.18,-39.6797 -22.11,-61.25 -23.75,-64.6797 -11.87,-20.3906 -30.59,-30.632819 -56.09,-30.632819 -25,0 -41.18,5.121099 -48.44,15.312519 -3.98,5.75 -5.94,17.8984 -5.94,36.5703 0,11.8672 -0.9,20.9297 -2.65,27.1797 L 1933.36,351.84 c -1.17,3.941 -8.56,14.719 -22.19,32.34 -6.25,7.89 -9.37,15.23 -9.37,22.031 0,11.328 4.8,20.238 14.37,26.719 9.69,6.558 21.6,9.84 35.78,9.84 17.07,0 30.67,-5.43 40.78,-16.25 10.2,-10.739 18.17,-25.739 23.91,-45 l 61.09,-221.719 88.44,264.219 c 1.76,4.57 7.58,9.531 17.5,14.851 9.88,5.391 19.92,8.117 30.16,8.117 12.5,0 22.69,-1.988 30.62,-5.937 13.52,-6.789 20.32,-18.981 20.32,-36.563 z" /><path
         id="path32"
         style="fill:#000000;fill-opacity:1;fill-rule:nonzero;stroke:none"
         d="m 2601.72,266.051 c 0,-15.93 -6.1,-31.403 -18.28,-46.403 -12.19,-15 -23.99,-22.5 -35.32,-22.5 -1.67,0 -4.96,0.821 -9.84,2.5 -4.8,1.762 -8.36,1.481 -10.62,-0.777 l -89.22,-74.851 c -4.49,-3.981 -8.44,-6.79 -11.88,-8.43 -11.36,-5.75 -25.78,-8.602 -43.28,-8.602 -6.87,0.633 -12.3,1.762 -16.25,3.442 -24.37,10.191 -36.56,33.75 -36.56,70.621 0,15.32 5.39,27.5 16.25,36.57 5.08,3.938 9.06,5.93 11.87,5.93 22.7,0 42.54,9.301 59.53,27.969 5.63,2.82 10.4,6.921 14.38,12.351 3.95,5.391 8.2,11.25 12.81,17.5 l -75.62,64.527 c -8.05,0.512 -14.03,1.641 -17.97,3.442 -12.42,5.621 -18.6,15.5 -18.6,29.68 0,16.96 6.76,35.082 20.32,54.378 15.94,22.692 33.2,34.063 51.87,34.063 14.77,0 24.73,-6.52 29.85,-19.531 1.64,-3.981 2.73,-10.782 3.28,-20.469 l 102.03,-96.871 c 3.94,-3.988 9.06,-6.25 15.31,-6.879 6.25,-0.551 12.5,-1.051 18.75,-1.563 6.25,-5.117 10.78,-9.648 13.59,-13.597 9.07,-12.5 13.6,-26.672 13.6,-42.5 z" /></g></g></svg>