<?xml version="1.0" encoding="UTF-8" standalone="no"?>
<svg
   xmlns:dc="http://purl.org/dc/elements/1.1/"
   xmlns:cc="http://creativecommons.org/ns#"
   xmlns:rdf="http://www.w3.org/1999/02/22-rdf-syntax-ns#"
   xmlns:svg="http://www.w3.org/2000/svg"
   xmlns="http://www.w3.org/2000/svg"
   viewBox="0 0 550.66669 300"
   height="300"
   width="550.66669"
   xml:space="preserve"
   id="svg2"
   version="1.1"><metadata
     id="metadata8"><rdf:RDF><cc:Work
         rdf:about=""><dc:format>image/svg+xml</dc:format><dc:type
           rdf:resource="http://purl.org/dc/dcmitype/StillImage" /></cc:Work></rdf:RDF></metadata><defs
     id="defs6" /><g
     transform="matrix(1.3333333,0,0,-1.3333333,0,300)"
     id="g10"><g
       transform="scale(0.1)"
       id="g12"><path
         id="path14"
         style="fill:#4c61d7;fill-opacity:1;fill-rule:evenodd;stroke:none"
         d="m 1661.99,1236.64 c -0.35,-2.34 -2.65,-17.03 -6.99,-44.02 -4.34,-27 -8.67,-51.33 -13.01,-73.01 -11.01,1.37 -11.01,17.69 0,49.02 1.33,2.35 3.83,16.84 7.5,43.48 3.67,26.68 1.17,52.03 -7.5,76.01 -0.66,3.33 -6.68,8.52 -18.01,15.51 -11.32,0.67 -11.32,7.66 0,20.98 4.03,-2.97 13.01,4.53 27,22.5 2.03,-0.31 3.86,14.53 5.5,44.53 0.36,2.31 0.51,15.47 0.51,39.49 0.35,23.99 0.16,45 -0.51,63.01 -3.32,7.66 0.36,21.64 11.02,41.99 1.33,-4.33 4.65,-24.33 10,-60 0.66,-4.02 0.51,-31.68 -0.51,-83.01 -0.66,-51.01 -5.66,-103.16 -15,-156.48 m 233.52,829.49 c -9.34,65.67 -9.69,112.5 -1.02,140.51 8.67,27.97 14.18,41.64 16.49,40.98 -10,2.34 -22.15,-4.5 -36.49,-20.51 -14.33,-15.98 -22.34,-25.31 -23.98,-27.97 -26.68,-5.35 -62.5,-17.03 -107.5,-35 -45.35,-18.36 -70.51,-28.67 -75.51,-31.02 -29.02,-10.66 -43.67,-14.84 -44.02,-12.5 -24.34,-3.98 -34.34,-8.16 -30,-12.5 -24.65,-30.66 -34.14,-51.83 -28.48,-63.51 -9.34,-38.99 -25.86,-92.66 -49.49,-160.98 -23.67,-68.36 -37.03,-106.17 -40,-113.51 -21.68,-73.32 -32.19,-137.82 -31.53,-193.48 0.67,-55.35 1.84,-84.53 3.52,-87.5 -4.02,-22.03 -9.34,-34.53 -16.02,-37.5 -15.66,-31.37 -20.31,-52.03 -13.98,-62.03 4.65,-31.64 8.98,-63.83 13.01,-96.49 3.63,-33 5.66,-50.82 5.97,-53.51 5,-41.33 8.52,-64.49 10.51,-69.49 7.66,-24.65 13.01,-41.64 16.02,-50.98 -1.68,-0.35 -5.35,-8.52 -11.02,-24.53 -6.01,-15.98 -3.51,-35.82 7.5,-59.49 13.32,-38.011 19.18,-62.35 17.5,-73.011 -0.35,-27.308 1.49,-40.308 5.51,-38.988 11.64,-23 22.66,-48 33.01,-75 10.66,-27.34 16.33,-42.141 16.99,-44.492 10.31,-26.008 16.33,-36.168 18.01,-30.508 27.3,42 45.31,66.68 53.98,73.988 -6.33,-16.328 -12.15,-35.98 -17.5,-58.988 -5.35,-23.32 -8.16,-36.172 -8.51,-38.512 -8.64,-45 -13.32,-67.66 -13.99,-67.968 -0.66,-19.34 1.49,-24.02 6.49,-14.02 20,28.668 33.86,45.348 41.52,50 46.33,37.649 84.84,77.18 115.51,118.508 30.66,41.641 46.64,64.141 47.97,67.5 11.36,20.32 25.66,48.012 43,83.012 17,34.649 26.33,53.979 28.01,57.969 16.99,34.69 30,67.85 38.99,99.53 9.02,31.64 13.51,48.63 13.51,50.98 16.33,106.01 23.83,226.17 22.5,360.5 -1.68,133.99 -6.33,251.33 -13.98,352 -7.35,100.66 -11.53,153.51 -12.5,158.51" /><path
         id="path16"
         style="fill:#4c61d7;fill-opacity:1;fill-rule:evenodd;stroke:none"
         d="m 2443.01,1094.14 c 0.97,6.99 -10.2,43.16 -33.52,108.48 -1.68,0.35 -7.65,12.65 -18.01,36.99 -10.66,24.69 -15.31,59.02 -13.98,103.01 0.98,1.68 5.16,13.67 12.5,36.01 7.34,22.35 12.5,45.16 15.51,68.48 0.31,1.68 1.48,12.5 3.47,32.5 2,20 3.83,38.87 5.51,56.52 9.65,-11.33 16.68,-36.83 21.02,-76.52 -1.02,-2.97 -1.68,-17.66 -2.03,-43.99 -0.32,-26.67 5,-47.85 16.01,-63.51 -1.01,-2.31 -2.85,-20 -5.51,-52.97 -2.34,-33.36 -0.5,-68.36 5.51,-105 3.32,0.66 3.32,-9.53 0,-30.51 -8.67,-3.36 -7.65,-20.51 3.01,-51.52 0.98,-1.33 -2.19,-7.31 -9.49,-17.97 m 205,155 c 14.33,36.99 18.63,55.16 12.97,54.49 -10.67,38.32 -17.82,59.65 -21.49,63.99 4.34,5 1.99,50.86 -6.99,137.5 -9.02,59.33 -16.02,119.84 -21.02,181.52 -5,61.64 -7.5,95 -7.5,100 -4.33,76.64 -12.81,130.16 -25.5,160.47 -12.97,30 -20.32,44.34 -22,43.01 -20.66,32.65 -29.84,50.86 -27.5,54.49 -15.97,40.35 -27.81,55.35 -35.5,45 -22.66,12.03 -47.82,20.19 -75.47,24.53 -27.7,4.34 -42.85,6.33 -45.51,5.98 -23.36,20 -46.17,34.49 -68.52,43.51 -22.65,8.99 -34.84,13.32 -36.48,13.01 -32.34,58.63 -50.66,82.15 -55,70.47 10.66,-36.64 13.48,-75.16 8.48,-115.47 -5,-40.35 -8.32,-62.19 -10,-65.51 -15.32,-61.01 -32.5,-139.84 -51.49,-236.52 -18.67,-96.64 -28.83,-150.16 -30.51,-160.47 -7.65,-53.67 -15,-106.02 -21.99,-157.03 -6.68,-50.66 -10.35,-77.81 -11.01,-81.49 -3.64,-46.32 -0.98,-98 8,-155 9.03,-56.67 14.34,-87.65 16.02,-93 33.32,-120 54.84,-185.319 64.49,-195.979 39.34,-77.34 80.67,-132.692 123.99,-166.02 43.67,-33.32 67.34,-49.492 71.01,-48.512 23.32,-13.629 47.66,-29.648 73.01,-47.968 25.31,-18.012 38.98,-28.012 40.98,-30 22.69,-7.34 35.5,-5 38.51,6.988 -0.35,1.641 -1.01,10.82 -1.99,27.5 -1.02,16.641 0.66,31.172 5,43.48 6.33,22.692 7.66,34.532 3.98,35.512 22.66,70.66 38.01,110 46.02,118 15.31,40 25.31,77.659 30,113.009 4.34,35.67 6.17,54.65 5.51,56.99 12.3,63.33 20.31,94.85 23.98,94.5 6.99,32.65 8.17,52.34 3.52,59.02" /><path
         id="path18"
         style="fill:#002845;fill-opacity:1;fill-rule:evenodd;stroke:none"
         d="m 2067.5,922.109 -64.02,-65.98 -52.97,71.492 c 0,8.359 0.47,78.359 1.48,209.999 1.02,131.68 3.32,275.86 6.99,432.5 3.68,156.68 9.18,276.68 16.53,360 0,3 1.64,18.83 5,47.5 3.63,28.67 9.65,53.51 17.97,74.49 -7.31,3.67 -15.82,26.52 -25.47,68.51 l 26.48,29.5 c 6.33,3.67 23.99,3 53.01,-2 l 28.01,-46.01 c -6.02,-0.31 -20.35,-17.31 -43.01,-50.98 2.66,-6.01 5.82,-26.99 9.49,-63.01 0.35,-11.67 2.66,-97.65 6.99,-258 4.34,-160.32 8.17,-325.32 11.53,-495 3.32,-169.65 3.98,-273.991 1.99,-313.011" /><path
         id="path20"
         style="fill:#272221;fill-opacity:1;fill-rule:nonzero;stroke:none"
         d="m 170.391,75.4297 h -52.5 L 86.3281,127.621 c -2.4179,3.938 -4.6875,7.5 -6.8789,10.617 -2.1797,3.133 -4.3711,5.782 -6.5586,7.973 -2.1914,2.269 -4.5312,3.988 -7.0312,5.16 -2.418,1.25 -5,1.867 -7.8086,1.867 H 45.6992 V 75.4297 H 0.078125 V 278.551 H 72.5781 c 49.2619,0 73.9019,-18.43 73.9019,-55.313 0,-7.109 -1.089,-13.668 -3.281,-19.687 -2.179,-5.93 -5.269,-11.321 -9.219,-16.09 -3.98,-4.801 -8.75,-8.981 -14.371,-12.5 -5.629,-3.441 -11.879,-6.172 -18.75,-8.121 v -0.629 c 3.012,-0.941 5.942,-2.5 8.75,-4.691 2.813,-2.11 5.512,-4.532 8.121,-7.34 2.7,-2.809 5.239,-5.899 7.661,-9.219 2.379,-3.242 4.57,-6.41 6.558,-9.531 z M 45.6992,244.18 v -56.41 h 19.8516 c 9.7578,0 17.6875,2.82 23.75,8.441 6.0078,5.699 9.0586,12.848 9.0586,21.41 0,17.688 -10.6289,26.559 -31.8789,26.559 z M 253.91,71.8398 c -24.18,0 -43.211,6.75 -57.031,20.3086 -13.867,13.5116 -20.789,31.9106 -20.789,55.1526 0,24.07 7.191,42.859 21.57,56.41 14.371,13.519 33.75,20.309 58.121,20.309 24.141,0 43.047,-6.79 56.719,-20.309 13.629,-13.551 20.469,-31.481 20.469,-53.75 0,-24.063 -7.11,-43.121 -21.25,-57.1915 C 297.66,78.7891 278.359,71.8398 253.91,71.8398 Z M 255,189.648 c -10.551,0 -18.75,-3.668 -24.691,-10.937 -5.86,-7.191 -8.75,-17.461 -8.75,-30.781 0,-27.809 11.25,-41.719 33.75,-41.719 21.453,0 32.191,14.258 32.191,42.809 0,27.07 -10.859,40.628 -32.5,40.628 z" /><path
         id="path22"
         style="fill:#272221;fill-opacity:1;fill-rule:nonzero;stroke:none"
         d="M 407.461,92.3008 H 406.84 V 75.4297 H 362.148 V 290.121 h 44.692 v -91.57 h 0.621 c 11.019,16.961 26.719,25.469 47.027,25.469 18.75,0 33.172,-6.481 43.282,-19.372 10.082,-12.808 15.16,-30.386 15.16,-52.66 0,-24.179 -5.942,-43.59 -17.809,-58.2771 -11.801,-14.6093 -27.5,-21.8711 -47.191,-21.8711 -17.93,0 -31.41,6.7891 -40.469,20.461 z m -1.41,61.0972 v -14.847 c 0,-9.371 2.699,-17.141 8.129,-23.281 5.39,-6.051 12.269,-9.059 20.621,-9.059 10.199,0 18.129,3.91 23.75,11.719 5.629,7.89 8.437,19.101 8.437,33.59 0,11.96 -2.609,21.289 -7.808,27.968 -5.121,6.762 -12.418,10.16 -21.879,10.16 -8.981,0 -16.403,-3.359 -22.34,-10 -5.941,-6.679 -8.91,-15.429 -8.91,-26.25 z" /><path
         id="path24"
         style="fill:#272221;fill-opacity:1;fill-rule:nonzero;stroke:none"
         d="m 672.422,135.121 h -94.531 c 1.449,-21.062 14.73,-31.57 39.839,-31.57 15.942,0 29.93,3.789 42.04,11.41 V 82.6211 c -13.442,-7.1914 -30.899,-10.7813 -52.348,-10.7813 -23.363,0 -41.524,6.4805 -54.531,19.5313 -12.93,13.0079 -19.371,31.1289 -19.371,54.3669 0,24.063 6.949,43.133 20.929,57.192 14.071,14.058 31.25,21.09 51.571,21.09 21.128,0 37.5,-6.321 49.058,-18.899 11.563,-12.5 17.344,-29.531 17.344,-51.101 z m -41.402,27.5 c 0,20.82 -8.442,31.25 -25.321,31.25 -7.109,0 -13.277,-3.051 -18.59,-9.07 -5.23,-5.93 -8.398,-13.352 -9.531,-22.18 z" /><path
         id="path26"
         style="fill:#272221;fill-opacity:1;fill-rule:nonzero;stroke:none"
         d="m 793.672,180.121 c -5.434,2.891 -11.723,4.367 -18.902,4.367 -9.692,0 -17.309,-3.59 -22.821,-10.777 -5.429,-7.109 -8.121,-16.801 -8.121,-29.063 V 75.4297 H 699.141 V 220.43 h 44.687 v -26.879 h 0.621 c 7.071,19.57 19.77,29.379 38.129,29.379 4.762,0 8.473,-0.59 11.094,-1.719 z" /><path
         id="path28"
         style="fill:#272221;fill-opacity:1;fill-rule:nonzero;stroke:none"
         d="m 902.34,77.1484 c -6.68,-3.5195 -16.68,-5.3086 -30,-5.3086 -31.481,0 -47.18,16.3985 -47.18,49.2112 v 66.41 h -23.601 v 32.969 h 23.601 v 31.25 l 44.531,12.808 V 220.43 h 32.649 v -32.969 h -32.649 v -58.59 c 0,-15.121 5.969,-22.66 17.969,-22.66 4.68,0 9.57,1.328 14.68,4.059 z" /><path
         id="path30"
         style="fill:#272221;fill-opacity:1;fill-rule:nonzero;stroke:none"
         d="m 1002.27,83.2383 v 45.3127 c 8.2,-6.871 17.11,-12.031 26.71,-15.461 9.69,-3.442 19.42,-5.16 29.22,-5.16 5.71,0 10.71,0.468 15,1.41 4.38,1.012 7.97,2.5 10.78,4.371 2.9,1.879 5.04,4.059 6.41,6.559 1.45,2.5 2.19,5.199 2.19,8.128 0,3.942 -1.17,7.5 -3.44,10.622 -2.19,3.128 -5.27,5.98 -9.22,8.601 -3.98,2.688 -8.67,5.231 -14.06,7.649 -5.31,2.5 -11.09,5 -17.34,7.5 -15.86,6.64 -27.66,14.73 -35.47,24.218 -7.82,9.571 -11.72,21.102 -11.72,34.532 0,10.628 2.11,19.73 6.4,27.351 4.26,7.578 10.04,13.828 17.35,18.75 7.26,4.879 15.7,8.469 25.31,10.777 9.69,2.262 19.92,3.442 30.78,3.442 10.51,0 19.85,-0.629 27.97,-1.879 8.2,-1.25 15.78,-3.242 22.66,-5.941 v -42.18 c -3.44,2.262 -7.19,4.289 -11.25,6.09 -3.99,1.871 -8.09,3.359 -12.35,4.531 -4.18,1.129 -8.4,1.949 -12.65,2.5 -4.18,0.629 -8.13,0.937 -11.88,0.937 -5.23,0 -9.96,-0.546 -14.22,-1.558 -4.18,-0.942 -7.77,-2.309 -10.78,-4.07 -2.93,-1.79 -5.15,-3.899 -6.72,-6.399 -1.56,-2.5 -2.34,-5.32 -2.34,-8.441 0,-3.442 0.86,-6.52 2.66,-9.219 1.75,-2.731 4.25,-5.27 7.5,-7.66 3.32,-2.422 7.34,-4.762 12.03,-7.031 4.76,-2.301 10.15,-4.68 16.09,-7.18 8.13,-3.36 15.39,-6.961 21.88,-10.789 6.44,-3.86 11.95,-8.199 16.56,-12.961 4.69,-4.809 8.2,-10.32 10.62,-16.57 2.5,-6.168 3.75,-13.36 3.75,-21.559 0,-11.371 -2.15,-20.902 -6.4,-28.59 -4.3,-7.621 -10.12,-13.8319 -17.5,-18.6015 -7.42,-4.8007 -16.02,-8.2382 -25.78,-10.3086 -9.69,-2.0703 -20,-3.1211 -30.94,-3.1211 -11.06,0 -21.64,1.0118 -31.72,2.961 -10,1.8789 -18.71,4.6875 -26.09,8.4375 z" /><path
         id="path32"
         style="fill:#272221;fill-opacity:1;fill-rule:nonzero;stroke:none"
         d="m 1279.69,80.7383 c -10.12,-5.9375 -24.69,-8.8985 -43.75,-8.8985 -22.31,0 -40.39,6.75 -54.22,20.3086 -13.75,13.5116 -20.63,30.9416 -20.63,52.1916 0,24.68 7.39,44.101 22.19,58.281 14.77,14.258 34.53,21.399 59.22,21.399 17.07,0 29.45,-2.301 37.19,-6.872 V 179.18 c -9.38,6.949 -19.81,10.468 -31.25,10.468 -12.93,0 -23.13,-3.75 -30.63,-11.25 -7.5,-7.5 -11.25,-17.886 -11.25,-31.097 0,-12.813 3.6,-22.891 10.78,-30.153 7.19,-7.308 17.04,-10.937 29.54,-10.937 11.13,0 22.07,3.48 32.81,10.469 z" /><path
         id="path34"
         style="fill:#272221;fill-opacity:1;fill-rule:nonzero;stroke:none"
         d="m 1448.24,75.4297 h -44.53 V 157.77 c 0,21.25 -7.77,31.878 -23.28,31.878 -7.93,0 -14.34,-2.968 -19.22,-8.91 -4.92,-5.937 -7.34,-13.508 -7.34,-22.648 V 75.4297 h -44.69 V 290.121 h 44.69 v -91.25 h 0.62 c 10.94,16.75 25.78,25.149 44.53,25.149 32.82,0 49.22,-19.84 49.22,-59.532 z" /><path
         id="path36"
         style="fill:#272221;fill-opacity:1;fill-rule:nonzero;stroke:none"
         d="M 1693.63,220.43 1651.76,75.4297 h -47.03 l -21.41,85.0003 c -1.37,5.621 -2.15,11.761 -2.34,18.441 h -0.78 c -0.75,-7.312 -1.72,-13.281 -2.97,-17.973 l -22.82,-85.4683 h -46.56 L 1467.07,220.43 h 45.47 l 20,-94.532 c 0.94,-4.488 1.64,-9.918 2.19,-16.25 h 0.78 c 0.51,6.641 1.33,12.231 2.5,16.723 l 25,94.059 h 42.65 l 22.35,-94.532 c 0.51,-2.418 1.17,-7.886 2.03,-16.41 h 0.94 c 0.39,5.391 1.13,10.864 2.18,16.41 l 18.91,94.532 z" /><path
         id="path38"
         style="fill:#272221;fill-opacity:1;fill-rule:nonzero;stroke:none"
         d="m 1835.35,75.4297 h -42.34 v 20.7812 h -0.63 c -9.68,-16.25 -24.06,-24.3711 -43.12,-24.3711 -14.06,0 -25.16,3.9805 -33.28,12.0313 -8.05,8.0078 -12.03,18.6289 -12.03,31.8669 0,28.133 16.64,44.383 50,48.75 l 39.37,5.313 c 0,15.82 -8.59,23.75 -25.78,23.75 -17.31,0 -33.75,-5.153 -49.38,-15.461 v 33.75 c 6.25,3.199 14.77,6.012 25.63,8.43 10.82,2.5 20.66,3.75 29.53,3.75 41.33,0 62.03,-20.622 62.03,-61.872 z m -42.03,58.9103 v 9.84 l -26.41,-3.442 c -14.61,-1.867 -21.87,-8.437 -21.87,-19.687 0,-5.11 1.76,-9.332 5.31,-12.653 3.52,-3.238 8.32,-4.847 14.38,-4.847 8.43,0 15.31,2.898 20.62,8.75 5.31,5.82 7.97,13.168 7.97,22.039 z" /><path
         id="path40"
         style="fill:#272221;fill-opacity:1;fill-rule:nonzero;stroke:none"
         d="m 1965.59,180.121 c -5.43,2.891 -11.72,4.367 -18.91,4.367 -9.69,0 -17.3,-3.59 -22.81,-10.777 -5.43,-7.109 -8.13,-16.801 -8.13,-29.063 V 75.4297 h -44.69 V 220.43 h 44.69 v -26.879 h 0.63 c 7.07,19.57 19.76,29.379 38.12,29.379 4.77,0 8.48,-0.59 11.1,-1.719 z" /><path
         id="path42"
         style="fill:#272221;fill-opacity:1;fill-rule:nonzero;stroke:none"
         d="m 2074.26,77.1484 c -6.68,-3.5195 -16.68,-5.3086 -30,-5.3086 -31.49,0 -47.19,16.3985 -47.19,49.2112 v 66.41 h -23.59 v 32.969 h 23.59 v 31.25 l 44.53,12.808 V 220.43 h 32.66 v -32.969 h -32.66 v -58.59 c 0,-15.121 5.98,-22.66 17.97,-22.66 4.69,0 9.57,1.328 14.69,4.059 z" /><path
         id="path44"
         style="fill:#272221;fill-opacity:1;fill-rule:nonzero;stroke:none"
         d="m 2214.14,75.4297 h -130.16 v 18.5898 l 72.66,93.4415 h -65.47 v 32.969 h 122.35 v -22.032 l -68.91,-90 h 69.53 z" /><path
         id="path46"
         style="fill:#272221;fill-opacity:1;fill-rule:nonzero;stroke:none"
         d="M 2322.3,75.4297 V 278.551 h 71.88 c 72.07,0 108.12,-33.039 108.12,-99.063 0,-31.558 -9.84,-56.828 -29.53,-75.777 -19.68,-18.8712 -45.89,-28.2813 -78.59,-28.2813 z m 45.63,165.7813 v -128.75 h 22.66 c 19.88,0 35.46,5.937 46.71,17.809 11.25,11.96 16.88,28.171 16.88,48.601 0,19.367 -5.63,34.57 -16.88,45.617 -11.17,11.133 -26.79,16.723 -46.87,16.723 z" /><path
         id="path48"
         style="fill:#272221;fill-opacity:1;fill-rule:nonzero;stroke:none"
         d="m 2662.19,135.121 h -94.53 c 1.44,-21.062 14.72,-31.57 39.84,-31.57 15.94,0 29.92,3.789 42.03,11.41 V 82.6211 c -13.44,-7.1914 -30.9,-10.7813 -52.34,-10.7813 -23.36,0 -41.53,6.4805 -54.53,19.5313 -12.93,13.0079 -19.38,31.1289 -19.38,54.3669 0,24.063 6.95,43.133 20.94,57.192 14.06,14.058 31.25,21.09 51.56,21.09 21.13,0 37.5,-6.321 49.06,-18.899 11.57,-12.5 17.35,-29.531 17.35,-51.101 z m -41.41,27.5 c 0,20.82 -8.44,31.25 -25.31,31.25 -7.11,0 -13.28,-3.051 -18.59,-9.07 -5.24,-5.93 -8.4,-13.352 -9.54,-22.18 z" /><path
         id="path50"
         style="fill:#272221;fill-opacity:1;fill-rule:nonzero;stroke:none"
         d="m 2826.91,220.43 -53.9,-145.0003 h -50.94 L 2670.66,220.43 h 47.82 l 25.15,-89.379 c 2.82,-10.11 4.46,-18.711 5,-25.781 h 0.63 c 0.62,6.761 2.34,15.082 5.15,25 l 25.79,90.16 z" /><path
         id="path52"
         style="fill:#272221;fill-opacity:1;fill-rule:nonzero;stroke:none"
         d="m 2976.56,135.121 h -94.53 c 1.45,-21.062 14.73,-31.57 39.85,-31.57 15.93,0 29.92,3.789 42.03,11.41 V 82.6211 c -13.44,-7.1914 -30.9,-10.7813 -52.35,-10.7813 -23.36,0 -41.52,6.4805 -54.53,19.5313 -12.93,13.0079 -19.37,31.1289 -19.37,54.3669 0,24.063 6.95,43.133 20.93,57.192 14.07,14.058 31.25,21.09 51.57,21.09 21.13,0 37.5,-6.321 49.06,-18.899 11.56,-12.5 17.34,-29.531 17.34,-51.101 z m -41.4,27.5 c 0,20.82 -8.44,31.25 -25.32,31.25 -7.11,0 -13.28,-3.051 -18.59,-9.07 -5.23,-5.93 -8.4,-13.352 -9.53,-22.18 z" /><path
         id="path54"
         style="fill:#272221;fill-opacity:1;fill-rule:nonzero;stroke:none"
         d="m 3003.28,75.4297 h 44.6875 v 214.691 H 3003.28 Z" /><path
         id="path56"
         style="fill:#272221;fill-opacity:1;fill-rule:nonzero;stroke:none"
         d="m 3155.04,71.8398 c -24.18,0 -43.2,6.75 -57.03,20.3086 -13.87,13.5116 -20.78,31.9106 -20.78,55.1526 0,24.07 7.18,42.859 21.56,56.41 14.37,13.519 33.75,20.309 58.12,20.309 24.14,0 43.05,-6.79 56.72,-20.309 13.64,-13.551 20.47,-31.481 20.47,-53.75 0,-24.063 -7.11,-43.121 -21.25,-57.1915 -14.06,-13.9804 -33.36,-20.9297 -57.81,-20.9297 z m 1.09,117.8082 c -10.54,0 -18.75,-3.668 -24.68,-10.937 -5.86,-7.191 -8.75,-17.461 -8.75,-30.781 0,-27.809 11.25,-41.719 33.75,-41.719 21.44,0 32.18,14.258 32.18,42.809 0,27.07 -10.86,40.628 -32.5,40.628 z" /><path
         id="path58"
         style="fill:#272221;fill-opacity:1;fill-rule:nonzero;stroke:none"
         d="m 3308.59,92.3008 h -0.62 V 8.71094 h -44.69 V 220.43 h 44.69 v -21.879 h 0.62 c 11.02,16.961 26.57,25.469 46.57,25.469 18.75,0 33.2,-6.481 43.43,-19.372 10.32,-12.929 15.47,-30.468 15.47,-52.66 0,-24.179 -6.01,-43.59 -17.97,-58.2771 -11.99,-14.6093 -27.89,-21.8711 -47.65,-21.8711 -17.5,0 -30.78,6.7891 -39.85,20.461 z m -1.4,59.3792 v -11.559 c 0,-10 2.65,-18.211 7.97,-24.531 5.31,-6.25 12.22,-9.379 20.78,-9.379 10.19,0 18.12,3.91 23.75,11.719 5.62,7.89 8.43,19.101 8.43,33.59 0,25.39 -9.92,38.128 -29.68,38.128 -9.18,0 -16.68,-3.519 -22.5,-10.468 -5.86,-6.879 -8.75,-16.059 -8.75,-27.5 z" /><path
         id="path60"
         style="fill:#272221;fill-opacity:1;fill-rule:nonzero;stroke:none"
         d="m 3673.55,75.4297 h -44.53 V 158.09 c 0,21.012 -7.77,31.558 -23.28,31.558 -7.42,0 -13.4,-3.199 -17.97,-9.527 -4.61,-6.25 -6.87,-14.141 -6.87,-23.601 V 75.4297 h -44.85 V 159.02 c 0,20.39 -7.61,30.628 -22.81,30.628 -7.62,0 -13.71,-3.046 -18.28,-9.058 -4.61,-6.059 -6.87,-14.219 -6.87,-24.539 V 75.4297 H 3443.4 V 220.43 h 44.69 v -22.66 h 0.62 c 4.57,7.699 11.02,13.992 19.38,18.91 8.32,4.879 17.5,7.34 27.5,7.34 20.39,0 34.41,-9.02 42.03,-27.032 11.01,18.012 27.22,27.032 48.59,27.032 31.56,0 47.34,-19.489 47.34,-58.43 z" /><path
         id="path62"
         style="fill:#272221;fill-opacity:1;fill-rule:nonzero;stroke:none"
         d="m 3839.18,135.121 h -94.53 c 1.44,-21.062 14.73,-31.57 39.84,-31.57 15.94,0 29.92,3.789 42.03,11.41 V 82.6211 c -13.43,-7.1914 -30.9,-10.7813 -52.34,-10.7813 -23.36,0 -41.52,6.4805 -54.53,19.5313 -12.93,13.0079 -19.38,31.1289 -19.38,54.3669 0,24.063 6.96,43.133 20.94,57.192 14.06,14.058 31.25,21.09 51.56,21.09 21.14,0 37.5,-6.321 49.07,-18.899 11.56,-12.5 17.34,-29.531 17.34,-51.101 z m -41.41,27.5 c 0,20.82 -8.43,31.25 -25.31,31.25 -7.11,0 -13.28,-3.051 -18.59,-9.07 -5.24,-5.93 -8.4,-13.352 -9.53,-22.18 z" /><path
         id="path64"
         style="fill:#272221;fill-opacity:1;fill-rule:nonzero;stroke:none"
         d="m 4005.94,75.4297 h -44.69 v 80.6213 c 0,22.39 -8.05,33.597 -24.06,33.597 -7.74,0 -14.07,-2.968 -19.07,-8.91 -5,-5.937 -7.5,-13.508 -7.5,-22.648 V 75.4297 h -44.68 V 220.43 h 44.68 v -22.969 h 0.63 c 10.63,17.699 26.13,26.559 46.56,26.559 32.07,0 48.13,-19.961 48.13,-59.84 z" /><path
         id="path66"
         style="fill:#272221;fill-opacity:1;fill-rule:nonzero;stroke:none"
         d="m 4129.18,77.1484 c -6.68,-3.5195 -16.68,-5.3086 -30,-5.3086 -31.48,0 -47.19,16.3985 -47.19,49.2112 v 66.41 h -23.59 v 32.969 h 23.59 v 31.25 l 44.53,12.808 V 220.43 h 32.66 v -32.969 h -32.66 v -58.59 c 0,-15.121 5.98,-22.66 17.97,-22.66 4.69,0 9.57,1.328 14.69,4.059 z" /></g></g></svg>