<?xml version="1.0" encoding="UTF-8" standalone="no"?>
<svg
   xmlns:dc="http://purl.org/dc/elements/1.1/"
   xmlns:cc="http://creativecommons.org/ns#"
   xmlns:rdf="http://www.w3.org/1999/02/22-rdf-syntax-ns#"
   xmlns:svg="http://www.w3.org/2000/svg"
   xmlns="http://www.w3.org/2000/svg"
   viewBox="0 0 570.66669 288"
   height="288"
   width="570.66669"
   xml:space="preserve"
   id="svg2"
   version="1.1"><metadata
     id="metadata8"><rdf:RDF><cc:Work
         rdf:about=""><dc:format>image/svg+xml</dc:format><dc:type
           rdf:resource="http://purl.org/dc/dcmitype/StillImage" /></cc:Work></rdf:RDF></metadata><defs
     id="defs6" /><g
     transform="matrix(1.3333333,0,0,-1.3333333,0,288)"
     id="g10"><g
       transform="scale(0.1)"
       id="g12"><path
         id="path14"
         style="fill:#730ff5;fill-opacity:1;fill-rule:evenodd;stroke:none"
         d="m 1745.47,1146.64 c -0.35,-2.34 -2.66,-17.03 -6.99,-44.02 -4.34,-27 -8.68,-51.33 -13.01,-73.01 -11.02,1.37 -11.02,17.69 0,49.02 1.33,2.35 3.83,16.84 7.5,43.48 3.67,26.68 1.17,52.03 -7.5,76.01 -0.67,3.33 -6.68,8.52 -18.01,15.51 -11.33,0.67 -11.33,7.66 0,20.98 4.02,-2.97 13.01,4.53 26.99,22.5 2.03,-0.31 3.87,14.53 5.51,44.53 0.35,2.31 0.51,15.47 0.51,39.49 0.35,23.99 0.15,45 -0.51,63.01 -3.32,7.66 0.35,21.64 11.02,41.99 1.32,-4.33 4.64,-24.33 10,-60 0.66,-4.02 0.5,-31.68 -0.51,-83.01 -0.67,-51.01 -5.67,-103.16 -15,-156.48 m 233.51,829.49 c -9.33,65.67 -9.68,112.5 -1.01,140.51 8.67,27.97 14.18,41.64 16.48,40.98 -10,2.34 -22.15,-4.5 -36.48,-20.51 -14.34,-15.98 -22.35,-25.31 -23.99,-27.97 -26.68,-5.35 -62.5,-17.03 -107.5,-35 -45.35,-18.36 -70.5,-28.67 -75.5,-31.02 -29.03,-10.66 -43.68,-14.84 -44.03,-12.5 -24.33,-3.98 -34.33,-8.16 -30,-12.5 -24.65,-30.66 -34.14,-51.83 -28.47,-63.51 -9.34,-38.99 -25.86,-92.66 -49.5,-160.98 -23.67,-68.36 -37.03,-106.17 -40,-113.51 -21.68,-73.32 -32.18,-137.82 -31.52,-193.48 0.66,-55.35 1.84,-84.53 3.52,-87.5 -4.03,-22.03 -9.34,-34.53 -16.02,-37.5 -15.66,-31.37 -20.31,-52.03 -13.98,-62.03 4.64,-31.64 8.98,-63.83 13,-96.49 3.64,-33 5.67,-50.82 5.98,-53.51 5,-41.33 8.52,-64.49 10.51,-69.49 7.65,-24.65 13.01,-41.64 16.01,-50.98 -1.68,-0.35 -5.35,-8.52 -11.01,-24.53 -6.02,-15.981 -3.52,-35.821 7.5,-59.489 13.32,-38.012 19.18,-62.351 17.5,-73.012 -0.35,-27.308 1.48,-40.308 5.51,-38.988 11.64,-23 22.65,-48 33,-75 10.67,-27.34 16.33,-42.141 17,-44.492 10.31,-26.008 16.32,-36.168 18,-30.508 27.31,42 45.32,66.68 53.99,73.988 -6.33,-16.328 -12.15,-35.98 -17.5,-58.988 -5.35,-23.32 -8.17,-36.172 -8.52,-38.512 -8.63,-45 -13.32,-67.66 -13.98,-67.968 -0.67,-19.34 1.48,-24.02 6.48,-14.02 20,28.668 33.87,45.348 41.53,50 46.32,37.649 84.84,77.18 115.5,118.508 30.67,41.641 46.64,64.141 47.97,67.5 11.37,20.32 25.67,48.012 43.01,83.012 16.99,34.648 26.33,53.98 28.01,57.968 16.99,34.692 30,67.851 38.98,99.531 9.03,31.64 13.52,48.63 13.52,50.98 16.33,106.01 23.83,226.17 22.5,360.5 -1.68,133.99 -6.33,251.33 -13.99,352 -7.34,100.66 -11.52,153.51 -12.5,158.51" /><path
         id="path16"
         style="fill:#730ff5;fill-opacity:1;fill-rule:evenodd;stroke:none"
         d="m 2526.48,1004.14 c 0.98,6.99 -10.19,43.16 -33.51,108.48 -1.68,0.35 -7.66,12.65 -18.01,36.99 -10.66,24.69 -15.31,59.02 -13.98,103.01 0.97,1.68 5.15,13.67 12.5,36.01 7.34,22.35 12.5,45.16 15.5,68.48 0.32,1.68 1.49,12.5 3.48,32.5 1.99,20 3.83,38.87 5.51,56.52 9.65,-11.33 16.68,-36.83 21.01,-76.52 -1.01,-2.97 -1.68,-17.66 -2.03,-43.99 -0.31,-26.67 5,-47.85 16.02,-63.51 -1.02,-2.31 -2.85,-20 -5.51,-52.97 -2.34,-33.36 -0.51,-68.36 5.51,-105 3.32,0.66 3.32,-9.53 0,-30.51 -8.67,-3.36 -7.66,-20.51 3.01,-51.52 0.97,-1.33 -2.19,-7.31 -9.5,-17.97 m 205,155 c 14.34,36.99 18.64,55.16 12.97,54.49 -10.66,38.32 -17.81,59.65 -21.48,63.99 4.33,5 1.99,50.86 -6.99,137.5 -9.03,59.33 -16.02,119.84 -21.02,181.52 -5,61.64 -7.5,95 -7.5,100 -4.34,76.64 -12.81,130.16 -25.51,160.47 -12.97,30 -20.31,44.34 -21.99,43.01 -20.66,32.65 -29.84,50.86 -27.5,54.49 -15.98,40.35 -27.81,55.35 -35.51,45 -22.65,12.03 -47.81,20.19 -75.47,24.53 -27.69,4.34 -42.85,6.33 -45.5,5.98 -23.36,20 -46.18,34.49 -68.52,43.51 -22.66,8.99 -34.84,13.32 -36.48,13.01 -32.35,58.63 -50.67,82.15 -55,70.47 10.66,-36.64 13.47,-75.16 8.47,-115.47 -5,-40.35 -8.32,-62.19 -10,-65.51 -15.31,-61.01 -32.5,-139.84 -51.48,-236.52 -18.67,-96.64 -28.83,-150.16 -30.51,-160.47 -7.66,-53.67 -15,-106.02 -21.99,-157.03 -6.68,-50.66 -10.35,-77.81 -11.02,-81.49 -3.63,-46.32 -0.97,-98 8.01,-155 9.02,-56.67 14.34,-87.65 16.02,-93 33.32,-119.999 54.84,-185.319 64.49,-195.979 39.33,-77.34 80.66,-132.692 123.98,-166.02 43.67,-33.32 67.35,-49.492 71.02,-48.512 23.32,-13.629 47.65,-29.648 73.01,-47.968 25.31,-18.012 38.98,-28.012 40.97,-30 22.7,-7.34 35.51,-5 38.52,6.988 -0.35,1.641 -1.02,10.82 -1.99,27.5 -1.02,16.641 0.66,31.172 5,43.48 6.32,22.692 7.65,34.532 3.98,35.512 22.66,70.66 38.01,110 46.02,118 15.31,40 25.31,77.66 30,113.008 4.33,35.672 6.17,54.651 5.5,56.991 12.31,63.33 20.32,94.85 23.99,94.5 6.99,32.65 8.16,52.34 3.51,59.02" /><path
         id="path18"
         style="fill:#002845;fill-opacity:1;fill-rule:evenodd;stroke:none"
         d="m 2150.98,832.109 -64.03,-65.98 -52.97,71.492 c 0,8.359 0.47,78.359 1.49,209.999 1.01,131.68 3.32,275.86 6.99,432.5 3.67,156.68 9.18,276.68 16.52,360 0,3 1.64,18.83 5,47.5 3.64,28.67 9.65,53.51 17.97,74.49 -7.3,3.67 -15.82,26.52 -25.47,68.51 l 26.49,29.5 c 6.33,3.67 23.98,3 53.01,-2 l 28,-46.01 c -6.01,-0.31 -20.35,-17.31 -43,-50.98 2.65,-6.01 5.82,-26.99 9.49,-63.01 0.35,-11.67 2.65,-97.65 6.99,-258 4.34,-160.32 8.16,-325.32 11.52,-495 3.32,-169.651 3.99,-273.991 2,-313.011" /><path
         id="path20"
         style="fill:#272221;fill-opacity:1;fill-rule:nonzero;stroke:none"
         d="M 176.289,75.1211 H 121.91 L 89.2617,129.18 c -2.5,4.058 -4.9219,7.699 -7.1914,10.941 -2.1914,3.199 -4.4492,5.969 -6.7187,8.277 -2.3008,2.262 -4.6914,4.063 -7.1914,5.313 -2.5,1.25 -5.2305,1.879 -8.1211,1.879 H 47.3789 V 75.1211 H 0.0390625 V 285.121 H 75.0391 c 50.9409,0 76.4099,-19.031 76.4099,-57.031 0,-7.43 -1.179,-14.219 -3.437,-20.469 -2.192,-6.172 -5.391,-11.723 -9.532,-16.723 -4.07,-4.918 -9.031,-9.179 -14.851,-12.808 -5.738,-3.68 -12.18,-6.488 -19.367,-8.442 v -0.628 c 3.117,-0.93 6.129,-2.571 9.058,-4.84 3.008,-2.192 5.86,-4.77 8.59,-7.66 2.699,-2.93 5.32,-6.09 7.82,-9.532 2.5,-3.359 4.758,-6.558 6.872,-9.687 z M 47.3789,249.801 v -58.59 h 20.4727 c 10.0781,0 18.1992,2.969 24.3789,8.91 6.25,5.93 9.3715,13.277 9.3715,22.027 0,18.442 -11.0122,27.653 -32.9731,27.653 z M 262.621,71.5195 c -25,0 -44.652,6.961 -58.91,20.9414 -14.301,14.0591 -21.41,33.0511 -21.41,57.0271 0,24.774 7.39,44.141 22.187,58.133 14.891,14.059 34.922,21.09 60.16,21.09 24.883,0 44.411,-7.031 58.59,-21.09 14.141,-13.992 21.25,-32.461 21.25,-55.473 0,-24.918 -7.297,-44.609 -21.867,-59.0582 -14.609,-14.3789 -34.609,-21.5703 -60,-21.5703 z m 1.25,121.8785 c -10.941,0 -19.492,-3.828 -25.633,-11.41 -6.047,-7.5 -9.058,-18.117 -9.058,-31.867 0,-28.871 11.64,-43.281 35,-43.281 22.07,0 33.121,14.84 33.121,44.531 0,28.008 -11.172,42.027 -33.43,42.027 z" /><path
         id="path22"
         style="fill:#272221;fill-opacity:1;fill-rule:nonzero;stroke:none"
         d="m 421.48,92.6211 h -0.621 v -17.5 h -46.25 V 297.148 h 46.25 v -94.527 h 0.621 c 11.329,17.379 27.579,26.09 48.75,26.09 19.379,0 34.258,-6.68 44.692,-20 10.387,-13.242 15.629,-31.371 15.629,-54.371 0,-25 -6.102,-45.078 -18.281,-60.1603 -12.192,-15.1211 -28.52,-22.6602 -48.911,-22.6602 -18.437,0 -32.418,7.0313 -41.879,21.1016 z m -1.402,63.2769 V 140.43 c 0,-9.692 2.731,-17.731 8.281,-24.059 5.621,-6.371 12.813,-9.531 21.563,-9.531 10.508,0 18.629,4.058 24.379,12.18 5.82,8.21 8.75,19.769 8.75,34.691 0,12.5 -2.66,22.23 -7.973,29.219 -5.308,6.949 -12.887,10.468 -22.656,10.468 -9.371,0 -17.152,-3.519 -23.281,-10.468 -6.051,-6.989 -9.063,-16.02 -9.063,-27.032 z" /><path
         id="path24"
         style="fill:#272221;fill-opacity:1;fill-rule:nonzero;stroke:none"
         d="m 695.621,136.988 h -97.812 c 1.57,-21.789 15.242,-32.648 41.101,-32.648 16.559,0 31.09,3.898 43.59,11.711 V 82.6211 c -13.871,-7.4219 -31.879,-11.1016 -54.059,-11.1016 -24.3,0 -43.089,6.6407 -56.41,20 -13.359,13.4415 -20,32.1915 -20,56.2505 0,24.89 7.188,44.57 21.559,59.07 14.461,14.57 32.269,21.871 53.441,21.871 21.879,0 38.75,-6.52 50.629,-19.531 11.949,-12.93 17.961,-30.551 17.961,-52.809 z m -42.812,28.442 c 0,21.449 -8.707,32.191 -26.09,32.191 -7.5,0 -13.989,-3.09 -19.379,-9.223 -5.43,-6.168 -8.711,-13.828 -9.84,-22.968 z" /><path
         id="path26"
         style="fill:#272221;fill-opacity:1;fill-rule:nonzero;stroke:none"
         d="m 821.051,183.398 c -5.539,3.012 -12.031,4.532 -19.531,4.532 -10,0 -17.891,-3.711 -23.59,-11.09 -5.629,-7.43 -8.442,-17.461 -8.442,-30.16 V 75.1211 h -46.25 V 225.121 h 46.25 v -27.82 h 0.633 c 7.258,20.32 20.469,30.469 39.527,30.469 4.883,0 8.672,-0.579 11.403,-1.719 z" /><path
         id="path28"
         style="fill:#272221;fill-opacity:1;fill-rule:nonzero;stroke:none"
         d="m 933.398,76.8398 c -6.878,-3.5195 -17.187,-5.3203 -30.937,-5.3203 -32.621,0 -48.91,16.9219 -48.91,50.7815 v 68.75 H 829.18 v 34.07 h 24.371 v 32.34 l 46.097,13.277 v -45.617 h 33.75 v -34.07 h -33.75 V 130.27 c 0,-15.622 6.172,-23.43 18.59,-23.43 4.883,0 9.922,1.441 15.16,4.371 z" /><path
         id="path30"
         style="fill:#272221;fill-opacity:1;fill-rule:nonzero;stroke:none"
         d="m 1036.84,83.2383 v 46.8827 c 8.43,-7.191 17.65,-12.582 27.65,-16.101 10,-3.551 20.04,-5.309 30.16,-5.309 5.94,0 11.13,0.508 15.62,1.559 4.46,1.019 8.17,2.5 11.1,4.378 3.01,1.954 5.23,4.262 6.72,6.872 1.44,2.582 2.18,5.39 2.18,8.441 0,4.059 -1.21,7.699 -3.59,10.937 -2.3,3.204 -5.47,6.172 -9.53,8.903 -4.06,2.699 -8.91,5.32 -14.53,7.82 -5.55,2.578 -11.53,5.188 -17.97,7.809 -16.37,6.871 -28.6,15.191 -36.72,25 -8.05,9.879 -12.03,21.871 -12.03,35.941 0,10.93 2.19,20.309 6.56,28.117 4.45,7.813 10.47,14.262 17.97,19.383 7.58,5.078 16.33,8.828 26.25,11.25 10,2.379 20.55,3.59 31.72,3.59 10.94,0 20.62,-0.699 29.06,-2.031 8.44,-1.25 16.25,-3.282 23.44,-6.09 v -43.75 c -3.56,2.379 -7.42,4.531 -11.56,6.398 -4.18,1.883 -8.44,3.442 -12.82,4.692 -4.37,1.25 -8.75,2.109 -13.12,2.66 -4.38,0.621 -8.52,0.93 -12.35,0.93 -5.43,0 -10.31,-0.54 -14.68,-1.559 -4.38,-1.051 -8.09,-2.5 -11.1,-4.371 -3.04,-1.879 -5.39,-4.141 -7.03,-6.719 -1.68,-2.5 -2.5,-5.391 -2.5,-8.601 0,-3.551 0.94,-6.719 2.81,-9.532 1.88,-2.726 4.46,-5.308 7.82,-7.808 3.43,-2.5 7.58,-4.961 12.5,-7.34 4.88,-2.43 10.39,-4.852 16.56,-7.352 8.44,-3.547 15.98,-7.297 22.66,-11.25 6.64,-3.976 12.38,-8.437 17.18,-13.437 4.77,-5 8.44,-10.742 10.94,-17.18 2.58,-6.371 3.91,-13.75 3.91,-22.191 0,-11.801 -2.27,-21.641 -6.72,-29.532 -4.49,-7.9292 -10.55,-14.3785 -18.13,-19.3785 -7.61,-4.9179 -16.48,-8.3906 -26.56,-10.4687 -10.12,-2.1797 -20.78,-3.2813 -32.03,-3.2813 -11.48,0 -22.42,1.0196 -32.81,2.9688 -10.43,1.8828 -19.46,4.7734 -27.03,8.75 z" /><path
         id="path32"
         style="fill:#272221;fill-opacity:1;fill-rule:nonzero;stroke:none"
         d="m 1323.75,80.5898 c -10.43,-6.0195 -25.47,-9.0703 -45.16,-9.0703 -23.12,0 -41.83,6.961 -56.09,20.9414 -14.18,13.9491 -21.25,31.9491 -21.25,54.0591 0,25.39 7.58,45.468 22.81,60.16 15.32,14.691 35.78,22.031 61.41,22.031 17.58,0 30.35,-2.34 38.28,-7.031 v -39.219 c -9.69,7.269 -20.47,10.937 -32.34,10.937 -13.25,0 -23.75,-3.91 -31.57,-11.718 -7.81,-7.731 -11.72,-18.442 -11.72,-32.192 0,-13.238 3.68,-23.668 11.1,-31.25 7.5,-7.617 17.73,-11.398 30.78,-11.398 11.45,0 22.7,3.629 33.75,10.93 z" /><path
         id="path34"
         style="fill:#272221;fill-opacity:1;fill-rule:nonzero;stroke:none"
         d="m 1498.2,75.1211 h -46.09 V 160.43 c 0,21.949 -8.05,32.968 -24.06,32.968 -8.25,0 -14.93,-3.128 -20,-9.378 -5,-6.168 -7.5,-13.899 -7.5,-23.282 V 75.1211 H 1354.3 V 297.148 h 46.25 V 202.93 h 0.62 c 11.25,17.191 26.6,25.781 46.1,25.781 33.94,0 50.93,-20.473 50.93,-61.41 z" /><path
         id="path36"
         style="fill:#272221;fill-opacity:1;fill-rule:nonzero;stroke:none"
         d="M 1751.95,225.121 1708.67,75.1211 h -48.59 l -22.03,87.9689 c -1.49,5.82 -2.31,12.18 -2.5,19.058 h -0.94 c -0.63,-7.617 -1.64,-13.828 -2.97,-18.597 l -23.75,-88.4299 h -47.97 l -42.34,149.9999 h 47.19 l 20.62,-97.82 c 0.94,-4.602 1.64,-10.153 2.19,-16.711 h 0.94 c 0.39,6.871 1.28,12.648 2.65,17.34 l 25.78,97.191 h 44.07 l 23.12,-97.82 c 0.63,-2.5 1.29,-8.199 2.03,-17.031 h 1.1 c 0.39,5.628 1.17,11.289 2.34,17.031 l 19.37,97.82 z" /><path
         id="path38"
         style="fill:#272221;fill-opacity:1;fill-rule:nonzero;stroke:none"
         d="m 1898.52,75.1211 h -43.75 v 21.5586 h -0.63 c -10,-16.8008 -24.92,-25.1602 -44.69,-25.1602 -14.49,0 -25.93,4.1016 -34.37,12.3516 -8.36,8.1992 -12.5,19.2189 -12.5,32.9689 0,29.14 17.22,45.969 51.72,50.461 l 40.78,5.32 c 0,16.438 -8.91,24.68 -26.72,24.68 -17.81,0 -34.81,-5.313 -50.94,-15.93 v 34.84 c 6.45,3.32 15.24,6.25 26.41,8.75 11.25,2.5 21.44,3.75 30.62,3.75 42.7,0 64.07,-21.332 64.07,-63.91 z m -43.44,60.9299 v 10.16 l -27.19,-3.59 c -15.12,-2 -22.66,-8.75 -22.66,-20.32 0,-5.313 1.8,-9.641 5.47,-12.961 3.75,-3.36 8.75,-5 15,-5 8.64,0 15.67,2.961 21.1,8.898 5.5,6.024 8.28,13.641 8.28,22.813 z" /><path
         id="path40"
         style="fill:#272221;fill-opacity:1;fill-rule:nonzero;stroke:none"
         d="m 2033.36,183.398 c -5.55,3.012 -12.03,4.532 -19.53,4.532 -10,0 -17.89,-3.711 -23.6,-11.09 -5.62,-7.43 -8.43,-17.461 -8.43,-30.16 V 75.1211 h -46.25 V 225.121 h 46.25 v -27.82 h 0.62 c 7.27,20.32 20.47,30.469 39.53,30.469 4.89,0 8.67,-0.579 11.41,-1.719 z" /><path
         id="path42"
         style="fill:#272221;fill-opacity:1;fill-rule:nonzero;stroke:none"
         d="m 2145.7,76.8398 c -6.87,-3.5195 -17.18,-5.3203 -30.93,-5.3203 -32.62,0 -48.91,16.9219 -48.91,50.7815 v 68.75 h -24.38 v 34.07 h 24.38 v 32.34 l 46.09,13.277 v -45.617 h 33.75 v -34.07 h -33.75 V 130.27 c 0,-15.622 6.17,-23.43 18.6,-23.43 4.88,0 9.92,1.441 15.15,4.371 z" /><path
         id="path44"
         style="fill:#272221;fill-opacity:1;fill-rule:nonzero;stroke:none"
         d="m 2290.43,75.1211 h -134.69 v 19.2187 l 75.31,96.7112 h -67.81 v 34.07 h 126.56 v -22.82 l -71.25,-93.121 h 71.88 z" /><path
         id="path46"
         style="fill:#272221;fill-opacity:1;fill-rule:nonzero;stroke:none"
         d="M 2402.38,75.1211 V 285.121 h 74.38 c 74.57,0 111.87,-34.141 111.87,-102.351 0,-32.731 -10.23,-58.86 -30.62,-78.43 -20.31,-19.5002 -47.42,-29.2189 -81.25,-29.2189 z M 2449.73,246.68 V 113.551 h 23.43 c 20.39,0 36.45,6.14 48.13,18.437 11.76,12.274 17.66,28.992 17.66,50.16 0,20.082 -5.86,35.864 -17.5,47.34 -11.57,11.453 -27.78,17.192 -48.6,17.192 z" /><path
         id="path48"
         style="fill:#272221;fill-opacity:1;fill-rule:nonzero;stroke:none"
         d="m 2754.02,136.988 h -97.81 c 1.56,-21.789 15.24,-32.648 41.09,-32.648 16.57,0 31.1,3.898 43.6,11.711 V 82.6211 c -13.87,-7.4219 -31.88,-11.1016 -54.06,-11.1016 -24.3,0 -43.09,6.6407 -56.41,20 -13.36,13.4415 -20,32.1915 -20,56.2505 0,24.89 7.19,44.57 21.56,59.07 14.46,14.57 32.27,21.871 53.44,21.871 21.87,0 38.75,-6.52 50.62,-19.531 11.96,-12.93 17.97,-30.551 17.97,-52.809 z m -42.81,28.442 c 0,21.449 -8.71,32.191 -26.09,32.191 -7.5,0 -13.99,-3.09 -19.38,-9.223 -5.43,-6.168 -8.71,-13.828 -9.84,-22.968 z" /><path
         id="path50"
         style="fill:#272221;fill-opacity:1;fill-rule:nonzero;stroke:none"
         d="M 2924.45,225.121 2868.67,75.1211 h -52.81 l -53.13,149.9999 h 49.54 l 26.09,-92.5 c 2.89,-10.43 4.57,-19.301 5,-26.57 h 0.62 c 0.71,6.879 2.54,15.469 5.47,25.789 l 26.57,93.281 z" /><path
         id="path52"
         style="fill:#272221;fill-opacity:1;fill-rule:nonzero;stroke:none"
         d="m 3079.22,136.988 h -97.81 c 1.56,-21.789 15.23,-32.648 41.09,-32.648 16.56,0 31.09,3.898 43.59,11.711 V 82.6211 c -13.86,-7.4219 -31.87,-11.1016 -54.06,-11.1016 -24.3,0 -43.08,6.6407 -56.41,20 -13.35,13.4415 -20,32.1915 -20,56.2505 0,24.89 7.19,44.57 21.57,59.07 14.45,14.57 32.26,21.871 53.43,21.871 21.88,0 38.76,-6.52 50.63,-19.531 11.95,-12.93 17.97,-30.551 17.97,-52.809 z m -42.81,28.442 c 0,21.449 -8.71,32.191 -26.1,32.191 -7.5,0 -13.98,-3.09 -19.37,-9.223 -5.43,-6.168 -8.71,-13.828 -9.85,-22.968 z" /><path
         id="path54"
         style="fill:#272221;fill-opacity:1;fill-rule:nonzero;stroke:none"
         d="m 3106.84,75.1211 h 46.25 v 222.027 h -46.25 z" /><path
         id="path56"
         style="fill:#272221;fill-opacity:1;fill-rule:nonzero;stroke:none"
         d="m 3263.79,71.5195 c -25,0 -44.65,6.961 -58.91,20.9414 -14.29,14.0591 -21.4,33.0511 -21.4,57.0271 0,24.774 7.38,44.141 22.18,58.133 14.89,14.059 34.93,21.09 60.16,21.09 24.88,0 44.41,-7.031 58.59,-21.09 14.14,-13.992 21.25,-32.461 21.25,-55.473 0,-24.918 -7.3,-44.609 -21.87,-59.0582 -14.61,-14.3789 -34.61,-21.5703 -60,-21.5703 z m 1.25,121.8785 c -10.94,0 -19.49,-3.828 -25.63,-11.41 -6.05,-7.5 -9.06,-18.117 -9.06,-31.867 0,-28.871 11.64,-43.281 35,-43.281 22.07,0 33.13,14.84 33.13,44.531 0,28.008 -11.18,42.027 -33.44,42.027 z" /><path
         id="path58"
         style="fill:#272221;fill-opacity:1;fill-rule:nonzero;stroke:none"
         d="m 3422.66,92.6211 h -0.63 V 6.05078 h -46.25 V 225.121 h 46.25 v -22.5 h 0.63 c 11.32,17.379 27.38,26.09 48.12,26.09 19.45,0 34.45,-6.68 45,-20 10.63,-13.242 15.94,-31.371 15.94,-54.371 0,-25 -6.21,-45.078 -18.6,-60.1603 -12.3,-15.1211 -28.71,-22.6602 -49.21,-22.6602 -18.05,0 -31.8,7.0313 -41.25,21.1016 z m -1.41,61.3989 v -12.032 c 0,-10.308 2.7,-18.75 8.13,-25.308 5.5,-6.559 12.73,-9.84 21.71,-9.84 10.51,0 18.64,4.058 24.38,12.18 5.82,8.21 8.75,19.769 8.75,34.691 0,26.449 -10.24,39.687 -30.63,39.687 -9.49,0 -17.26,-3.597 -23.28,-10.777 -6.05,-7.191 -9.06,-16.723 -9.06,-28.601 z" /><path
         id="path60"
         style="fill:#272221;fill-opacity:1;fill-rule:nonzero;stroke:none"
         d="m 3800.23,75.1211 h -46.09 v 85.6169 c 0,21.762 -8.05,32.66 -24.06,32.66 -7.62,0 -13.83,-3.277 -18.6,-9.847 -4.8,-6.563 -7.18,-14.762 -7.18,-24.531 V 75.1211 h -46.25 V 161.52 c 0,21.25 -7.89,31.878 -23.6,31.878 -7.93,0 -14.29,-3.128 -19.06,-9.378 -4.69,-6.25 -7.03,-14.801 -7.03,-25.622 V 75.1211 h -46.25 V 225.121 h 46.25 V 201.68 h 0.62 c 4.77,8.011 11.49,14.531 20.16,19.531 8.63,5 18.05,7.5 28.28,7.5 21.13,0 35.63,-9.332 43.44,-27.973 11.44,18.641 28.28,27.973 50.47,27.973 32.58,0 48.9,-20.121 48.9,-60.313 z" /><path
         id="path62"
         style="fill:#272221;fill-opacity:1;fill-rule:nonzero;stroke:none"
         d="m 3971.6,136.988 h -97.81 c 1.56,-21.789 15.23,-32.648 41.09,-32.648 16.57,0 31.1,3.898 43.6,11.711 V 82.6211 c -13.87,-7.4219 -31.88,-11.1016 -54.07,-11.1016 -24.29,0 -43.08,6.6407 -56.4,20 -13.36,13.4415 -20,32.1915 -20,56.2505 0,24.89 7.19,44.57 21.56,59.07 14.45,14.57 32.27,21.871 53.44,21.871 21.87,0 38.75,-6.52 50.62,-19.531 11.96,-12.93 17.97,-30.551 17.97,-52.809 z m -42.81,28.442 c 0,21.449 -8.71,32.191 -26.09,32.191 -7.5,0 -13.99,-3.09 -19.38,-9.223 -5.43,-6.168 -8.71,-13.828 -9.84,-22.968 z" /><path
         id="path64"
         style="fill:#272221;fill-opacity:1;fill-rule:nonzero;stroke:none"
         d="m 4144.06,75.1211 h -46.09 v 83.2769 c 0,23.321 -8.36,35 -25,35 -8.05,0 -14.65,-3.128 -19.85,-9.378 -5.11,-6.168 -7.65,-13.899 -7.65,-23.282 V 75.1211 h -46.25 V 225.121 h 46.25 v -23.75 h 0.62 c 11.02,18.199 27.07,27.34 48.13,27.34 33.2,0 49.84,-20.59 49.84,-61.723 z" /><path
         id="path66"
         style="fill:#272221;fill-opacity:1;fill-rule:nonzero;stroke:none"
         d="m 4271.48,76.8398 c -6.87,-3.5195 -17.18,-5.3203 -30.93,-5.3203 -32.62,0 -48.91,16.9219 -48.91,50.7815 v 68.75 h -24.37 v 34.07 h 24.37 v 32.34 l 46.09,13.277 v -45.617 h 33.75 v -34.07 h -33.75 V 130.27 c 0,-15.622 6.18,-23.43 18.6,-23.43 4.88,0 9.92,1.441 15.15,4.371 z" /></g></g></svg>