<?xml version="1.0" encoding="UTF-8" standalone="no"?>
<svg
   xmlns:dc="http://purl.org/dc/elements/1.1/"
   xmlns:cc="http://creativecommons.org/ns#"
   xmlns:rdf="http://www.w3.org/1999/02/22-rdf-syntax-ns#"
   xmlns:svg="http://www.w3.org/2000/svg"
   xmlns="http://www.w3.org/2000/svg"
   viewBox="0 0 256 325.33334"
   height="325.33334"
   width="256"
   xml:space="preserve"
   id="svg2"
   version="1.1"><metadata
     id="metadata8"><rdf:RDF><cc:Work
         rdf:about=""><dc:format>image/svg+xml</dc:format><dc:type
           rdf:resource="http://purl.org/dc/dcmitype/StillImage" /></cc:Work></rdf:RDF></metadata><defs
     id="defs6" /><g
     transform="matrix(1.3333333,0,0,-1.3333333,0,325.33333)"
     id="g10"><g
       transform="scale(0.1)"
       id="g12"><path
         id="path14"
         style="fill:#4c61d7;fill-opacity:1;fill-rule:evenodd;stroke:none"
         d="m 379.922,882.699 c -0.543,-3.597 -4.063,-26.179 -10.742,-67.66 -6.68,-41.488 -13.321,-78.867 -20,-112.187 -16.91,2.109 -16.91,27.187 0,75.347 2.031,3.602 5.898,25.86 11.519,66.801 5.672,41.02 1.801,79.961 -11.519,116.84 -1.02,5.07 -10.27,13.082 -27.66,23.82 -17.418,1.02 -17.418,11.762 0,32.23 6.179,-4.57 20,6.95 41.492,34.57 3.117,-0.47 5.937,22.34 8.437,68.44 0.539,3.55 0.781,23.79 0.781,60.7 0.54,36.84 0.231,69.14 -0.781,96.8 -5.078,11.8 0.539,33.28 16.949,64.53 2.032,-6.64 7.153,-37.38 15.352,-92.19 1.02,-6.17 0.781,-48.67 -0.781,-127.58 -1.02,-78.39 -8.707,-158.512 -23.047,-240.461 M 738.789,2157.42 c -14.379,100.9 -14.879,172.89 -1.559,215.94 13.321,42.97 21.79,63.98 25.309,62.97 -15.348,3.59 -34.019,-6.92 -56.059,-31.53 -22.031,-24.57 -34.332,-38.9 -36.871,-42.96 -40.98,-8.25 -96.019,-26.22 -165.199,-53.79 -69.68,-28.25 -108.359,-44.07 -116.012,-47.7 -44.609,-16.37 -67.109,-22.81 -67.66,-19.18 -37.418,-6.13 -52.769,-12.58 -46.09,-19.22 -37.886,-47.11 -52.457,-79.65 -43.789,-97.61 -14.339,-59.89 -39.73,-142.39 -76.058,-247.39 -36.36,-105.04 -56.9104,-163.16 -61.4416,-174.41 -33.3203,-112.7 -49.4883,-211.8 -48.4375,-297.34 1.0195,-85.08 2.8086,-129.89 5.3867,-134.46 -6.168,-33.86 -14.3281,-53.08 -24.6094,-57.65 -24.05857,-48.21 -31.21092,-79.93 -21.48045,-95.32 7.10935,-48.63 13.79295,-98.08 19.96095,-148.282 5.5898,-50.699 8.7109,-78.078 9.1797,-82.218 7.6914,-63.52 13.0898,-99.11 16.1719,-106.801 11.7578,-37.848 20,-63.989 24.6093,-78.321 -2.582,-0.546 -8.2422,-13.089 -16.9101,-37.699 C 47.9688,639.879 51.8008,609.41 68.75,573.012 89.2188,514.609 98.1992,477.23 95.6211,460.82 c -0.543,-41.949 2.2695,-61.949 8.4809,-59.922 17.886,-35.347 34.808,-73.75 50.699,-115.238 16.41,-42.031 25.121,-64.762 26.14,-68.359 15.821,-40 25.079,-55.582 27.649,-46.91 41.961,64.531 69.648,102.5 82.969,113.711 -9.719,-25.082 -18.668,-55.27 -26.868,-90.661 -8.242,-35.82 -12.582,-55.589 -13.089,-59.179 C 238.32,65.1211 231.09,30.3086 230.078,29.8008 c -1.019,-29.679706 2.301,-36.91018 9.961,-21.51955 30.742,44.05855 52.07,69.68755 63.832,76.83985 71.207,57.8479 130.391,118.5899 177.5,182.1089 47.109,63.981 71.68,98.551 73.707,103.75 17.461,31.211 39.453,73.75 66.094,127.54 26.129,53.242 40.469,82.96 43.047,89.101 26.133,53.277 46.09,104.258 59.922,152.93 13.871,48.629 20.738,74.758 20.738,78.359 25.121,162.891 36.641,347.54 34.609,553.98 -2.578,205.9 -9.718,386.25 -21.519,540.94 -11.25,154.69 -17.699,235.9 -19.18,243.59" /><path
         id="path16"
         style="fill:#4c61d7;fill-opacity:1;fill-rule:evenodd;stroke:none"
         d="m 1580.16,663.711 c 1.48,10.738 -15.67,66.328 -51.53,166.719 -2.58,0.55 -11.75,19.449 -27.65,56.84 -16.41,37.929 -23.56,90.699 -21.53,158.28 1.53,2.61 7.93,21.01 19.22,55.35 11.29,34.33 19.22,69.41 23.83,105.23 0.51,2.58 2.3,19.22 5.35,49.96 3.05,30.75 5.9,59.73 8.48,86.84 14.8,-17.38 25.62,-56.6 32.3,-117.58 -1.56,-4.57 -2.61,-27.15 -3.12,-67.58 -0.51,-41.01 7.65,-73.55 24.61,-97.61 -1.57,-3.56 -4.38,-30.75 -8.48,-81.41 -3.59,-51.25 -0.78,-105.039 8.48,-161.371 5.08,1.019 5.08,-14.649 0,-46.867 -13.32,-5.16 -11.8,-31.532 4.61,-79.184 1.48,-2.027 -3.36,-11.207 -14.57,-27.617 m 315,238.199 c 22.03,56.84 28.63,84.77 19.96,83.75 -16.41,58.87 -27.39,91.64 -33.05,98.32 6.68,7.7 3.09,78.17 -10.74,211.29 -13.87,91.21 -24.61,184.18 -32.27,278.99 -7.69,94.69 -11.56,145.97 -11.56,153.67 -6.64,117.77 -19.69,200 -39.18,246.56 -19.92,46.13 -31.21,68.17 -33.79,66.1 -31.76,50.19 -45.86,78.16 -42.26,83.75 -24.57,62.03 -42.74,85.07 -54.57,69.14 -34.81,18.51 -73.48,31.05 -115.98,37.73 -42.54,6.64 -65.86,9.73 -69.92,9.18 -35.9,30.7 -70.98,53.01 -105.32,66.88 -34.8,13.78 -53.51,20.46 -56.05,19.96 -49.69,90.11 -77.85,126.25 -84.53,108.32 16.4,-56.33 20.7,-115.51 13.05,-177.46 -7.7,-62 -12.82,-95.55 -15.4,-100.67 -23.51,-93.75 -49.92,-214.92 -79.1,-363.47 -28.71,-148.52 -44.29,-230.75 -46.87,-246.61 -11.76,-82.46 -23.05,-162.93 -33.79,-241.32 -10.27,-77.86 -15.94,-119.57 -16.95,-125.2 -5.59,-71.21 -1.49,-150.62 12.3,-238.199 13.87,-87.109 22.03,-134.691 24.61,-142.93 51.21,-184.421 84.3,-284.769 99.1,-301.171 60.47,-118.872 123.99,-203.911 190.55,-255.122 67.11,-51.207 103.48,-76.058 109.14,-74.566 35.82,-20.941 73.24,-45.551 112.19,-73.7109 38.9,-27.6602 59.92,-43.0508 62.97,-46.1016 34.88,-11.289 54.57,-7.6875 59.18,10.75 -0.55,2.5313 -1.57,16.6407 -3.05,42.2615 -1.56,25.59 1.01,47.891 7.69,66.801 9.73,34.879 11.76,53.078 6.1,54.566 34.84,108.59 58.43,169.063 70.74,181.372 23.52,61.441 38.87,119.332 46.09,173.671 6.64,54.797 9.5,83.938 8.48,87.579 18.91,97.3 31.21,145.742 36.84,145.191 10.74,50.199 12.53,80.43 5.39,90.699" /><path
         id="path18"
         style="fill:#002845;fill-opacity:1;fill-rule:evenodd;stroke:none"
         d="m 1003.09,399.34 -98.399,-101.371 -81.41,109.84 c 0,12.851 0.739,120.429 2.309,322.742 1.558,202.34 5.07,423.899 10.738,664.609 5.621,240.78 14.102,425.19 25.391,553.24 0,4.61 2.5,28.94 7.691,73.01 5.59,44.06 14.809,82.22 27.621,114.45 -11.25,5.66 -24.332,40.78 -39.14,105.31 l 40.66,45.31 c 9.73,5.63 36.879,4.61 81.488,-3.04 l 43.051,-70.74 c -9.26,-0.47 -31.289,-26.61 -66.102,-78.32 4.063,-9.26 8.953,-41.49 14.571,-96.84 0.55,-17.93 4.101,-150.08 10.742,-396.49 6.679,-246.36 12.539,-499.92 17.739,-760.698 5.08,-260.704 6.09,-421.012 3.05,-481.012" /></g></g></svg>